<svg width="120" height="90" viewBox="0 0 120 90" fill="none" xmlns="http://www.w3.org/2000/svg">
<ellipse cx="60.9364" cy="73.7255" rx="54.9178" ry="10.5322" fill="#EFEFEF"/>
<path d="M37.7482 10.4796L19.3409 30.5602C18.9594 30.9765 18.7477 31.5206 18.7477 32.0853V53.9954C18.7477 55.2419 19.7582 56.2523 21.0046 56.2523H100.495C101.742 56.2523 102.752 55.2418 102.752 53.9954V32.2157C102.752 31.6173 102.515 31.0434 102.092 30.6202L81.8895 10.4091C81.4662 9.98562 80.892 9.7477 80.2932 9.7477H39.4119C38.7793 9.7477 38.1757 10.0132 37.7482 10.4796Z" fill="#F5F5F5" stroke="#CACACA" stroke-width="1.5046"/>
<mask id="path-3-inside-1_466_32817" fill="white">
<path fill-rule="evenodd" clip-rule="evenodd" d="M43.6338 31.5967H18.0557V69.2116C18.0557 71.7045 20.0766 73.7254 22.5695 73.7254H99.3039C101.797 73.7254 103.818 71.7045 103.818 69.2116V31.5967H76.735V35.791C76.735 39.1149 74.0404 41.8094 70.7166 41.8094H49.6522C46.3283 41.8094 43.6338 39.1149 43.6338 35.791V31.5967Z"/>
</mask>
<path fill-rule="evenodd" clip-rule="evenodd" d="M43.6338 31.5967H18.0557V69.2116C18.0557 71.7045 20.0766 73.7254 22.5695 73.7254H99.3039C101.797 73.7254 103.818 71.7045 103.818 69.2116V31.5967H76.735V35.791C76.735 39.1149 74.0404 41.8094 70.7166 41.8094H49.6522C46.3283 41.8094 43.6338 39.1149 43.6338 35.791V31.5967Z" fill="white"/>
<path d="M18.0557 31.5967V30.0921H16.5511V31.5967H18.0557ZM43.6338 31.5967H45.1384V30.0921H43.6338V31.5967ZM103.818 31.5967H105.322V30.0921H103.818V31.5967ZM76.735 31.5967V30.0921H75.2304V31.5967H76.735ZM18.0557 33.1013H43.6338V30.0921H18.0557V33.1013ZM19.5603 69.2116V31.5967H16.5511V69.2116H19.5603ZM22.5695 72.2208C20.9075 72.2208 19.5603 70.8736 19.5603 69.2116H16.5511C16.5511 72.5355 19.2456 75.23 22.5695 75.23V72.2208ZM99.3039 72.2208H22.5695V75.23H99.3039V72.2208ZM102.313 69.2116C102.313 70.8736 100.966 72.2208 99.3039 72.2208V75.23C102.628 75.23 105.322 72.5355 105.322 69.2116H102.313ZM102.313 31.5967V69.2116H105.322V31.5967H102.313ZM76.735 33.1013H103.818V30.0921H76.735V33.1013ZM75.2304 31.5967V35.791H78.2396V31.5967H75.2304ZM75.2304 35.791C75.2304 38.2839 73.2095 40.3048 70.7166 40.3048V43.314C74.8714 43.314 78.2396 39.9458 78.2396 35.791H75.2304ZM70.7166 40.3048H49.6522V43.314H70.7166V40.3048ZM49.6522 40.3048C47.1593 40.3048 45.1384 38.2839 45.1384 35.791H42.1292C42.1292 39.9458 45.4974 43.314 49.6522 43.314V40.3048ZM45.1384 35.791V31.5967H42.1292V35.791H45.1384Z" fill="#CACACA" mask="url(#path-3-inside-1_466_32817)"/>
</svg>
