<svg width="130" height="140" viewBox="0 0 130 140" fill="none" xmlns="http://www.w3.org/2000/svg">
<path d="M60.9168 12.4235C63.4339 10.9295 66.5661 10.9295 69.0832 12.4235L92.95 26.5892L117.151 40.1756C119.704 41.6085 121.27 44.321 121.234 47.2479L120.9 75L121.234 102.752C121.27 105.679 119.704 108.391 117.151 109.824L92.95 123.411L69.0832 137.576C66.5661 139.07 63.4339 139.07 60.9168 137.576L37.05 123.411L12.8488 109.824C10.2963 108.391 8.73029 105.679 8.76556 102.752L9.1 75L8.76556 47.2479C8.73029 44.321 10.2963 41.6085 12.8488 40.1756L37.05 26.5892L60.9168 12.4235Z" fill="#DBE6EF"/>
<path fill-rule="evenodd" clip-rule="evenodd" d="M43.7895 43C38.3829 43 34 47.3829 34 52.7895V58.5C34 60.7527 35.8262 62.5789 38.0789 62.5789H43.7895V95.2105C43.7895 100.617 48.1724 105 53.5789 105H86.2105C91.6171 105 96 100.617 96 95.2105V89.5C96 87.2473 94.1738 85.4211 91.9211 85.4211H89.4737V52.7895C89.4737 47.3829 85.0908 43 79.6842 43H43.7895ZM43.7895 49.5263C41.9873 49.5263 40.5263 50.9873 40.5263 52.7895V56.0526H43.7895V49.5263ZM59.5484 98.4737H86.2107C88.0129 98.4737 89.4738 97.0127 89.4738 95.2105V91.9474H60.1054V95.2105C60.1054 96.3547 59.9091 97.453 59.5484 98.4737Z" fill="#96ACBF"/>
<rect x="51.3682" y="62.4736" width="27.7368" height="4" rx="0.894737" fill="#DBE6EF"/>
<rect x="51.3682" y="70.1055" width="16.1053" height="4" rx="0.894737" fill="#DBE6EF"/>
<path d="M123.708 1.78573C113.612 23.1947 101.408 38.116 90.5513 31.8896C79.6942 25.6632 91.988 9.19342 101.408 19.3094C110.829 29.4253 105.41 50.5945 92.9228 56.3349" stroke="#2A3342" stroke-width="1.77778" stroke-linejoin="round"/>
</svg>
