<svg width="130" height="140" viewBox="0 0 130 140" fill="none" xmlns="http://www.w3.org/2000/svg">
<path d="M60.9168 12.4235C63.4339 10.9295 66.5661 10.9295 69.0832 12.4235L92.95 26.5892L117.151 40.1756C119.704 41.6085 121.27 44.321 121.234 47.2479L120.9 75L121.234 102.752C121.27 105.679 119.704 108.391 117.151 109.824L92.95 123.411L69.0832 137.576C66.5661 139.07 63.4339 139.07 60.9168 137.576L37.05 123.411L12.8488 109.824C10.2963 108.391 8.73029 105.679 8.76556 102.752L9.1 75L8.76556 47.2479C8.73029 44.321 10.2963 41.6085 12.8488 40.1756L37.05 26.5892L60.9168 12.4235Z" fill="#DBE6EF"/>
<rect x="51.3682" y="62.4736" width="27.7368" height="4" rx="0.894737" fill="#DBE6EF"/>
<rect x="51.3682" y="70.1055" width="16.1053" height="4" rx="0.894737" fill="#DBE6EF"/>
<path d="M123.708 1.78573C113.612 23.1947 101.408 38.116 90.5513 31.8896C79.6942 25.6632 91.988 9.19342 101.408 19.3094C110.829 29.4253 105.41 50.5945 92.9228 56.3349" stroke="#2A3342" stroke-width="1.77778" stroke-linejoin="round"/>
<path d="M22.4395 66.9995C22.4395 79.4595 32.5403 89.5604 45.0004 89.5604H65.2199C66.5131 89.5604 67.5614 88.5121 67.5614 87.219V66.9995C67.5614 54.5394 57.4605 44.4385 45.0004 44.4385C32.5403 44.4385 22.4395 54.5394 22.4395 66.9995Z" fill="#96ACBF"/>
<rect x="39.5117" y="65.1709" width="6.09756" height="6.09756" rx="3.04878" transform="rotate(90 39.5117 65.1709)" fill="#DBE6EF"/>
<rect x="48.0488" y="65.1709" width="6.09756" height="6.09756" rx="3.04878" transform="rotate(90 48.0488 65.1709)" fill="#DBE6EF"/>
<rect x="56.585" y="65.1709" width="6.09756" height="6.09756" rx="3.04878" transform="rotate(90 56.585 65.1709)" fill="#DBE6EF"/>
<path d="M105.195 84.4998C105.195 93.7203 97.7205 101.195 88.5 101.195H73.561C72.5911 101.195 71.8049 100.409 71.8049 99.4388V84.4998C71.8049 75.2793 79.2795 67.8047 88.5 67.8047C97.7205 67.8047 105.195 75.2793 105.195 84.4998Z" fill="#96ACBF"/>
<rect width="4.5122" height="4.5122" rx="2.2561" transform="matrix(3.49691e-08 1 1 -5.46392e-08 92.5605 83.1455)" fill="#DBE6EF"/>
<rect width="4.5122" height="4.5122" rx="2.2561" transform="matrix(3.49691e-08 1 1 -5.46392e-08 86.2441 83.1455)" fill="#DBE6EF"/>
<rect width="4.5122" height="4.5122" rx="2.2561" transform="matrix(3.49691e-08 1 1 -5.46392e-08 79.9268 83.1455)" fill="#DBE6EF"/>
</svg>
