<svg width="130" height="140" viewBox="0 0 130 140" fill="none" xmlns="http://www.w3.org/2000/svg">
<path d="M62.9168 12.4235C65.4339 10.9295 68.5661 10.9295 71.0832 12.4235L94.95 26.5892L119.151 40.1756C121.704 41.6085 123.27 44.321 123.234 47.2479L122.9 75L123.234 102.752C123.27 105.679 121.704 108.391 119.151 109.824L94.95 123.411L71.0832 137.576C68.5661 139.07 65.4339 139.07 62.9168 137.576L39.05 123.411L14.8488 109.824C12.2963 108.391 10.7303 105.679 10.7656 102.752L11.1 75L10.7656 47.2479C10.7303 44.321 12.2963 41.6085 14.8488 40.1756L39.05 26.5892L62.9168 12.4235Z" fill="#DBE6EF"/>
<g clip-path="url(#clip0_155_10615)">
<path d="M79.0806 55.45C79.0806 62.3259 73.4752 67.9 66.5605 67.9C59.6458 67.9 54.0403 62.3259 54.0403 55.45C54.0403 48.5741 59.6458 43 66.5605 43C73.4752 43 79.0806 48.5741 79.0806 55.45Z" fill="#96ACBF"/>
<path d="M99.9476 63.75C99.9476 68.334 96.2106 72.05 91.6008 72.05C86.991 72.05 83.254 68.334 83.254 63.75C83.254 59.166 86.991 55.45 91.6008 55.45C96.2106 55.45 99.9476 59.166 99.9476 63.75Z" fill="#96ACBF"/>
<path d="M83.254 90.8C83.254 81.6321 75.7801 74.2 66.5605 74.2C57.3409 74.2 49.8669 81.6321 49.8669 90.8V103.25H83.254V90.8Z" fill="#96ACBF"/>
<path d="M49.8669 63.75C49.8669 68.334 46.13 72.05 41.5202 72.05C36.9104 72.05 33.1734 68.334 33.1734 63.75C33.1734 59.166 36.9104 55.45 41.5202 55.45C46.13 55.45 49.8669 59.166 49.8669 63.75Z" fill="#96ACBF"/>
<path d="M91.6008 103.25V90.8C91.6008 86.4253 90.4663 82.3141 88.4738 78.7414C89.4733 78.4859 90.5211 78.35 91.6008 78.35C98.5155 78.35 104.121 83.9241 104.121 90.8V103.25H91.6008Z" fill="#96ACBF"/>
<path d="M44.6471 78.7414C42.6547 82.3141 41.5202 86.4253 41.5202 90.8V103.25H29V90.8C29 83.9241 34.6055 78.35 41.5202 78.35C42.5999 78.35 43.6476 78.4859 44.6471 78.7414Z" fill="#96ACBF"/>
</g>
<path d="M123.708 1.78573C113.612 23.1947 101.408 38.116 90.5513 31.8896C79.6942 25.6632 91.988 9.19342 101.408 19.3094C110.829 29.4253 105.41 50.5945 92.9228 56.3349" stroke="#2A3342" stroke-width="1.77778" stroke-linejoin="round"/>
<defs>
<clipPath id="clip0_155_10615">
<rect width="75" height="73" fill="white" transform="translate(29 35)"/>
</clipPath>
</defs>
</svg>
