<svg width="130" height="140" viewBox="0 0 130 140" fill="none" xmlns="http://www.w3.org/2000/svg">
<path d="M60.9168 12.4235C63.4339 10.9295 66.5661 10.9295 69.0832 12.4235L92.95 26.5892L117.151 40.1756C119.704 41.6085 121.27 44.321 121.234 47.2479L120.9 75L121.234 102.752C121.27 105.679 119.704 108.391 117.151 109.824L92.95 123.411L69.0832 137.576C66.5661 139.07 63.4339 139.07 60.9168 137.576L37.05 123.411L12.8488 109.824C10.2963 108.391 8.73029 105.679 8.76556 102.752L9.1 75L8.76556 47.2479C8.73029 44.321 10.2963 41.6085 12.8488 40.1756L37.05 26.5892L60.9168 12.4235Z" fill="#FDF4F2"/>
<g opacity="0.6">
<rect x="29.5" y="39.5" width="71" height="71" rx="35.5" fill="#F4DCD8" stroke="#E4B9B9" stroke-width="5"/>
<rect x="44" y="54" width="42" height="42" rx="21" fill="#F4DCD8" stroke="#E4B9B9" stroke-width="2"/>
<path fill-rule="evenodd" clip-rule="evenodd" d="M65 46C63.8954 46 63 46.8954 63 48C63 49.1046 63.8954 50 65 50C66.1046 50 67 49.1046 67 48C67 46.8954 66.1046 46 65 46ZM47 53C45.8954 53 45 53.8954 45 55C45 56.1046 45.8954 57 47 57C48.1046 57 49 56.1046 49 55C49 53.8954 48.1046 53 47 53ZM39 65C37.8954 65 37 65.8954 37 67C37 68.1046 37.8954 69 39 69C40.1046 69 41 68.1046 41 67C41 65.8954 40.1046 65 39 65ZM36 81C36 79.8954 36.8954 79 38 79C39.1046 79 40 79.8954 40 81C40 82.1046 39.1046 83 38 83C36.8954 83 36 82.1046 36 81ZM90 81C90 79.8954 90.8954 79 92 79C93.1046 79 94 79.8954 94 81C94 82.1046 93.1046 83 92 83C90.8954 83 90 82.1046 90 81ZM89 67C89 65.8954 89.8954 65 91 65C92.1046 65 93 65.8954 93 67C93 68.1046 92.1046 69 91 69C89.8954 69 89 68.1046 89 67ZM81 55C81 53.8954 81.8954 53 83 53C84.1046 53 85 53.8954 85 55C85 56.1046 84.1046 57 83 57C81.8954 57 81 56.1046 81 55Z" fill="#E4B9B9"/>
<path d="M65 64C65.3788 64 65.7251 64.214 65.8945 64.5528L68.4734 69.7106L74.144 70.5354C74.5206 70.5902 74.8335 70.854 74.9511 71.216C75.0687 71.578 74.9706 71.9753 74.6981 72.241L70.571 76.2649L71.4994 81.9385C71.5608 82.3135 71.4043 82.6908 71.0957 82.9124C70.787 83.1339 70.3794 83.1614 70.0438 82.9834L65 80.3071L59.9562 82.9834C59.6206 83.1614 59.2131 83.1339 58.9044 82.9124C58.5957 82.6908 58.4393 82.3135 58.5007 81.9385L59.4291 76.2649L55.3019 72.241C55.0294 71.9753 54.9314 71.578 55.049 71.216C55.1666 70.854 55.4795 70.5902 55.8561 70.5354L61.5267 69.7106L64.1056 64.5528C64.275 64.214 64.6213 64 65 64Z" fill="#E4B9B9"/>
</g>
<path d="M123.708 1.78573C113.612 23.1947 101.408 38.116 90.5513 31.8896C79.6942 25.6632 91.988 9.19342 101.408 19.3094C110.829 29.4253 105.41 50.5945 92.9228 56.3349" stroke="#2A3342" stroke-width="1.77778" stroke-linejoin="round"/>
</svg>
