<svg width="32" height="32" viewBox="0 0 32 32" fill="none" xmlns="http://www.w3.org/2000/svg">
<rect x="1.5" y="1.5" width="29" height="29" rx="14.5" stroke="#4364BB" stroke-width="3"/>
<path fill-rule="evenodd" clip-rule="evenodd" d="M17.5877 9.38971C17.5877 8.62219 16.9655 8 16.198 8C15.4305 8 14.8083 8.62219 14.8083 9.38971V14.4123H9.38971C8.62219 14.4123 8 15.0345 8 15.802C8 16.5695 8.62219 17.1917 9.38971 17.1917H14.8083V22.6103C14.8083 23.3778 15.4305 24 16.198 24C16.9655 24 17.5877 23.3778 17.5877 22.6103V17.1917H22.6103C23.3778 17.1917 24 16.5695 24 15.802C24 15.0345 23.3778 14.4123 22.6103 14.4123H17.5877V9.38971Z" fill="#4364BB"/>
</svg>
