<svg width="33" height="44" viewBox="0 0 33 44" fill="none" xmlns="http://www.w3.org/2000/svg">
<path d="M0 2.02299C0 0.905722 0.905723 0 2.02299 0H22.2529L32.8736 11.1264V41.977C32.8736 43.0943 31.9678 44 30.8506 44H2.02299C0.905721 44 0 43.0943 0 41.977V2.02299Z" fill="#CF534E"/>
<path d="M22.2529 0L27.5633 5.56322L32.8736 11.1264H23.2644C22.7058 11.1264 22.2529 10.6736 22.2529 10.1149V0Z" fill="#A5433E"/>
<path d="M6.34233 24.2857H9.63575C11.5272 24.2857 12.473 25.0905 12.473 26.7001C12.473 28.3246 11.5198 29.1368 9.6135 29.1368H7.55511V32.23H6.34233V24.2857ZM7.55511 25.3205V28.1021H9.53561C10.1364 28.1021 10.5741 27.9908 10.8485 27.7683C11.123 27.5383 11.2602 27.1823 11.2602 26.7001C11.2602 26.2032 11.1193 25.8545 10.8374 25.6543C10.563 25.4317 10.129 25.3205 9.53561 25.3205H7.55511ZM13.6006 24.2857H16.4935C17.7693 24.2857 18.741 24.6455 19.4086 25.365C20.0317 26.0326 20.3432 26.9968 20.3432 28.2578C20.3432 29.4966 20.0243 30.4646 19.3863 31.1618C18.7187 31.8739 17.747 32.23 16.4712 32.23H13.6006V24.2857ZM14.8134 25.3205V31.1952H16.2487C17.2575 31.1952 17.9955 30.9541 18.4628 30.472C18.9227 29.9899 19.1527 29.2518 19.1527 28.2578C19.1527 27.249 18.9264 26.5073 18.474 26.0326C18.0067 25.5578 17.2723 25.3205 16.2709 25.3205H14.8134ZM21.576 24.2857H26.9723V25.3205H22.7888V27.6348H26.7386V28.6695H22.7888V32.23H21.576V24.2857Z" fill="white"/>
</svg>
