<svg width="120" height="100" viewBox="0 0 120 100" fill="none" xmlns="http://www.w3.org/2000/svg">
<path opacity="0.3" d="M105.856 51.7146C105.856 77.0408 85.3255 97.5718 59.9993 97.5718C34.6731 97.5718 14.1422 77.0408 14.1422 51.7146C14.1422 26.3884 34.6731 5.85749 59.9993 5.85749C85.3255 5.85749 105.856 26.3884 105.856 51.7146Z" stroke="#727272" stroke-width="2.57143"/>
<circle opacity="0.7" cx="59.999" cy="51.7144" r="41.7857" stroke="#727272" stroke-width="0.428571"/>
<circle opacity="0.3" cx="59.5709" cy="53.0001" r="30.4286" stroke="#727272" stroke-width="1.71429"/>
<circle opacity="0.3" cx="59.5706" cy="53.0008" r="25.9286" stroke="#727272" stroke-width="0.428571"/>
<g opacity="0.2">
<path d="M83.6562 21.6924C83.6562 21.6924 84.668 21.7587 89.134 19.1802C93.6001 16.6017 94.0486 15.6924 94.0486 15.6924" stroke="#727272" stroke-width="0.685714"/>
<path d="M84.502 23.1558C84.502 23.1558 85.5137 23.222 89.9797 20.6436C94.4458 18.0651 94.8943 17.1558 94.8943 17.1558" stroke="#727272" stroke-width="0.685714"/>
<path d="M85.3467 24.6196C85.3467 24.6196 86.3584 24.6859 90.8245 22.1074C95.2905 19.5289 95.739 18.6197 95.739 18.6197" stroke="#727272" stroke-width="0.685714"/>
<path d="M86.1914 26.083C86.1914 26.083 87.2031 26.1493 91.6692 23.5708C96.1353 20.9923 96.5837 20.083 96.5837 20.083" stroke="#727272" stroke-width="0.685714"/>
<path d="M87.0361 27.5459C87.0361 27.5459 88.0479 27.6122 92.5139 25.0337C96.98 22.4552 97.4285 21.5459 97.4285 21.5459" stroke="#727272" stroke-width="0.685714"/>
<path d="M87.8809 29.0088C87.8809 29.0088 88.8926 29.0751 93.3586 26.4966C97.8247 23.9181 98.2732 23.0088 98.2732 23.0088" stroke="#727272" stroke-width="0.685714"/>
<path d="M88.7275 30.4731C88.7275 30.4731 89.7393 30.5394 94.2053 27.9609C98.6714 25.3825 99.1199 24.4732 99.1199 24.4732" stroke="#727272" stroke-width="0.685714"/>
<path d="M89.5713 31.9355C89.5713 31.9355 90.583 32.0018 95.0491 29.4233C99.5151 26.8449 99.9636 25.9356 99.9636 25.9356" stroke="#727272" stroke-width="0.685714"/>
<path d="M90.415 33.3999C90.415 33.3999 91.4268 33.4662 95.8928 30.8877C100.359 28.3092 100.807 27.3999 100.807 27.3999" stroke="#727272" stroke-width="0.685714"/>
<path d="M91.2607 34.8628C91.2607 34.8628 92.2725 34.9291 96.7385 32.3506C101.205 29.7721 101.653 28.8628 101.653 28.8628" stroke="#727272" stroke-width="0.685714"/>
<path d="M92.1074 36.3267C92.1074 36.3267 93.1191 36.3929 97.5852 33.8145C102.051 31.236 102.5 30.3267 102.5 30.3267" stroke="#727272" stroke-width="0.685714"/>
<path d="M92.9492 37.79C92.9492 37.79 93.9609 37.8563 98.427 35.2778C102.893 32.6994 103.342 31.7901 103.342 31.7901" stroke="#727272" stroke-width="0.685714"/>
<path d="M93.9424 39.5078C93.9424 39.5078 94.9541 39.5741 99.4202 36.9956C103.886 34.4171 104.335 33.5078 104.335 33.5078" stroke="#727272" stroke-width="0.685714"/>
<path d="M94.9336 41.2256C94.9336 41.2256 95.9453 41.2919 100.411 38.7134C104.877 36.1349 105.326 35.2256 105.326 35.2256" stroke="#727272" stroke-width="0.685714"/>
<path d="M95.9258 42.9434C95.9258 42.9434 96.9375 43.0096 101.404 40.4312C105.87 37.8527 106.318 36.9434 106.318 36.9434" stroke="#727272" stroke-width="0.685714"/>
<path d="M96.918 44.6616C96.918 44.6616 97.9297 44.7279 102.396 42.1494C106.862 39.5709 107.31 38.6616 107.31 38.6616" stroke="#727272" stroke-width="0.685714"/>
<path d="M97.9092 46.3794C97.9092 46.3794 98.9209 46.4457 103.387 43.8672C107.853 41.2887 108.301 40.3794 108.301 40.3794" stroke="#727272" stroke-width="0.685714"/>
<path d="M0.517578 69.6924C0.517578 69.6924 1.5293 69.7587 5.99536 67.1802C10.4614 64.6017 10.9099 63.6924 10.9099 63.6924" stroke="#727272" stroke-width="0.685714"/>
<path d="M1.36426 71.1553C1.36426 71.1553 2.37598 71.2216 6.84204 68.6431C11.3081 66.0646 11.7566 65.1553 11.7566 65.1553" stroke="#727272" stroke-width="0.685714"/>
<path d="M2.20801 72.6196C2.20801 72.6196 3.21973 72.6859 7.68579 70.1074C12.1519 67.5289 12.6003 66.6197 12.6003 66.6197" stroke="#727272" stroke-width="0.685714"/>
<path d="M3.05273 74.0825C3.05273 74.0825 4.06445 74.1488 8.53052 71.5703C12.9966 68.9918 13.4451 68.0825 13.4451 68.0825" stroke="#727272" stroke-width="0.685714"/>
<path d="M3.89746 75.5459C3.89746 75.5459 4.90918 75.6122 9.37525 73.0337C13.8413 70.4552 14.2898 69.5459 14.2898 69.5459" stroke="#727272" stroke-width="0.685714"/>
<path d="M4.74414 77.0093C4.74414 77.0093 5.75586 77.0756 10.2219 74.4971C14.688 71.9186 15.1365 71.0093 15.1365 71.0093" stroke="#727272" stroke-width="0.685714"/>
<path d="M5.58789 78.4731C5.58789 78.4731 6.59961 78.5394 11.0657 75.9609C15.5317 73.3825 15.9802 72.4732 15.9802 72.4732" stroke="#727272" stroke-width="0.685714"/>
<path d="M6.43262 79.9355C6.43262 79.9355 7.44433 80.0018 11.9104 77.4233C16.3765 74.8449 16.8249 73.9356 16.8249 73.9356" stroke="#727272" stroke-width="0.685714"/>
<path d="M7.27734 81.3999C7.27734 81.3999 8.28906 81.4662 12.7551 78.8877C17.2212 76.3092 17.6697 75.3999 17.6697 75.3999" stroke="#727272" stroke-width="0.685714"/>
<path d="M8.12207 82.8628C8.12207 82.8628 9.13379 82.9291 13.5999 80.3506C18.0659 77.7721 18.5144 76.8628 18.5144 76.8628" stroke="#727272" stroke-width="0.685714"/>
<path d="M8.96582 84.3267C8.96582 84.3267 9.97754 84.3929 14.4436 81.8145C18.9097 79.236 19.3581 78.3267 19.3581 78.3267" stroke="#727272" stroke-width="0.685714"/>
<path d="M9.8125 85.79C9.8125 85.79 10.8242 85.8563 15.2903 83.2778C19.7564 80.6994 20.2048 79.7901 20.2048 79.7901" stroke="#727272" stroke-width="0.685714"/>
<path d="M10.8037 87.5078C10.8037 87.5078 11.8154 87.5741 16.2815 84.9956C20.7476 82.4171 21.196 81.5078 21.196 81.5078" stroke="#727272" stroke-width="0.685714"/>
<path d="M11.7959 89.2256C11.7959 89.2256 12.8076 89.2919 17.2737 86.7134C21.7398 84.1349 22.1882 83.2256 22.1882 83.2256" stroke="#727272" stroke-width="0.685714"/>
<path d="M12.7871 90.9434C12.7871 90.9434 13.7988 91.0096 18.2649 88.4312C22.731 85.8527 23.1794 84.9434 23.1794 84.9434" stroke="#727272" stroke-width="0.685714"/>
<path d="M13.7793 92.6616C13.7793 92.6616 14.791 92.7279 19.2571 90.1494C23.7231 87.5709 24.1716 86.6616 24.1716 86.6616" stroke="#727272" stroke-width="0.685714"/>
<path d="M14.7705 94.3799C14.7705 94.3799 15.7822 94.4462 20.2483 91.8677C24.7144 89.2892 25.1628 88.3799 25.1628 88.3799" stroke="#727272" stroke-width="0.685714"/>
<path d="M42.0879 45.6924C42.0879 45.6924 43.0996 45.7587 47.5657 43.1802C52.0317 40.6017 52.4802 39.6924 52.4802 39.6924" stroke="#727272" stroke-width="0.685714"/>
<path d="M42.9316 47.1558C42.9316 47.1558 43.9434 47.222 48.4094 44.6436C52.8755 42.0651 53.324 41.1558 53.324 41.1558" stroke="#727272" stroke-width="0.685714"/>
<path d="M43.7764 48.6196C43.7764 48.6196 44.7881 48.6859 49.2542 46.1074C53.7202 43.5289 54.1687 42.6197 54.1687 42.6197" stroke="#727272" stroke-width="0.685714"/>
<path d="M44.623 50.083C44.623 50.083 45.6348 50.1493 50.1008 47.5708C54.5669 44.9923 55.0154 44.083 55.0154 44.083" stroke="#727272" stroke-width="0.685714"/>
<path d="M45.4678 51.5459C45.4678 51.5459 46.4795 51.6122 50.9456 49.0337C55.4116 46.4552 55.8601 45.5459 55.8601 45.5459" stroke="#727272" stroke-width="0.685714"/>
<path d="M46.3115 53.0088C46.3115 53.0088 47.3232 53.0751 51.7893 50.4966C56.2554 47.9181 56.7038 47.0088 56.7038 47.0088" stroke="#727272" stroke-width="0.685714"/>
<path d="M47.1562 54.4717C47.1562 54.4717 48.168 54.538 52.634 51.9595C57.1001 49.381 57.5486 48.4717 57.5486 48.4717" stroke="#727272" stroke-width="0.685714"/>
<path d="M48.002 55.936C48.002 55.936 49.0137 56.0023 53.4797 53.4238C57.9458 50.8454 58.3943 49.9361 58.3943 49.9361" stroke="#727272" stroke-width="0.685714"/>
<path d="M48.8457 57.3999C48.8457 57.3999 49.8574 57.4662 54.3235 54.8877C58.7896 52.3092 59.238 51.3999 59.238 51.3999" stroke="#727272" stroke-width="0.685714"/>
<path d="M49.6914 58.8633C49.6914 58.8633 50.7031 58.9296 55.1692 56.3511C59.6353 53.7726 60.0837 52.8633 60.0837 52.8633" stroke="#727272" stroke-width="0.685714"/>
<path d="M50.5361 60.3267C50.5361 60.3267 51.5479 60.3929 56.0139 57.8145C60.48 55.236 60.9285 54.3267 60.9285 54.3267" stroke="#727272" stroke-width="0.685714"/>
<path d="M51.3818 61.7896C51.3818 61.7896 52.3936 61.8558 56.8596 59.2774C61.3257 56.6989 61.7742 55.7896 61.7742 55.7896" stroke="#727272" stroke-width="0.685714"/>
<path d="M52.373 63.5078C52.373 63.5078 53.3848 63.5741 57.8508 60.9956C62.3169 58.4171 62.7654 57.5078 62.7654 57.5078" stroke="#727272" stroke-width="0.685714"/>
<path d="M53.3652 65.2256C53.3652 65.2256 54.377 65.2919 58.843 62.7134C63.3091 60.1349 63.7576 59.2256 63.7576 59.2256" stroke="#727272" stroke-width="0.685714"/>
<path d="M54.3564 66.9429C54.3564 66.9429 55.3682 67.0092 59.8342 64.4307C64.3003 61.8522 64.7488 60.9429 64.7488 60.9429" stroke="#727272" stroke-width="0.685714"/>
<path d="M55.3486 68.6616C55.3486 68.6616 56.3604 68.7279 60.8264 66.1494C65.2925 63.5709 65.741 62.6616 65.741 62.6616" stroke="#727272" stroke-width="0.685714"/>
<path d="M56.3398 70.3799C56.3398 70.3799 57.3516 70.4462 61.8176 67.8677C66.2837 65.2892 66.7322 64.3799 66.7322 64.3799" stroke="#727272" stroke-width="0.685714"/>
<path d="M21.3037 57.6924C21.3037 57.6924 22.3154 57.7587 26.7815 55.1802C31.2476 52.6017 31.696 51.6924 31.696 51.6924" stroke="#727272" stroke-width="0.685714"/>
<path d="M22.1475 59.1553C22.1475 59.1553 23.1592 59.2216 27.6252 56.6431C32.0913 54.0646 32.5398 53.1553 32.5398 53.1553" stroke="#727272" stroke-width="0.685714"/>
<path d="M22.9922 60.6196C22.9922 60.6196 24.0039 60.6859 28.47 58.1074C32.936 55.5289 33.3845 54.6197 33.3845 54.6197" stroke="#727272" stroke-width="0.685714"/>
<path d="M23.8379 62.0825C23.8379 62.0825 24.8496 62.1488 29.3157 59.5703C33.7817 56.9918 34.2302 56.0825 34.2302 56.0825" stroke="#727272" stroke-width="0.685714"/>
<path d="M24.6816 63.5449C24.6816 63.5449 25.6934 63.6112 30.1594 61.0327C34.6255 58.4542 35.074 57.5449 35.074 57.5449" stroke="#727272" stroke-width="0.685714"/>
<path d="M25.5273 65.0088C25.5273 65.0088 26.5391 65.0751 31.0051 62.4966C35.4712 59.9181 35.9197 59.0088 35.9197 59.0088" stroke="#727272" stroke-width="0.685714"/>
<path d="M26.3721 66.4727C26.3721 66.4727 27.3838 66.5389 31.8499 63.9605C36.3159 61.382 36.7644 60.4727 36.7644 60.4727" stroke="#727272" stroke-width="0.685714"/>
<path d="M27.2168 67.9355C27.2168 67.9355 28.2285 68.0018 32.6946 65.4233C37.1606 62.8449 37.6091 61.9356 37.6091 61.9356" stroke="#727272" stroke-width="0.685714"/>
<path d="M28.0615 69.3999C28.0615 69.3999 29.0732 69.4662 33.5393 66.8877C38.0054 64.3092 38.4538 63.3999 38.4538 63.3999" stroke="#727272" stroke-width="0.685714"/>
<path d="M28.9062 70.8633C28.9062 70.8633 29.918 70.9296 34.384 68.3511C38.8501 65.7726 39.2986 64.8633 39.2986 64.8633" stroke="#727272" stroke-width="0.685714"/>
<path d="M29.752 72.3267C29.752 72.3267 30.7637 72.3929 35.2297 69.8145C39.6958 67.236 40.1443 66.3267 40.1443 66.3267" stroke="#727272" stroke-width="0.685714"/>
<path d="M30.5967 73.7896C30.5967 73.7896 31.6084 73.8558 36.0745 71.2774C40.5405 68.6989 40.989 67.7896 40.989 67.7896" stroke="#727272" stroke-width="0.685714"/>
<path d="M31.5879 75.5068C31.5879 75.5068 32.5996 75.5731 37.0657 72.9946C41.5317 70.4162 41.9802 69.5069 41.9802 69.5069" stroke="#727272" stroke-width="0.685714"/>
<path d="M32.5791 77.2256C32.5791 77.2256 33.5908 77.2919 38.0569 74.7134C42.523 72.1349 42.9714 71.2256 42.9714 71.2256" stroke="#727272" stroke-width="0.685714"/>
<path d="M33.5732 78.9434C33.5732 78.9434 34.585 79.0096 39.051 76.4312C43.5171 73.8527 43.9656 72.9434 43.9656 72.9434" stroke="#727272" stroke-width="0.685714"/>
<path d="M34.5645 80.6616C34.5645 80.6616 35.5762 80.7279 40.0422 78.1494C44.5083 75.5709 44.9568 74.6616 44.9568 74.6616" stroke="#727272" stroke-width="0.685714"/>
<path d="M35.5566 82.3799C35.5566 82.3799 36.5684 82.4462 41.0344 79.8677C45.5005 77.2892 45.949 76.3799 45.949 76.3799" stroke="#727272" stroke-width="0.685714"/>
<path d="M62.8721 33.6914C62.8721 33.6914 63.8838 33.7577 68.3499 31.1792C72.8159 28.6007 73.2644 27.6914 73.2644 27.6914" stroke="#727272" stroke-width="0.685714"/>
<path d="M63.7168 35.1558C63.7168 35.1558 64.7285 35.222 69.1946 32.6436C73.6606 30.0651 74.1091 29.1558 74.1091 29.1558" stroke="#727272" stroke-width="0.685714"/>
<path d="M64.5625 36.6196C64.5625 36.6196 65.5742 36.6859 70.0403 34.1074C74.5064 31.5289 74.9548 30.6197 74.9548 30.6197" stroke="#727272" stroke-width="0.685714"/>
<path d="M65.4072 38.083C65.4072 38.083 66.4189 38.1493 70.885 35.5708C75.3511 32.9923 75.7995 32.083 75.7995 32.083" stroke="#727272" stroke-width="0.685714"/>
<path d="M66.251 39.5459C66.251 39.5459 67.2627 39.6122 71.7288 37.0337C76.1948 34.4552 76.6433 33.5459 76.6433 33.5459" stroke="#727272" stroke-width="0.685714"/>
<path d="M67.0967 41.0088C67.0967 41.0088 68.1084 41.0751 72.5745 38.4966C77.0405 35.9181 77.489 35.0088 77.489 35.0088" stroke="#727272" stroke-width="0.685714"/>
<path d="M67.9414 42.4727C67.9414 42.4727 68.9531 42.5389 73.4192 39.9605C77.8853 37.382 78.3337 36.4727 78.3337 36.4727" stroke="#727272" stroke-width="0.685714"/>
<path d="M68.7871 43.9355C68.7871 43.9355 69.7988 44.0018 74.2649 41.4233C78.731 38.8449 79.1794 37.9356 79.1794 37.9356" stroke="#727272" stroke-width="0.685714"/>
<path d="M69.6309 45.3999C69.6309 45.3999 70.6426 45.4662 75.1086 42.8877C79.5747 40.3092 80.0232 39.3999 80.0232 39.3999" stroke="#727272" stroke-width="0.685714"/>
<path d="M70.4766 46.8633C70.4766 46.8633 71.4883 46.9296 75.9543 44.3511C80.4204 41.7726 80.8689 40.8633 80.8689 40.8633" stroke="#727272" stroke-width="0.685714"/>
<path d="M71.3203 48.3267C71.3203 48.3267 72.332 48.3929 76.7981 45.8145C81.2642 43.236 81.7126 42.3267 81.7126 42.3267" stroke="#727272" stroke-width="0.685714"/>
<path d="M72.166 49.79C72.166 49.79 73.1777 49.8563 77.6438 47.2778C82.1099 44.6994 82.5583 43.7901 82.5583 43.7901" stroke="#727272" stroke-width="0.685714"/>
<path d="M73.1582 51.5078C73.1582 51.5078 74.1699 51.5741 78.636 48.9956C83.1021 46.4171 83.5505 45.5078 83.5505 45.5078" stroke="#727272" stroke-width="0.685714"/>
<path d="M74.1494 53.2256C74.1494 53.2256 75.1611 53.2919 79.6272 50.7134C84.0933 48.1349 84.5417 47.2256 84.5417 47.2256" stroke="#727272" stroke-width="0.685714"/>
<path d="M75.1416 54.9429C75.1416 54.9429 76.1533 55.0092 80.6194 52.4307C85.0855 49.8522 85.5339 48.9429 85.5339 48.9429" stroke="#727272" stroke-width="0.685714"/>
<path d="M76.1318 56.6616C76.1318 56.6616 77.1436 56.7279 81.6096 54.1494C86.0757 51.5709 86.5242 50.6616 86.5242 50.6616" stroke="#727272" stroke-width="0.685714"/>
<path d="M77.126 58.3794C77.126 58.3794 78.1377 58.4457 82.6038 55.8672C87.0698 53.2887 87.5183 52.3794 87.5183 52.3794" stroke="#727272" stroke-width="0.685714"/>
<path d="M83.6562 21.6924C83.6562 21.6924 82.6445 21.6261 78.1785 24.2046C73.7124 26.7831 73.2639 27.6924 73.2639 27.6924" stroke="#727272" stroke-width="0.685714"/>
<path d="M84.502 23.1558C84.502 23.1558 83.4902 23.0895 79.0242 25.668C74.5581 28.2464 74.1096 29.1557 74.1096 29.1557" stroke="#727272" stroke-width="0.685714"/>
<path d="M85.3467 24.6196C85.3467 24.6196 84.335 24.5533 79.8689 27.1318C75.4028 29.7103 74.9544 30.6196 74.9544 30.6196" stroke="#727272" stroke-width="0.685714"/>
<path d="M86.1914 26.083C86.1914 26.083 85.1797 26.0167 80.7136 28.5952C76.2476 31.1737 75.7991 32.083 75.7991 32.083" stroke="#727272" stroke-width="0.685714"/>
<path d="M87.0361 27.5459C87.0361 27.5459 86.0244 27.4796 81.5583 30.0581C77.0923 32.6366 76.6438 33.5459 76.6438 33.5459" stroke="#727272" stroke-width="0.685714"/>
<path d="M87.8809 29.0088C87.8809 29.0088 86.8691 28.9425 82.4031 31.521C77.937 34.0995 77.4885 35.0088 77.4885 35.0088" stroke="#727272" stroke-width="0.685714"/>
<path d="M88.7275 30.4731C88.7275 30.4731 87.7158 30.4069 83.2498 32.9853C78.7837 35.5638 78.3352 36.4731 78.3352 36.4731" stroke="#727272" stroke-width="0.685714"/>
<path d="M89.5713 31.9355C89.5713 31.9355 88.5596 31.8693 84.0935 34.4477C79.6274 37.0262 79.179 37.9355 79.179 37.9355" stroke="#727272" stroke-width="0.685714"/>
<path d="M90.415 33.3999C90.415 33.3999 89.4033 33.3336 84.9373 35.9121C80.4712 38.4906 80.0227 39.3999 80.0227 39.3999" stroke="#727272" stroke-width="0.685714"/>
<path d="M91.2607 34.8628C91.2607 34.8628 90.249 34.7965 85.783 37.375C81.3169 39.9535 80.8684 40.8628 80.8684 40.8628" stroke="#727272" stroke-width="0.685714"/>
<path d="M92.1074 36.3267C92.1074 36.3267 91.0957 36.2604 86.6296 38.8389C82.1636 41.4173 81.7151 42.3266 81.7151 42.3266" stroke="#727272" stroke-width="0.685714"/>
<path d="M92.9492 37.79C92.9492 37.79 91.9375 37.7238 87.4714 40.3022C83.0054 42.8807 82.5569 43.79 82.5569 43.79" stroke="#727272" stroke-width="0.685714"/>
<path d="M93.9424 39.5078C93.9424 39.5078 92.9307 39.4415 88.4646 42.02C83.9985 44.5985 83.5501 45.5078 83.5501 45.5078" stroke="#727272" stroke-width="0.685714"/>
<path d="M94.9336 41.2256C94.9336 41.2256 93.9219 41.1593 89.4558 43.7378C84.9897 46.3163 84.5413 47.2256 84.5413 47.2256" stroke="#727272" stroke-width="0.685714"/>
<path d="M95.9258 42.9434C95.9258 42.9434 94.9141 42.8771 90.448 45.4556C85.9819 48.034 85.5335 48.9433 85.5335 48.9433" stroke="#727272" stroke-width="0.685714"/>
<path d="M96.918 44.6616C96.918 44.6616 95.9063 44.5953 91.4402 47.1738C86.9741 49.7523 86.5257 50.6616 86.5257 50.6616" stroke="#727272" stroke-width="0.685714"/>
<path d="M97.9092 46.3794C97.9092 46.3794 96.8975 46.3131 92.4314 48.8916C87.9653 51.4701 87.5169 52.3794 87.5169 52.3794" stroke="#727272" stroke-width="0.685714"/>
<path d="M42.0879 45.6924C42.0879 45.6924 41.0762 45.6261 36.6101 48.2046C32.144 50.7831 31.6956 51.6924 31.6956 51.6924" stroke="#727272" stroke-width="0.685714"/>
<path d="M42.9316 47.1558C42.9316 47.1558 41.9199 47.0895 37.4539 49.668C32.9878 52.2464 32.5393 53.1557 32.5393 53.1557" stroke="#727272" stroke-width="0.685714"/>
<path d="M43.7764 48.6196C43.7764 48.6196 42.7646 48.5533 38.2986 51.1318C33.8325 53.7103 33.384 54.6196 33.384 54.6196" stroke="#727272" stroke-width="0.685714"/>
<path d="M44.623 50.083C44.623 50.083 43.6113 50.0167 39.1453 52.5952C34.6792 55.1737 34.2307 56.083 34.2307 56.083" stroke="#727272" stroke-width="0.685714"/>
<path d="M45.4678 51.5459C45.4678 51.5459 44.4561 51.4796 39.99 54.0581C35.5239 56.6366 35.0755 57.5459 35.0755 57.5459" stroke="#727272" stroke-width="0.685714"/>
<path d="M46.3115 53.0088C46.3115 53.0088 45.2998 52.9425 40.8337 55.521C36.3677 58.0995 35.9192 59.0088 35.9192 59.0088" stroke="#727272" stroke-width="0.685714"/>
<path d="M47.1562 54.4717C47.1562 54.4717 46.1445 54.4054 41.6785 56.9839C37.2124 59.5624 36.7639 60.4717 36.7639 60.4717" stroke="#727272" stroke-width="0.685714"/>
<path d="M48.002 55.936C48.002 55.936 46.9902 55.8697 42.5242 58.4482C38.0581 61.0267 37.6096 61.936 37.6096 61.936" stroke="#727272" stroke-width="0.685714"/>
<path d="M48.8457 57.3999C48.8457 57.3999 47.834 57.3336 43.3679 59.9121C38.9019 62.4906 38.4534 63.3999 38.4534 63.3999" stroke="#727272" stroke-width="0.685714"/>
<path d="M49.6914 58.8633C49.6914 58.8633 48.6797 58.797 44.2136 61.3755C39.7476 63.954 39.2991 64.8633 39.2991 64.8633" stroke="#727272" stroke-width="0.685714"/>
<path d="M50.5361 60.3267C50.5361 60.3267 49.5244 60.2604 45.0583 62.8389C40.5923 65.4173 40.1438 66.3266 40.1438 66.3266" stroke="#727272" stroke-width="0.685714"/>
<path d="M51.3818 61.7896C51.3818 61.7896 50.3701 61.7233 45.9041 64.3017C41.438 66.8802 40.9895 67.7895 40.9895 67.7895" stroke="#727272" stroke-width="0.685714"/>
<path d="M52.373 63.5078C52.373 63.5078 51.3613 63.4415 46.8953 66.02C42.4292 68.5985 41.9807 69.5078 41.9807 69.5078" stroke="#727272" stroke-width="0.685714"/>
<path d="M53.3652 65.2256C53.3652 65.2256 52.3535 65.1593 47.8875 67.7378C43.4214 70.3163 42.9729 71.2256 42.9729 71.2256" stroke="#727272" stroke-width="0.685714"/>
<path d="M54.3564 66.9429C54.3564 66.9429 53.3447 66.8766 48.8787 69.4551C44.4126 72.0336 43.9641 72.9428 43.9641 72.9428" stroke="#727272" stroke-width="0.685714"/>
<path d="M55.3486 68.6616C55.3486 68.6616 54.3369 68.5953 49.8708 71.1738C45.4048 73.7523 44.9563 74.6616 44.9563 74.6616" stroke="#727272" stroke-width="0.685714"/>
<path d="M56.3398 70.3799C56.3398 70.3799 55.3281 70.3136 50.8621 72.8921C46.396 75.4706 45.9475 76.3799 45.9475 76.3799" stroke="#727272" stroke-width="0.685714"/>
<path d="M104.441 9.69238C104.441 9.69238 103.43 9.6261 98.9636 12.2046C94.4976 14.7831 94.0491 15.6924 94.0491 15.6924" stroke="#727272" stroke-width="0.685714"/>
<path d="M105.286 11.1562C105.286 11.1562 104.274 11.09 99.8083 13.6684C95.3423 16.2469 94.8938 17.1562 94.8938 17.1562" stroke="#727272" stroke-width="0.685714"/>
<path d="M106.132 12.6196C106.132 12.6196 105.12 12.5533 100.654 15.1318C96.188 17.7103 95.7395 18.6196 95.7395 18.6196" stroke="#727272" stroke-width="0.685714"/>
<path d="M106.976 14.0825C106.976 14.0825 105.964 14.0162 101.498 16.5947C97.0317 19.1732 96.5833 20.0825 96.5833 20.0825" stroke="#727272" stroke-width="0.685714"/>
<path d="M107.82 15.5459C107.82 15.5459 106.809 15.4796 102.343 18.0581C97.8765 20.6366 97.428 21.5459 97.428 21.5459" stroke="#727272" stroke-width="0.685714"/>
<path d="M108.667 17.0093C108.667 17.0093 107.655 16.943 103.189 19.5215C98.7231 22.1 98.2747 23.0092 98.2747 23.0092" stroke="#727272" stroke-width="0.685714"/>
<path d="M109.511 18.4727C109.511 18.4727 108.499 18.4064 104.033 20.9849C99.5669 23.5633 99.1184 24.4726 99.1184 24.4726" stroke="#727272" stroke-width="0.685714"/>
<path d="M110.355 19.9355C110.355 19.9355 109.344 19.8693 104.878 22.4477C100.412 25.0262 99.9632 25.9355 99.9632 25.9355" stroke="#727272" stroke-width="0.685714"/>
<path d="M111.2 21.3999C111.2 21.3999 110.188 21.3336 105.722 23.9121C101.256 26.4906 100.808 27.3999 100.808 27.3999" stroke="#727272" stroke-width="0.685714"/>
<path d="M112.045 22.8628C112.045 22.8628 111.033 22.7965 106.567 25.375C102.101 27.9535 101.653 28.8628 101.653 28.8628" stroke="#727272" stroke-width="0.685714"/>
<path d="M112.889 24.3267C112.889 24.3267 111.877 24.2604 107.411 26.8389C102.945 29.4173 102.496 30.3266 102.496 30.3266" stroke="#727272" stroke-width="0.685714"/>
<path d="M113.735 25.79C113.735 25.79 112.724 25.7238 108.258 28.3022C103.792 30.8807 103.343 31.79 103.343 31.79" stroke="#727272" stroke-width="0.685714"/>
<path d="M114.727 27.5078C114.727 27.5078 113.715 27.4415 109.249 30.02C104.783 32.5985 104.334 33.5078 104.334 33.5078" stroke="#727272" stroke-width="0.685714"/>
<path d="M115.719 29.2261C115.719 29.2261 114.707 29.1598 110.241 31.7383C105.775 34.3168 105.326 35.226 105.326 35.226" stroke="#727272" stroke-width="0.685714"/>
<path d="M116.711 30.9434C116.711 30.9434 115.699 30.8771 111.233 33.4556C106.767 36.034 106.319 36.9433 106.319 36.9433" stroke="#727272" stroke-width="0.685714"/>
<path d="M117.703 32.6616C117.703 32.6616 116.691 32.5953 112.225 35.1738C107.759 37.7523 107.311 38.6616 107.311 38.6616" stroke="#727272" stroke-width="0.685714"/>
<path d="M118.694 34.3799C118.694 34.3799 117.683 34.3136 113.217 36.8921C108.75 39.4706 108.302 40.3799 108.302 40.3799" stroke="#727272" stroke-width="0.685714"/>
<path d="M21.3037 57.6924C21.3037 57.6924 20.292 57.6261 15.8259 60.2046C11.3599 62.7831 10.9114 63.6924 10.9114 63.6924" stroke="#727272" stroke-width="0.685714"/>
<path d="M22.1475 59.1553C22.1475 59.1553 21.1357 59.089 16.6697 61.6675C12.2036 64.246 11.7551 65.1552 11.7551 65.1552" stroke="#727272" stroke-width="0.685714"/>
<path d="M22.9922 60.6196C22.9922 60.6196 21.9805 60.5533 17.5144 63.1318C13.0483 65.7103 12.5999 66.6196 12.5999 66.6196" stroke="#727272" stroke-width="0.685714"/>
<path d="M23.8379 62.0825C23.8379 62.0825 22.8262 62.0162 18.3601 64.5947C13.894 67.1732 13.4456 68.0825 13.4456 68.0825" stroke="#727272" stroke-width="0.685714"/>
<path d="M24.6816 63.5449C24.6816 63.5449 23.6699 63.4786 19.2039 66.0571C14.7378 68.6356 14.2893 69.5449 14.2893 69.5449" stroke="#727272" stroke-width="0.685714"/>
<path d="M25.5273 65.0088C25.5273 65.0088 24.5156 64.9425 20.0496 67.521C15.5835 70.0995 15.135 71.0088 15.135 71.0088" stroke="#727272" stroke-width="0.685714"/>
<path d="M26.3721 66.4727C26.3721 66.4727 25.3604 66.4064 20.8943 68.9849C16.4282 71.5633 15.9798 72.4726 15.9798 72.4726" stroke="#727272" stroke-width="0.685714"/>
<path d="M27.2168 67.9355C27.2168 67.9355 26.2051 67.8693 21.739 70.4477C17.2729 73.0262 16.8245 73.9355 16.8245 73.9355" stroke="#727272" stroke-width="0.685714"/>
<path d="M28.0615 69.3999C28.0615 69.3999 27.0498 69.3336 22.5837 71.9121C18.1177 74.4906 17.6692 75.3999 17.6692 75.3999" stroke="#727272" stroke-width="0.685714"/>
<path d="M28.9062 70.8633C28.9062 70.8633 27.8945 70.797 23.4285 73.3755C18.9624 75.954 18.5139 76.8633 18.5139 76.8633" stroke="#727272" stroke-width="0.685714"/>
<path d="M29.752 72.3267C29.752 72.3267 28.7402 72.2604 24.2742 74.8389C19.8081 77.4173 19.3596 78.3266 19.3596 78.3266" stroke="#727272" stroke-width="0.685714"/>
<path d="M30.5967 73.7896C30.5967 73.7896 29.585 73.7233 25.1189 76.3017C20.6528 78.8802 20.2044 79.7895 20.2044 79.7895" stroke="#727272" stroke-width="0.685714"/>
<path d="M31.5879 75.5068C31.5879 75.5068 30.5762 75.4405 26.1101 78.019C21.644 80.5975 21.1956 81.5068 21.1956 81.5068" stroke="#727272" stroke-width="0.685714"/>
<path d="M32.5791 77.2256C32.5791 77.2256 31.5674 77.1593 27.1013 79.7378C22.6353 82.3163 22.1868 83.2256 22.1868 83.2256" stroke="#727272" stroke-width="0.685714"/>
<path d="M33.5732 78.9434C33.5732 78.9434 32.5615 78.8771 28.0955 81.4556C23.6294 84.034 23.1809 84.9433 23.1809 84.9433" stroke="#727272" stroke-width="0.685714"/>
<path d="M34.5645 80.6616C34.5645 80.6616 33.5527 80.5953 29.0867 83.1738C24.6206 85.7523 24.1721 86.6616 24.1721 86.6616" stroke="#727272" stroke-width="0.685714"/>
<path d="M35.5566 82.3799C35.5566 82.3799 34.5449 82.3136 30.0789 84.8921C25.6128 87.4706 25.1643 88.3799 25.1643 88.3799" stroke="#727272" stroke-width="0.685714"/>
<path d="M62.8721 33.6914C62.8721 33.6914 61.8604 33.6251 57.3943 36.2036C52.9282 38.7821 52.4798 39.6914 52.4798 39.6914" stroke="#727272" stroke-width="0.685714"/>
<path d="M63.7168 35.1558C63.7168 35.1558 62.7051 35.0895 58.239 37.668C53.7729 40.2464 53.3245 41.1557 53.3245 41.1557" stroke="#727272" stroke-width="0.685714"/>
<path d="M64.5625 36.6196C64.5625 36.6196 63.5508 36.5533 59.0847 39.1318C54.6186 41.7103 54.1702 42.6196 54.1702 42.6196" stroke="#727272" stroke-width="0.685714"/>
<path d="M65.4072 38.083C65.4072 38.083 64.3955 38.0167 59.9294 40.5952C55.4634 43.1737 55.0149 44.083 55.0149 44.083" stroke="#727272" stroke-width="0.685714"/>
<path d="M66.251 39.5459C66.251 39.5459 65.2393 39.4796 60.7732 42.0581C56.3071 44.6366 55.8587 45.5459 55.8587 45.5459" stroke="#727272" stroke-width="0.685714"/>
<path d="M67.0967 41.0088C67.0967 41.0088 66.085 40.9425 61.6189 43.521C57.1528 46.0995 56.7044 47.0088 56.7044 47.0088" stroke="#727272" stroke-width="0.685714"/>
<path d="M67.9414 42.4727C67.9414 42.4727 66.9297 42.4064 62.4636 44.9849C57.9976 47.5633 57.5491 48.4726 57.5491 48.4726" stroke="#727272" stroke-width="0.685714"/>
<path d="M68.7871 43.9355C68.7871 43.9355 67.7754 43.8693 63.3093 46.4477C58.8433 49.0262 58.3948 49.9355 58.3948 49.9355" stroke="#727272" stroke-width="0.685714"/>
<path d="M69.6309 45.3999C69.6309 45.3999 68.6191 45.3336 64.1531 47.9121C59.687 50.4906 59.2385 51.3999 59.2385 51.3999" stroke="#727272" stroke-width="0.685714"/>
<path d="M70.4766 46.8633C70.4766 46.8633 69.4648 46.797 64.9988 49.3755C60.5327 51.954 60.0842 52.8633 60.0842 52.8633" stroke="#727272" stroke-width="0.685714"/>
<path d="M71.3203 48.3267C71.3203 48.3267 70.3086 48.2604 65.8425 50.8389C61.3765 53.4173 60.928 54.3266 60.928 54.3266" stroke="#727272" stroke-width="0.685714"/>
<path d="M72.166 49.79C72.166 49.79 71.1543 49.7238 66.6882 52.3022C62.2222 54.8807 61.7737 55.79 61.7737 55.79" stroke="#727272" stroke-width="0.685714"/>
<path d="M73.1582 51.5078C73.1582 51.5078 72.1465 51.4415 67.6804 54.02C63.2144 56.5985 62.7659 57.5078 62.7659 57.5078" stroke="#727272" stroke-width="0.685714"/>
<path d="M74.1494 53.2256C74.1494 53.2256 73.1377 53.1593 68.6716 55.7378C64.2056 58.3163 63.7571 59.2256 63.7571 59.2256" stroke="#727272" stroke-width="0.685714"/>
<path d="M75.1416 54.9429C75.1416 54.9429 74.1299 54.8766 69.6638 57.4551C65.1978 60.0336 64.7493 60.9428 64.7493 60.9428" stroke="#727272" stroke-width="0.685714"/>
<path d="M76.1318 56.6616C76.1318 56.6616 75.1201 56.5953 70.6541 59.1738C66.188 61.7523 65.7395 62.6616 65.7395 62.6616" stroke="#727272" stroke-width="0.685714"/>
<path d="M77.126 58.3794C77.126 58.3794 76.1143 58.3131 71.6482 60.8916C67.1821 63.4701 66.7337 64.3794 66.7337 64.3794" stroke="#727272" stroke-width="0.685714"/>
</g>
<path d="M47.4566 60.2265L34.5701 67.6665L37.8701 73.3823C38.3261 74.1721 38.9491 74.339 39.7389 73.883L50.1104 67.895C50.4984 67.671 50.7658 67.3503 50.9128 66.9329C51.0555 66.444 50.5572 65.0689 49.4179 62.8076L51.7109 62.3152C52.9735 65.078 53.5231 66.83 53.3597 67.5709C53.1248 68.3162 52.5968 68.9536 51.7756 69.4832L40.3025 76.1072C38.5427 77.1232 37.1348 76.7166 36.0788 74.8876L29.8388 64.0796L31.8341 62.9276L33.4781 65.7751L44.3485 59.4991L41.4925 54.5524L27.7747 62.4724L26.6827 60.581L42.4166 51.497L47.4566 60.2265ZM52.5548 45.9208C52.7619 46.9836 52.8982 47.9396 52.9635 48.7887L56.5384 46.7247L54.5224 43.2329L56.5178 42.0809L58.5338 45.5727L65.3303 41.6487L66.4463 43.5817L59.6498 47.5057L60.2258 48.5033C60.7122 49.4418 61.133 50.3628 61.4883 51.2662L69.8853 46.4182L70.9893 48.3304L63.5484 52.6264C66.1301 54.7939 69.9445 55.4646 74.9915 54.6384L74.9067 56.9875C69.5254 57.6187 65.3407 56.6907 62.3528 54.2035C62.6208 55.5637 62.7001 56.8851 62.5907 58.1676C62.2617 60.9256 60.7759 63.7603 58.1335 66.6715L56.1135 65.6207C58.7159 62.6402 60.1231 59.9895 60.335 57.6686C60.3683 56.6702 60.2824 55.6575 60.0774 54.6304L52.6781 58.9024L51.5741 56.9902L59.4514 52.4422C59.0919 51.4674 58.6849 50.5384 58.2304 49.6553L57.6544 48.6577L53.061 51.3097C53.0242 52.8459 52.8123 54.2708 52.4252 55.5843L49.9016 55.1014C50.8224 52.4082 50.9461 49.4546 50.273 46.2406L52.5548 45.9208ZM74.3205 38.9801C74.5377 41.4043 74.4584 43.667 74.0828 45.7684L71.8224 45.5492C72.254 43.5449 72.3586 41.406 72.1361 39.1327L74.3205 38.9801ZM79.9753 40.0385C78.4623 39.434 76.9638 38.9505 75.4797 38.5879L76.0012 36.7072C77.2027 36.9003 78.705 37.3263 80.5079 37.9851L79.9753 40.0385ZM75.3519 43.9826C76.6249 44.1714 77.7192 44.3709 78.6351 44.5812C78.5643 43.4027 78.3995 42.2692 78.1407 41.1808L80.2858 40.9123C80.6578 42.4527 80.8784 43.8587 80.9476 45.1305C82.2072 45.4564 83.4552 45.8259 84.6914 46.2391L84.1989 48.602C83.0042 48.1647 81.9111 47.8074 80.9195 47.53C80.7306 50.1148 79.995 52.4886 78.7127 54.6516L76.4871 53.5809C77.7205 51.5571 78.4399 49.3311 78.6454 46.9031C77.1256 46.5427 75.8841 46.2803 74.9208 46.1159L75.3519 43.9826ZM71.9391 32.9834C72.6439 33.5002 73.344 34.0567 74.0392 34.653L77.8636 32.445L78.9556 34.3364L69.2076 39.9644L68.1156 38.073L72.1063 35.769C71.491 35.3113 70.8134 34.8896 70.0734 34.5039L71.9391 32.9834ZM82.5287 33.8531L82.833 35.3402C84.3105 36.9074 85.8208 38.2432 87.3637 39.3477C87.145 37.0168 86.4201 34.6733 85.1891 32.3171L82.5287 33.8531ZM87.3837 41.8303C85.9069 40.8724 84.5028 39.7524 83.1714 38.4703C83.1967 39.2502 83.1703 40.0044 83.0922 40.7331L80.9571 39.915C81.0942 36.8244 80.3201 33.2437 78.6349 29.1729L80.7807 28.3775C81.2245 29.5623 81.6055 30.6541 81.9235 31.6529L87.5146 28.4249L88.6186 30.3371L87.0181 31.2611C88.7057 34.5361 89.5761 37.6916 89.6293 40.7278C91.7618 41.8614 93.9118 42.4492 96.0791 42.4912L95.8904 44.9003C93.7465 44.7709 91.6093 44.1573 89.479 43.0594C89.1605 45.5157 88.3206 47.885 86.9594 50.1674L84.7931 49.0072C86.3168 46.6864 87.1804 44.2941 87.3837 41.8303Z" fill="#727272"/>
</svg>
