<svg width="120" height="120" viewBox="0 0 120 120" fill="none" xmlns="http://www.w3.org/2000/svg">
<circle cx="60" cy="60" r="59" fill="#ECECEC" stroke="white" stroke-width="2"/>
<path d="M67.312 61.062C72.9373 62.8127 77.4373 65.938 80.812 70.438C84.1867 74.938 85.916 80.1253 86 86H34C34.084 80.1253 35.8133 74.938 39.188 70.438C42.5627 65.938 47.0627 62.8127 52.688 61.062L60 72L67.312 61.062ZM73 47C72.916 50.6667 71.6453 53.7293 69.188 56.188C66.7307 58.6467 63.668 59.9173 60 60C56.3333 59.916 53.2707 58.6453 50.812 56.188C48.3533 53.7307 47.0827 50.668 47 47C47.084 43.3333 48.3547 40.2707 50.812 37.812C53.2693 35.3533 56.332 34.0827 60 34C63.6667 34.084 66.7293 35.3547 69.188 37.812C71.6467 40.2693 72.9173 43.332 73 47Z" fill="url(#paint0_linear_100_11543)" fill-opacity="0.96"/>
<path d="M64 48C63.2897 49.7737 61.7656 51 60 51C58.2344 51 56.7103 49.7737 56 48" stroke="white" stroke-width="2.5" stroke-linecap="round"/>
<defs>
<linearGradient id="paint0_linear_100_11543" x1="60" y1="34" x2="60" y2="86" gradientUnits="userSpaceOnUse">
<stop offset="0.0314251" stop-color="#85A0BB"/>
<stop offset="1" stop-color="#62788E"/>
</linearGradient>
</defs>
</svg>
