<svg width="32" height="32" viewBox="0 0 32 32" fill="none" xmlns="http://www.w3.org/2000/svg">
<path d="M3.87598 3.49023L27.7007 27.315" stroke="#A0AEC0" stroke-linecap="round"/>
<path fill-rule="evenodd" clip-rule="evenodd" d="M5.09937 8.45768C2.93662 10.9063 1.82347 13.5482 1.44757 14.5555C1.24241 15.1061 1.24241 15.6991 1.44757 16.2497C1.83141 17.2755 2.9803 20.0008 5.22512 22.4891C7.49111 25 10.9219 27.315 15.7887 27.315C18.3578 27.315 20.5259 26.6703 22.3339 25.6922L20.3591 23.7174C19.0474 24.3051 17.5319 24.6678 15.7887 24.6678C11.8643 24.6678 9.1006 22.8319 7.19066 20.7155C5.31512 18.6375 4.31184 16.3344 3.95712 15.4026C4.29861 14.5065 5.23835 12.3451 6.97623 10.3332L5.09937 8.45768ZM15.5677 11.4384L13.3705 9.24126C14.1197 8.9461 14.9363 8.78462 15.7887 8.78462C19.4445 8.78462 22.4067 11.7481 22.4067 15.4026C22.4067 16.2563 22.2452 17.0716 21.9514 17.8208L19.7542 15.6236C19.7582 15.5508 19.7595 15.4767 19.7595 15.4026C19.7595 13.2094 17.9819 11.4318 15.7887 11.4318C15.7146 11.4318 15.6405 11.4345 15.5677 11.4384ZM24.6026 20.4719C26.3391 18.4601 27.2789 16.2987 27.6203 15.4026C27.2656 14.4708 26.2623 12.1677 24.3868 10.0897C22.4769 7.97324 19.7132 6.13743 15.7887 6.13743C14.0456 6.13743 12.5314 6.50007 11.2184 7.08775L9.24355 5.11298C11.0516 4.13484 13.221 3.49023 15.7887 3.49023C20.6556 3.49023 24.0864 5.8052 26.3524 8.31606C28.5985 10.8044 29.7474 13.5297 30.1299 14.5555C30.3351 15.1061 30.3351 15.6991 30.1299 16.2497C29.754 17.257 28.6409 19.8989 26.4781 22.3475L24.6026 20.4719Z" fill="#A0AEC0"/>
</svg>
