<svg width="50" height="50" viewBox="0 0 50 50" fill="none" xmlns="http://www.w3.org/2000/svg">
<rect x="0.5" y="0.5" width="49" height="49" rx="24.5" fill="white"/>
<rect x="0.5" y="0.5" width="49" height="49" rx="24.5" stroke="#EEEEEE"/>
<path d="M9.5 22.3333C9.5 22.8856 9.94772 23.3333 10.5 23.3333H21.8333C22.3856 23.3333 22.8333 22.8856 22.8333 22.3333V11C22.8333 10.4477 22.3856 10 21.8333 10H10.5C9.94771 10 9.5 10.4477 9.5 11V22.3333ZM12.8333 14.3333C12.8333 13.781 13.281 13.3333 13.8333 13.3333H18.5C19.0523 13.3333 19.5 13.781 19.5 14.3333V19C19.5 19.5523 19.0523 20 18.5 20H13.8333C13.281 20 12.8333 19.5523 12.8333 19V14.3333Z" fill="#666666"/>
<path d="M9.5 38.9999C9.5 39.5522 9.94772 39.9999 10.5 39.9999H21.8333C22.3856 39.9999 22.8333 39.5522 22.8333 38.9999V27.6666C22.8333 27.1144 22.3856 26.6666 21.8333 26.6666H10.5C9.94771 26.6666 9.5 27.1144 9.5 27.6666V38.9999ZM12.8333 31C12.8333 30.4477 13.281 30 13.8333 30H18.5C19.0523 30 19.5 30.4477 19.5 31V35.6666C19.5 36.2189 19.0523 36.6666 18.5 36.6666H13.8333C13.281 36.6666 12.8333 36.2189 12.8333 35.6666V31Z" fill="#666666"/>
<path d="M27.1664 10C26.6141 10 26.1664 10.4477 26.1664 11V22.3333C26.1664 22.8856 26.6141 23.3333 27.1664 23.3333H38.4997C39.052 23.3333 39.4997 22.8856 39.4997 22.3333V11C39.4997 10.4477 39.052 10 38.4997 10H27.1664ZM36.1664 19C36.1664 19.5523 35.7187 20 35.1664 20H30.4997C29.9474 20 29.4997 19.5523 29.4997 19V14.3333C29.4997 13.781 29.9474 13.3333 30.4997 13.3333H35.1664C35.7187 13.3333 36.1664 13.781 36.1664 14.3333V19Z" fill="#666666"/>
<path d="M39.5001 36.6668H36.1667V40.0002H39.5001V36.6668Z" fill="#666666"/>
<path d="M29.4997 26.6666H26.1664V30H29.4997V26.6666Z" fill="#666666"/>
<path d="M32.8335 30H29.5002V33.3334H32.8335V30Z" fill="#666666"/>
<path d="M29.4997 33.3334H26.1664V36.6668H29.4997V33.3334Z" fill="#666666"/>
<path d="M32.8335 36.6668H29.5002V40.0002H32.8335V36.6668Z" fill="#666666"/>
<path d="M36.1663 33.3334H32.8329V36.6668H36.1663V33.3334Z" fill="#666666"/>
<path d="M36.1663 26.6666H32.8329V30H36.1663V26.6666Z" fill="#666666"/>
<path d="M39.5001 30.0002H36.1667V33.3335H39.5001V30.0002Z" fill="#666666"/>
</svg>
