<svg width="32" height="32" viewBox="0 0 32 32" fill="none" xmlns="http://www.w3.org/2000/svg">
<path d="M15.838 19.8927C18.0312 19.8927 19.8088 18.1152 19.8088 15.922C19.8088 13.7288 18.0312 11.9512 15.838 11.9512C13.6448 11.9512 11.8672 13.7288 11.8672 15.922C11.8672 18.1152 13.6448 19.8927 15.838 19.8927Z" stroke="#A0AEC0" stroke-width="2.28571" stroke-linecap="round" stroke-linejoin="round"/>
<path d="M2.73747 16.3079C2.6435 16.0551 2.6435 15.7904 2.73747 15.5376C3.44692 13.6369 7.04843 5.33398 15.8384 5.33398C24.6284 5.33398 28.2299 13.6369 28.9394 15.5376C29.0334 15.7904 29.0334 16.0551 28.9394 16.3079C28.2299 18.2086 24.6284 26.5115 15.8384 26.5115C7.04843 26.5115 3.44692 18.2086 2.73747 16.3079Z" stroke="#A0AEC0" stroke-width="2.28571" stroke-linejoin="round"/>
</svg>
