<?xml version="1.0" encoding="utf-8"?>
<!-- Generator: Adobe Illustrator 25.3.1, SVG Export Plug-In . SVG Version: 6.00 Build 0)  -->
<svg version="1.1" id="图层_1" xmlns="http://www.w3.org/2000/svg" xmlns:xlink="http://www.w3.org/1999/xlink" x="0px" y="0px"
	 viewBox="0 0 200 200" style="enable-background:new 0 0 200 200;" xml:space="preserve">
<style type="text/css">
	.st0{fill:#5C779B;}
</style>
<path class="st0" d="M62.9,165.9v-2.6c0-23.7,17.1-43.5,39.8-48C91.5,108.2,84,95.8,84,81.6c0-9.2,3.2-17.7,8.5-24.4V29.7
	c0-2.6-1-5.1-2.9-7c-1.8-1.8-4.4-2.9-7-2.9H23.5c-5.4,0-9.8,4.4-9.8,9.9v147.8h54.9C65,174.9,62.9,171.2,62.9,165.9z M75.2,92.1
	c-1.2,2-3.3,3.3-5.7,3.3H40c-2.3,0-4.5-1.3-5.7-3.3c-1.2-2-1.2-4.5,0-6.6c1.2-2,3.3-3.3,5.7-3.3h29.6c2.3,0,4.5,1.3,5.7,3.3
	C76.4,87.6,76.4,90.1,75.2,92.1z M32.6,52.7c1.2-2,3.3-3.3,5.7-3.3h29.6c2.3,0,4.5,1.3,5.7,3.3c1.2,2,1.2,4.5,0,6.6
	c-1.2,2-3.3,3.3-5.7,3.3H38.3c-2.3,0-4.5-1.2-5.7-3.3C31.5,57.2,31.5,54.7,32.6,52.7z M34.3,125c-1.2-2-1.2-4.5,0-6.6
	c1.2-2,3.3-3.3,5.7-3.3h29.6c2.3,0,4.5,1.3,5.7,3.3c1.2,2,1.2,4.5,0,6.6c-1.2,2-3.3,3.3-5.7,3.3H40C37.6,128.2,35.5,127,34.3,125z"
	/>
<path class="st0" d="M127.4,117.9c19.4,0,35.1-15.5,35.1-34.6c0-19.1-15.8-34.6-35.1-34.6c-19.4,0-35.1,15.5-35.1,34.6
	S108.1,117.9,127.4,117.9z M141.9,121.3h-26.3c-24.5,0-44.4,19.6-44.4,43.7v2.6c0,12.6,19.6,12.6,44.4,12.6h26.3
	c23.8,0,44.4,0,44.4-12.6v-2.6C186.3,140.9,166.4,121.3,141.9,121.3L141.9,121.3z"/>
</svg>
