<svg width="40" height="40" viewBox="0 0 40 40" fill="none" xmlns="http://www.w3.org/2000/svg">
<path fill-rule="evenodd" clip-rule="evenodd" d="M13 12V10.25C13 7.35051 15.3505 5 18.25 5H21.75C24.6495 5 27 7.35051 27 10.25V12H30.5C32.433 12 34 13.567 34 15.5V21.7488C29.6419 23.3658 24.9261 24.2499 20 24.2499C15.074 24.2499 10.3581 23.3658 6 21.7488V15.5C6 13.567 7.567 12 9.5 12H13ZM16.5 10.25C16.5 9.2835 17.2835 8.5 18.25 8.5H21.75C22.7165 8.5 23.5 9.2835 23.5 10.25V12H16.5V10.25ZM18.25 19C18.25 18.0335 19.0335 17.25 20 17.25H20.0175C20.984 17.25 21.7675 18.0335 21.7675 19C21.7675 19.9665 20.984 20.75 20.0175 20.75H20C19.0335 20.75 18.25 19.9665 18.25 19Z" fill="#5C779B"/>
<path d="M6 25.4615V29.5C6 31.433 7.567 33 9.5 33H30.5C32.433 33 34 31.433 34 29.5V25.4615C29.6026 26.9458 24.8937 27.7499 20 27.7499C15.1063 27.7499 10.3974 26.9458 6 25.4615Z" fill="#5C779B"/>
</svg>
