<svg width="94" height="94" viewBox="0 0 94 94" fill="none" xmlns="http://www.w3.org/2000/svg">
<rect width="94" height="94" rx="30" fill="#DCE0E7"/>
<path fill-rule="evenodd" clip-rule="evenodd" d="M34 47C34 50.3137 31.3137 53 28 53C24.6863 53 22 50.3137 22 47C22 43.6863 24.6863 41 28 41C31.3137 41 34 43.6863 34 47ZM53.3845 47C53.3845 50.3137 50.6982 53 47.3845 53C44.0708 53 41.3845 50.3137 41.3845 47C41.3845 43.6863 44.0708 41 47.3845 41C50.6982 41 53.3845 43.6863 53.3845 47ZM66.7692 53C70.0829 53 72.7692 50.3137 72.7692 47C72.7692 43.6863 70.0829 41 66.7692 41C63.4555 41 60.7692 43.6863 60.7692 47C60.7692 50.3137 63.4555 53 66.7692 53Z" fill="white"/>
</svg>
