<svg width="42" height="42" viewBox="0 0 42 42" fill="none" xmlns="http://www.w3.org/2000/svg">
<path fill-rule="evenodd" clip-rule="evenodd" d="M23.9784 7.34188C23.2204 4.21937 18.7796 4.21937 18.0216 7.34188C17.5319 9.35899 15.2209 10.3162 13.4483 9.23618C10.7044 7.56425 7.56425 10.7044 9.23618 13.4483C10.3162 15.2209 9.35899 17.5319 7.34188 18.0216C4.21937 18.7796 4.21937 23.2204 7.34188 23.9784C9.35899 24.4681 10.3162 26.7791 9.23618 28.5517C7.56425 31.2956 10.7044 34.4358 13.4483 32.7638C15.2209 31.6838 17.5319 32.641 18.0216 34.6581C18.7796 37.7806 23.2204 37.7806 23.9784 34.6581C24.4681 32.641 26.7791 31.6838 28.5517 32.7638C31.2956 34.4358 34.4358 31.2956 32.7638 28.5517C31.6838 26.7791 32.641 24.4681 34.6581 23.9784C37.7806 23.2204 37.7806 18.7796 34.6581 18.0216C32.641 17.5319 31.6838 15.2209 32.7638 13.4483C34.4358 10.7044 31.2956 7.56425 28.5517 9.23618C26.7791 10.3162 24.4681 9.35899 23.9784 7.34188ZM21 27C24.3137 27 27 24.3137 27 21C27 17.6863 24.3137 15 21 15C17.6863 15 15 17.6863 15 21C15 24.3137 17.6863 27 21 27Z" fill="#5C779B"/>
</svg>
