<svg width="42" height="42" viewBox="0 0 42 42" fill="none" xmlns="http://www.w3.org/2000/svg">
<path d="M19.7778 14.1429C19.7778 16.9832 17.4646 19.2857 14.6111 19.2857C11.7576 19.2857 9.44444 16.9832 9.44444 14.1429C9.44444 11.3025 11.7576 9 14.6111 9C17.4646 9 19.7778 11.3025 19.7778 14.1429Z" fill="#5C779B"/>
<path d="M33.5555 14.1429C33.5555 16.9832 31.2423 19.2857 28.3889 19.2857C25.5354 19.2857 23.2222 16.9832 23.2222 14.1429C23.2222 11.3025 25.5354 9 28.3889 9C31.2423 9 33.5555 11.3025 33.5555 14.1429Z" fill="#5C779B"/>
<path d="M26.5446 33C26.6251 32.4401 26.6667 31.8678 26.6667 31.2857C26.6667 28.4825 25.7011 25.9039 24.0829 23.8613C25.3496 23.1318 26.8203 22.7143 28.3889 22.7143C33.1447 22.7143 37 26.5518 37 31.2857V33H26.5446Z" fill="#5C779B"/>
<path d="M14.6111 22.7143C19.3669 22.7143 23.2222 26.5518 23.2222 31.2857V33H6V31.2857C6 26.5518 9.85532 22.7143 14.6111 22.7143Z" fill="#5C779B"/>
</svg>
