<svg width="42" height="42" viewBox="0 0 42 42" fill="none" xmlns="http://www.w3.org/2000/svg">
<path fill-rule="evenodd" clip-rule="evenodd" d="M21 6C29.2843 6 36 12.7157 36 21C36 29.2843 29.2843 36 21 36C12.7157 36 6 29.2843 6 21C6 12.7157 12.7157 6 21 6ZM23 25.6115C23 26.4987 24.0696 26.9465 24.7017 26.3239L29.3838 21.7125C29.7815 21.3207 29.7815 20.6793 29.3838 20.2875L24.7017 15.6761C24.0696 15.0535 23 15.5013 23 16.3885L23 25.6115ZM19 16.3885C19 15.5013 17.9304 15.0535 17.2983 15.6761L12.6162 20.2875C12.2185 20.6793 12.2185 21.3207 12.6162 21.7125L17.2983 26.3239C17.9304 26.9465 19 26.4987 19 25.6115L19 16.3885Z" fill="#5C779B"/>
</svg>
