<svg width="476" height="55" viewBox="0 0 476 55" fill="none" xmlns="http://www.w3.org/2000/svg">
<path d="M85.6802 48.4136H89.824C90.499 46.1961 91.9933 43.6217 92.5612 40.6905C93.1292 37.7593 93.5054 34.7897 93.6897 31.7833H97.4172V48.4151H101.377V47.3668H119.18V44.8661H112.428V39.9149H118.414V37.3818H112.428V32.4306H118.414V29.9299H112.428V24.9787H119.161V22.4456H112.474L110.863 19.2151H106.903L108.469 22.4456H102.252C102.651 21.3162 102.959 20.228 103.173 19.1841H99.2133C98.5071 22.5532 96.0077 26.7215 93.4593 31.6889H89.821C89.6366 34.1631 89.2382 36.907 88.6241 39.9252C88.01 42.939 86.4474 45.77 85.6802 48.4136ZM101.378 44.8632V39.912H108.469V44.8632H101.378ZM101.378 37.3788V32.4276H108.469V37.3788H101.378ZM89.7764 27.0798H93.6897L91.571 19.1797H87.6116L89.7764 27.0798ZM101.378 29.927V26.8881H100.596L100.919 26.089C101.072 25.7484 101.241 25.5302 101.426 24.9758H108.47V29.927H101.378Z" fill="white"/>
<path d="M142.775 48.4131H147.287C148.115 47.5182 149.021 46.4197 150.003 45.1192C151.016 46.4197 151.984 47.5182 152.904 48.4131H157.371C155.468 46.4728 153.732 44.298 152.167 41.8887C154.715 37.4963 155.989 33.4887 155.989 29.8631V25.801H157.371V23.4979H148.943C149.373 21.8568 149.711 20.4163 149.956 19.1807H146.043C145.705 20.9928 145.237 22.7311 144.638 24.3943C144.038 26.0575 143.417 27.4863 142.773 28.6806H147.009C147.378 27.9979 147.776 27.0395 148.206 25.8024H152.073V29.8645C152.073 32.3166 151.352 35.0133 149.908 37.9563C148.711 35.4409 148.112 33.1275 148.112 31.0161V29.1937H144.153V31.0485C144.153 34.397 145.35 38.0109 147.745 41.8902C146.212 44.3186 144.554 46.4934 142.775 48.4131ZM124.448 48.4131H130.249C131.232 48.0725 132.291 47.6243 133.427 47.0699C134.439 47.6243 135.422 48.0725 136.374 48.4131H142.221C140.073 47.5816 138.046 46.6217 136.143 45.535C139.151 43.5519 140.656 41.5157 140.656 39.4264V39.1064H142.59V36.8033H140.656V35.9083H136.879V36.8033H130.432V35.9083H126.702V36.8033H124.078V39.1064H126.702V39.4264C126.702 41.495 128.083 43.5194 130.846 45.5026C128.852 46.6099 126.72 47.5816 124.448 48.4131ZM133.565 43.807C131.478 42.2293 130.434 40.7254 130.434 39.2966V39.1049H136.881V39.2966C136.881 40.7268 135.775 42.2293 133.565 43.807ZM123.849 35.2035H128.039C128.621 34.2864 129.075 33.1835 129.397 31.8934C129.72 30.6032 129.942 29.3396 130.065 28.104H126.381C126.165 29.2762 125.835 30.503 125.39 31.7828C124.946 33.0612 124.431 34.2009 123.849 35.2035ZM131.262 35.2669H135.221V30.3732H136.741C137.078 32.3136 137.646 33.9237 138.445 35.2021H142.635C142.052 34.1994 141.537 33.0597 141.091 31.7799C140.645 30.5 140.315 29.2748 140.101 28.1011H135.22V27.1737H142.265V24.8735H135.22V19.1807H131.26V24.8735H124.216V27.1766H131.26V35.2669H131.262ZM126.382 24.3929H130.159L128.27 20.3632H124.494L126.382 24.3929ZM136.328 24.3929H140.104L141.992 20.3632H138.216L136.328 24.3929Z" fill="white"/>
<path d="M162.387 44.7368H166.904C168.223 43.1164 169.59 41.8041 171.002 39.6499C172.413 37.4958 173.626 34.4097 174.64 32.2556H191.218V28.6844H162.014V32.2556H170.306C169.355 34.1738 168.165 37.1507 166.738 39.3138C165.31 41.4783 163.861 42.9026 162.387 44.7368ZM191.431 48.0882L188.997 39.6544H184.642L186.715 44.8887L162.387 44.7368L162.157 48.2946L191.431 48.0882ZM163.996 24.034H189.144V20.4629H163.996V24.034Z" fill="white"/>
<path fill-rule="evenodd" clip-rule="evenodd" d="M76.4142 35.2409C76.4142 24.6838 68.0225 16.0612 57.4616 15.5098C55.49 6.63946 47.482 0 37.8993 0C28.3018 0 20.2819 6.66157 18.3282 15.5525C8.06309 16.4048 0 24.8932 0 35.2409C0 46.1194 8.91207 54.944 19.925 54.9985V55H56.4892V54.9985C67.5036 54.944 76.4142 46.1194 76.4142 35.2409Z" fill="white"/>
<path fill-rule="evenodd" clip-rule="evenodd" d="M40.5772 22.6689H41.5675C43.704 22.6689 45.4347 24.3867 45.4347 26.504V44.827C45.4347 46.3678 44.1754 47.6181 42.6201 47.6181H40.5757C38.0793 47.6181 36.0573 45.6114 36.0573 43.1373V27.1498C36.0573 24.6742 38.0808 22.6689 40.5772 22.6689Z" fill="#4F88FF"/>
<path fill-rule="evenodd" clip-rule="evenodd" d="M36.591 42.446L58.6407 20.5799C58.9083 20.3145 59.3425 20.3145 59.6116 20.5799C59.6116 20.5799 64.2639 25.1935 65.4727 26.3922C65.6823 26.6871 65.5485 26.8095 65.4861 26.9422C63.1785 29.2305 45.9714 46.2958 45.9714 46.2958C44.1857 48.0666 41.2894 48.0666 39.5022 46.2958L36.591 43.4074C36.3219 43.142 36.3219 42.7114 36.591 42.446Z" fill="#4F88FF"/>
<path fill-rule="evenodd" clip-rule="evenodd" d="M15.31 29.562L26.5683 40.7265C26.8091 40.9654 26.8091 41.3517 26.5683 41.5905L20.8098 47.3011C20.5689 47.5399 20.1793 47.5399 19.9385 47.3011L8.6787 36.138C8.43783 35.8992 8.43783 35.5128 8.6787 35.274L14.4372 29.562C14.6781 29.3231 15.0691 29.3231 15.31 29.562Z" fill="#F13030"/>
<path fill-rule="evenodd" clip-rule="evenodd" d="M14.3331 40.6797L33.4746 21.6976C35.8818 19.3104 39.7832 19.3104 42.1889 21.6976L44.4623 23.952L20.9629 47.2557C20.722 47.4946 20.3325 47.4946 20.0916 47.2557L14.3331 41.5452C14.0922 41.3063 14.0922 40.9185 14.3331 40.6797Z" fill="#F13030"/>
<path d="M342.659 48.3678H346.737V33.8504H355.902C355.774 35.8512 355.086 37.9803 353.839 40.2362C352.688 38.3637 351.903 36.5973 351.488 34.9371H347.554C348.545 38.1086 349.936 40.9396 351.727 43.4299C350.288 45.2818 348.736 47.0069 347.074 48.39H351.872C352.544 47.8577 353.278 47.0689 354.078 46.2387C354.909 47.1116 355.676 47.9004 356.381 48.39H361.515C359.692 47.0497 357.965 45.3349 356.333 43.4609C358.604 40.2466 359.74 37.0441 359.74 33.8504V31.332H346.737V22.4249H354.511C354.799 22.4249 355.055 22.5001 355.278 22.649C355.501 22.7979 355.614 22.9689 355.614 23.1591V26.7642C355.614 27.1269 355.47 27.3923 355.183 27.5619C354.894 27.7329 354.527 27.8066 354.079 27.786H349.185L349.904 30.0846H355.519C356.67 30.0212 357.645 29.7647 358.445 29.3179C359.245 28.8712 359.645 28.2003 359.645 27.3068V21.9103C359.645 21.3352 359.356 20.856 358.781 20.4742C358.205 20.0908 357.501 19.8991 356.67 19.8991H342.659V48.3678ZM326.106 48.3148H330.232C330.583 47.2296 330.88 45.8141 331.12 44.0683C331.359 42.3241 331.48 40.4176 331.48 38.3534V37.7459H336.805V45.2494C336.805 45.7817 336.437 46.0471 335.702 46.0471H335.655H333.688L334.407 48.3133H336.807C337.927 48.2705 338.878 48.0154 339.662 47.5466C340.445 47.0777 340.838 46.3862 340.838 45.472V22.2936C340.838 21.4856 340.445 20.8841 339.662 20.4904C338.878 20.0967 337.927 19.8888 336.807 19.8682H327.355V38.1617C327.355 40.1198 327.235 41.9923 326.995 43.7808C326.754 45.5679 326.459 47.0792 326.106 48.3148ZM331.48 35.4472V29.4772H336.805V35.4472H331.48ZM331.48 27.1785V22.4234H335.414C335.797 22.4027 336.126 22.4706 336.398 22.6313C336.67 22.7905 336.805 23.0515 336.805 23.4142V27.1785H331.48Z" fill="white"/>
<path d="M364.652 34.9693L373.175 34.9811C376.342 34.002 378.868 32.8947 382.099 31.6813C385.138 32.9581 387.37 34.0669 390.248 34.9811H398.799C394.193 33.6836 390.565 32.0853 386.023 30.2127C391.427 27.9568 394.642 25.5461 396.081 23.8431V21.31H376.489C377.161 20.1599 377.354 19.9299 377.676 19.2266H373.321C372.712 20.4828 371.593 22.0826 369.962 24.0834C368.331 26.0842 367.003 27.4673 365.98 28.234H370.768C371.374 27.8079 372.032 27.1916 372.735 26.3821C374.333 27.5749 375.89 28.809 378.417 30.0859C373.651 31.9172 369.809 33.545 364.884 34.9708H364.652V34.9693ZM365.979 48.4001H371.284C372.82 47.166 374.297 45.6222 375.722 43.8764C377.145 42.1322 378.272 40.5914 379.104 38.7173H392.56C392.88 38.7173 393.152 38.7704 393.376 38.8766C393.599 38.9827 393.712 39.1317 393.712 39.3233V44.8171C393.712 45.115 393.576 45.3435 393.305 45.5042C393.033 45.6635 392.721 45.7549 392.37 45.7755L383.392 45.7682L383.397 48.3145H393.712C394.865 48.2924 395.831 48.0698 396.615 47.6437C397.398 47.2176 397.791 46.5894 397.791 45.7593V37.9374C397.791 37.3196 397.471 36.8684 396.832 36.5809C396.191 36.2933 395.409 36.1503 394.481 36.1503H379.922L380.258 34.7776H375.961C375.801 35.332 375.673 35.7891 375.578 36.1503H366.029V38.7188H374.617C373.689 40.5914 372.426 42.1322 370.827 43.8779C369.224 45.6222 367.61 47.166 365.979 48.4001ZM382.52 28.6793C380.217 27.6368 378.136 26.5516 376.282 25.4222H373.596C373.66 25.316 374.265 24.5007 374.809 23.8416H391.197C388.733 25.2895 385.532 27.1901 381.917 28.6793H382.52Z" fill="white"/>
<path d="M417.988 48.3145H422.114V37.3859H436.7V34.8631H422.114V21.652H435.261L435.232 19.0762H404.813L404.841 21.596L417.988 21.6535V34.8646H403.402V37.3874H417.988V48.3145ZM410.312 32.2725H414.534L411.08 25.5048H406.81L410.312 32.2725ZM425.569 32.2725H429.792L433.295 25.5048H429.072L425.569 32.2725Z" fill="white"/>
<path d="M444.57 48.4224H472.541V36.8288C472.541 36.2758 472.229 35.5062 471.606 35.1125C470.982 34.7188 470.275 34.5212 468.964 34.5212H444.568V48.4224H444.57ZM448.409 45.8465V37.0485H467.265C467.679 37.0485 468.024 37.1281 468.296 37.2873C468.569 37.4466 468.704 37.6869 468.704 38.0054V45.8465H448.409ZM442.266 29.6364H447.25C448.817 28.678 450.625 27.3053 452.673 25.5182C454.72 23.7297 456.768 21.6227 458.815 19.1973H454.262C452.982 20.943 451.24 22.7418 449.033 24.5923C446.825 26.4442 444.57 28.1265 442.266 29.6364ZM469.959 32.3022L470.365 32.7032L474.807 32.7136L466.976 22.6342H462.85L467.953 29.6349C467.953 29.6349 464.304 29.6379 462.514 29.6379H442.266V32.3184H462.514C462.514 32.3184 467.382 32.4039 469.959 32.3022Z" fill="white"/>
<path d="M231.175 19.5557C228.246 19.5557 225.819 20.2088 223.893 21.5152C221.863 22.8982 220.849 24.7944 220.849 27.2007C220.849 29.6085 221.902 31.4397 224.008 32.6945C224.779 33.1044 226.886 33.8608 230.328 34.9607C233.332 35.8823 235.157 36.792 235.799 37.1002C237.546 37.9966 238.419 39.1998 238.419 40.7111C238.419 41.9408 237.802 42.9007 236.569 43.5922C235.285 44.3088 233.628 44.6685 231.599 44.6685C229.312 44.6685 227.604 44.2454 226.474 43.4005C225.241 42.479 224.469 40.9293 224.162 38.7516H220C220.23 42.2091 221.476 44.7437 223.738 46.3582C225.665 47.6897 228.285 48.3561 231.599 48.3561C235.066 48.3561 237.763 47.6646 239.69 46.2816C241.617 44.8469 242.581 42.9139 242.581 40.4811C242.581 37.9716 241.398 35.7053 239.036 34.2707C238.034 33.6558 235.633 32.7594 231.831 31.5813C229.314 30.8382 227.721 30.2749 227.054 29.8916C225.692 29.175 225.012 28.2018 225.012 26.9722C225.012 25.5891 225.602 24.5909 226.784 23.9761C227.76 23.4379 229.147 23.1695 230.946 23.1695C233.026 23.1695 234.593 23.5662 235.647 24.3609C236.7 25.104 237.42 26.3839 237.805 28.2018H241.966C241.709 25.2058 240.618 23.0029 238.691 21.5948C236.916 20.2354 234.412 19.5557 231.175 19.5557Z" fill="white"/>
<path d="M244.16 48.4207H248.629L251.21 40.7476H263.039L265.62 48.4207H270.129L259.532 19.6807H254.755L244.16 48.4207ZM257.068 24.1763H257.223L261.77 37.2915H252.484L257.068 24.1763Z" fill="white"/>
<path d="M270.515 48.4207H274.985L277.566 40.7476H289.395L291.976 48.4207H296.484L285.887 19.6807H281.11L270.515 48.4207ZM283.422 24.1763H283.577L288.124 37.2915H278.838L283.422 24.1763Z" fill="white"/>
<path d="M309.199 19.5557C306.27 19.5557 303.844 20.2088 301.917 21.5152C299.887 22.8982 298.873 24.7944 298.873 27.2007C298.873 29.6085 299.926 31.4397 302.033 32.6945C302.803 33.1044 304.91 33.8608 308.352 34.9607C311.357 35.8823 313.181 36.792 313.824 37.1002C315.571 37.9966 316.443 39.1998 316.443 40.7111C316.443 41.9408 315.826 42.9007 314.594 43.5922C313.309 44.3088 311.653 44.6685 309.623 44.6685C307.336 44.6685 305.628 44.2454 304.498 43.4005C303.266 42.479 302.494 40.9293 302.186 38.7516H298.024C298.255 42.2091 299.501 44.7437 301.762 46.3582C303.689 47.6897 306.309 48.3561 309.623 48.3561C313.09 48.3561 315.788 47.6646 317.715 46.2816C319.641 44.8469 320.605 42.9139 320.605 40.4811C320.605 37.9716 319.423 35.7053 317.06 34.2707C316.058 33.6558 313.657 32.7594 309.855 31.5813C307.338 30.8382 305.746 30.2749 305.078 29.8916C303.716 29.175 303.037 28.2018 303.037 26.9722C303.037 25.5891 303.627 24.5909 304.809 23.9761C305.784 23.4379 307.171 23.1695 308.97 23.1695C311.051 23.1695 312.618 23.5662 313.672 24.3609C314.725 25.104 315.444 26.3839 315.829 28.2018H319.991C319.734 25.2058 318.642 23.0029 316.715 21.5948C314.942 20.2354 312.436 19.5557 309.199 19.5557Z" fill="white"/>
<rect x="205" y="19" width="1" height="30" fill="white"/>
</svg>
