<svg width="40" height="40" viewBox="0 0 40 40" fill="none" xmlns="http://www.w3.org/2000/svg">
<rect width="40" height="40" rx="20" fill="url(#paint0_linear_385_68818)"/>
<path d="M25 23.8889H26.6667V29C26.6667 29.5523 26.219 30 25.6667 30H14.3333C13.781 30 13.3333 29.5523 13.3333 29V23.8889H15V26.6667H25V23.8889ZM29.9217 19.9306C29.9739 20.1217 30 20.33 30 20.5556C29.9828 21.2672 29.7397 21.8575 29.2708 22.3264C28.8019 22.7953 28.2117 23.0297 27.5 23.0297C26.7883 23.0297 26.1981 22.7953 25.7292 22.3264C25.2603 21.8575 25.0172 21.2672 25 20.5556C24.9828 21.2672 24.7397 21.8575 24.2708 22.3264C23.8019 22.7953 23.2117 23.0297 22.5 23.0297C21.7883 23.0297 21.1981 22.7953 20.7292 22.3264C20.2603 21.8575 20.0172 21.2672 20 20.5556C19.9828 21.2672 19.7397 21.8575 19.2708 22.3264C18.8019 22.7953 18.2117 23.0297 17.5 23.0297C16.7883 23.0297 16.1981 22.7953 15.7292 22.3264C15.2603 21.8575 15.0172 21.2672 15 20.5556C14.9828 21.2672 14.7397 21.8575 14.2708 22.3264C13.8019 22.7953 13.2117 23.0297 12.5 23.0297C11.7883 23.0297 11.1981 22.7953 10.7292 22.3264C10.2603 21.8575 10.0172 21.2672 10 20.5556C10 20.33 10.0261 20.1217 10.0783 19.9306L11.532 10.8421C11.6096 10.3569 12.0281 10 12.5194 10H27.4806C27.9719 10 28.3904 10.3569 28.468 10.8421L29.9217 19.9306Z" fill="#4F88FF"/>
<defs>
<linearGradient id="paint0_linear_385_68818" x1="20" y1="0" x2="20" y2="40" gradientUnits="userSpaceOnUse">
<stop stop-color="#F4F4FC"/>
<stop offset="1" stop-color="#E2E3ED"/>
</linearGradient>
</defs>
</svg>
