<svg width="40" height="40" viewBox="0 0 40 40" fill="none" xmlns="http://www.w3.org/2000/svg">
<rect width="40" height="40" rx="20" fill="url(#paint0_linear_195_17648)"/>
<path d="M22.6113 19.2375C24.6203 19.8627 26.2274 20.9789 27.4327 22.5861C28.6379 24.1932 29.2555 26.0458 29.2855 28.1439H10.7141C10.7441 26.0458 11.3617 24.1932 12.567 22.5861C13.7722 20.9789 15.3793 19.8627 17.3884 19.2375L19.9998 23.1439L22.6113 19.2375ZM24.6427 14.2154C24.6127 15.5249 24.1589 16.6187 23.2813 17.4968C22.4036 18.3749 21.3098 18.8287 19.9998 18.8582C18.6903 18.8282 17.5965 18.3744 16.7184 17.4968C15.8403 16.6192 15.3865 15.5254 15.357 14.2154C15.387 12.9058 15.8408 11.812 16.7184 10.9339C17.596 10.0558 18.6898 9.60203 19.9998 9.57251C21.3094 9.60251 22.4032 10.0563 23.2813 10.9339C24.1594 11.8116 24.6132 12.9054 24.6427 14.2154Z" fill="white"/>
<path d="M22.6113 19.2375C24.6203 19.8627 26.2275 20.9789 27.4327 22.5861C28.638 24.1932 29.2556 26.0458 29.2856 28.1439C29.3156 30.242 10.6841 30.242 10.7141 28.1439C10.7441 26.0458 11.3618 24.1932 12.567 22.5861C13.7722 20.9789 15.3794 19.8627 17.3884 19.2375L19.9999 23.1439L22.6113 19.2375ZM24.6427 14.2154C24.6127 15.5249 24.1589 16.6187 23.2813 17.4968C22.4037 18.3749 21.3099 18.8287 19.9999 18.8582C18.6903 18.8282 17.5965 18.3744 16.7184 17.4968C15.8403 16.6192 15.3865 15.5254 15.357 14.2154C15.387 12.9058 15.8408 11.812 16.7184 10.9339C17.5961 10.0558 18.6899 9.60203 19.9999 9.57251C21.3094 9.60251 22.4032 10.0563 23.2813 10.9339C24.1594 11.8116 24.6132 12.9054 24.6427 14.2154Z" fill="#4F88FF"/>
<defs>
<linearGradient id="paint0_linear_195_17648" x1="20" y1="0" x2="20" y2="40" gradientUnits="userSpaceOnUse">
<stop stop-color="#F4F4FC"/>
<stop offset="1" stop-color="#E2E3ED"/>
</linearGradient>
</defs>
</svg>
