<svg width="30" height="30" viewBox="0 0 30 30" fill="none" xmlns="http://www.w3.org/2000/svg">
<path fill-rule="evenodd" clip-rule="evenodd" d="M3 25V3H23V10H26V1.96721C26 0.880751 25.1192 0 24.0328 0H1.96721C0.880751 0 0 0.880751 0 1.96721V26.0328C0 27.1192 0.880751 28 1.96721 28H11V25H3Z" fill="white"/>
<circle cx="20.9093" cy="20.9088" r="7.64443" stroke="white" stroke-width="2.89296"/>
<path fill-rule="evenodd" clip-rule="evenodd" d="M20.4535 17.2727C19.7004 17.2727 19.0898 17.8832 19.0898 18.6363V22.2727C19.0898 22.9332 19.5595 23.4841 20.1831 23.6095C20.2707 23.6272 20.3613 23.6365 20.454 23.6365H24.0904C24.8435 23.6365 25.454 23.0259 25.454 22.2728C25.454 21.5197 24.8435 20.9092 24.0904 20.9092L21.8171 20.9092V18.6363C21.8171 17.8832 21.2066 17.2727 20.4535 17.2727Z" fill="white"/>
<path fill-rule="evenodd" clip-rule="evenodd" d="M7.83974 6.36365C7.0249 6.36365 6.36433 7.02421 6.36433 7.83906C6.36433 8.6539 7.0249 9.31447 7.83974 9.31447H15.798C16.6129 9.31447 17.2734 8.6539 17.2734 7.83906C17.2734 7.02421 16.6129 6.36365 15.798 6.36365H7.83974ZM7.83967 12.7274C7.02482 12.7274 6.36426 13.3879 6.36426 14.2028C6.36426 15.0176 7.02482 15.6782 7.83967 15.6782H11.2525C12.0673 15.6782 12.7279 15.0176 12.7279 14.2028C12.7279 13.3879 12.0673 12.7274 11.2525 12.7274H7.83967Z" fill="white"/>
</svg>
