<svg width="34" height="34" viewBox="0 0 34 34" fill="none" xmlns="http://www.w3.org/2000/svg">
<circle cx="17" cy="17" r="17" fill="url(#paint0_linear_1007_8056)"/>
<path d="M19.7366 8.62189C19.59 8.33327 19.3246 8.12052 19.0077 8.03769C18.6909 7.95487 18.3532 8.00996 18.0804 8.18895C17.6851 8.4484 17.3788 8.81683 17.1404 9.17889C16.8955 9.55086 16.6798 9.98167 16.4891 10.4341C16.1079 11.3387 15.7876 12.4234 15.53 13.51C15.2029 14.89 14.9608 16.344 14.8286 17.5373C14.2753 17.17 13.9542 16.7584 13.7484 16.3374C13.374 15.5718 13.2941 14.6118 13.2941 13.3521C13.2941 12.897 13.0157 12.4868 12.5886 12.3127C12.1616 12.1386 11.67 12.2348 11.3431 12.5566C9.78127 14.094 9 16.1114 9 18.125C9 20.1387 9.78127 22.156 11.3431 23.6935C14.4673 26.7688 19.5327 26.7688 22.6569 23.6935C24.2187 22.156 25 20.1387 25 18.125C25 16.1114 24.2187 14.094 22.6569 12.5566C21.981 11.8912 21.5367 11.4476 21.1166 10.9056C20.7017 10.3702 20.2892 9.7099 19.7366 8.62189Z" fill="url(#paint1_linear_1007_8056)"/>
<defs>
<linearGradient id="paint0_linear_1007_8056" x1="9.71428" y1="1.82143" x2="17" y2="34" gradientUnits="userSpaceOnUse">
<stop stop-color="#EF8B34"/>
<stop offset="1" stop-color="#EC682B"/>
</linearGradient>
<linearGradient id="paint1_linear_1007_8056" x1="11.8571" y1="13.0625" x2="16.8611" y2="26.0535" gradientUnits="userSpaceOnUse">
<stop stop-color="#FFF7F2"/>
<stop offset="0.757408" stop-color="#FFEDE0" stop-opacity="0.865"/>
</linearGradient>
</defs>
</svg>
