<svg width="124" height="34" viewBox="0 0 124 34" fill="none" xmlns="http://www.w3.org/2000/svg">
<path d="M32.2605 9.72789L18.1435 1.28049C17.5185 0.906505 16.7483 0.906505 16.1234 1.28049L2.00668 9.72789C1.3837 10.1007 1.00003 10.7883 1.00003 11.5327V30.1931C0.991503 31.922 2.83513 31.9956 2.80671 31.9979C7.10927 31.9979 27.4659 31.9979 31.5468 31.9979C31.1558 31.9979 33.2583 32.1307 33.2668 30.1931V11.5327C33.2668 10.7883 32.8834 10.1007 32.2605 9.72789ZM27.9127 24.9887C27.8277 26.941 26.5872 26.7432 26.5872 26.7432H7.78113C7.78113 26.7432 6.43742 26.8915 6.44282 24.9887V14.1216C6.44282 13.4026 6.81484 12.7364 7.42275 12.3672L16.1438 7.35211C16.7804 6.96524 17.5751 6.96524 18.2117 7.35211L26.9328 12.3672C27.5407 12.7364 27.9127 13.4026 27.9127 14.1216V24.9887Z" fill="#3775F6"/>
<path fill-rule="evenodd" clip-rule="evenodd" d="M24.7964 14.7457C23.6391 14.7472 20.8249 14.7405 20.8249 14.7405C20.8249 14.7405 20.2912 14.7194 19.9746 14.9574C19.9746 14.9574 19.71 15.1561 19.5892 15.2736C19.1714 15.6795 18.1222 16.7889 17.1024 17.8777C16.0662 16.7889 15.0036 15.6801 14.5892 15.2742C14.4693 15.1567 14.2067 14.9576 14.2067 14.9576C13.8926 14.7194 13.3629 14.7405 13.3629 14.7405C13.3629 14.7405 10.5697 14.7472 9.42098 14.7457C9.17486 14.7472 8.82728 14.894 8.82131 15.288C8.81989 15.4568 8.8881 15.6294 9.08818 15.8208L16.6054 23.6046C16.8535 23.8514 17.2235 23.8875 17.5077 23.7175C17.5657 23.685 17.6203 23.6445 17.67 23.5953L25.1315 15.819C25.333 15.6279 25.4018 15.4553 25.4003 15.2868C25.3947 14.8938 25.0445 14.7472 24.7964 14.7457Z" fill="#F13030"/>
<path d="M56.8796 31.996H60.0195V23.668H67.1393V21.3272H60.0195V11.4748H66.5916V9.13373H50.2711V11.4748H56.8796V21.3272H49.6868V23.668H56.8796V31.996ZM44.4293 31.2632C45.9628 31.0038 47.2953 30.6622 48.4273 30.2385C49.5591 29.8148 50.4173 29.3694 51.0014 28.9024V26.5616C49.9546 27.2015 48.798 27.729 47.5328 28.1441V15.8015C47.5082 15.3342 47.2526 14.9324 46.7661 14.595C46.2789 14.2578 45.5613 14.0889 44.6121 14.0889H41.3652V15.9569H43.3708C43.7114 15.9569 43.9671 16.026 44.1375 16.1645C44.3074 16.3029 44.405 16.4672 44.4295 16.6576V29.3955V29.6807V31.2632H44.4293ZM52.2062 20.1856H55.0907L53.3382 13.0513H50.4537L52.2062 20.1856ZM45.0136 12.0138H48.1535L46.912 8.38171H43.8085L45.0136 12.0138ZM61.7723 20.1856H64.6201L66.4457 13.0513H63.5612L61.7723 20.1856Z" fill="#222222"/>
<path d="M77.2623 31.9937H93.309V21.8532C93.309 21.3862 93.065 20.9971 92.578 20.6858C92.0902 20.3745 91.3352 20.2188 90.3117 20.2188H86.8026V15.5033H94.2958V13.1883H86.8026V8.35573H83.6956V13.1883H76.2024V15.5033H83.6956V20.2191H77.2623V31.9937ZM71.0849 31.9942H74.1553V16.8462H72.9489C74.8736 13.5604 76.1291 10.5523 76.7139 8.35547H73.5338C73.2167 9.61831 72.5955 11.4459 71.6695 13.3049C70.7431 15.1643 69.7077 17.0107 68.5625 18.8438H71.0847V31.9942H71.0849ZM80.1865 29.6529V22.5338H88.8495C89.2881 22.5168 89.6411 22.5945 89.9094 22.7674C90.1772 22.9406 90.3114 23.2342 90.3114 23.6495V29.6529H80.1865Z" fill="#222222"/>
<path d="M96.2578 32.0001H122V29.6611H110.749V25.2651H120.517V22.9378H110.749V18.5232H120.542V16.1845H97.7582V18.5232H107.601V22.9376H97.7777V25.2648H107.601V29.6611H96.2578V32.0001ZM115.16 28.7727H118.082L117.5 26.0512H114.578L115.16 28.7727ZM96.7114 15.2951H99.8465V13.0987H117.259C117.718 13.0987 118.041 13.1997 118.227 13.4004C118.413 13.6017 118.495 13.851 118.473 14.1483V15.2951H121.608V12.5071C121.586 12.0349 121.357 11.6281 120.919 11.2868C120.481 10.9457 119.836 10.7751 118.983 10.7751H110.793L110.267 8.30371H106.895L107.42 10.7751H96.7112V15.2951H96.7114Z" fill="#222222"/>
</svg>
