<svg width="32" height="32" viewBox="0 0 32 32" fill="none" xmlns="http://www.w3.org/2000/svg">
<path fill-rule="evenodd" clip-rule="evenodd" d="M25.3627 14.2031C25.3627 20.3664 20.3664 25.3627 14.2031 25.3627C8.03984 25.3627 3.04352 20.3664 3.04352 14.2031C3.04352 8.03984 8.03984 3.04352 14.2031 3.04352C20.3664 3.04352 25.3627 8.03984 25.3627 14.2031ZM23.1127 25.2648C20.6761 27.2298 17.577 28.4062 14.2031 28.4062C6.35895 28.4062 0 22.0473 0 14.2031C0 6.35895 6.35895 0 14.2031 0C22.0473 0 28.4062 6.35895 28.4062 14.2031C28.4062 17.577 27.2298 20.6762 25.2648 23.1127L31.5543 29.4022C32.1486 29.9965 32.1486 30.96 31.5543 31.5543C30.96 32.1486 29.9965 32.1486 29.4022 31.5543L23.1127 25.2648Z" fill="#8996A6"/>
</svg>
