<svg width="220" height="64" viewBox="0 0 220 64" fill="none" xmlns="http://www.w3.org/2000/svg">
<g clip-path="url(#clip0_859_101750)">
<path fill-rule="evenodd" clip-rule="evenodd" d="M87.535 40.7085C87.535 28.5124 77.9226 18.5518 65.823 17.9164C63.5664 7.67108 54.3917 0 43.4145 0C32.4209 0 23.2321 7.69461 20.9943 17.9659C9.23589 18.9495 0 28.7548 0 40.7085C0 53.2764 10.2077 63.47 22.825 63.5311V63.5335H64.71V63.5311C77.3273 63.47 87.535 53.2764 87.535 40.7085Z" fill="white"/>
<path fill-rule="evenodd" clip-rule="evenodd" d="M46.4815 26.1854H47.6157C50.0629 26.1854 52.0466 28.1691 52.0466 30.6163V51.7824C52.0466 53.5637 50.6041 55.0061 48.8228 55.0061H46.4815C43.6225 55.0061 41.3047 52.6883 41.3047 49.8293V31.3622C41.3047 28.5032 43.6225 26.1854 46.4815 26.1854Z" fill="#4F88FF"/>
<path fill-rule="evenodd" clip-rule="evenodd" d="M41.914 49.0315L67.1721 23.7734C67.478 23.4675 67.9768 23.4675 68.2827 23.7734C68.2827 23.7734 73.6125 29.1031 74.9961 30.4867C75.2361 30.8279 75.0832 30.9691 75.0126 31.1221C72.3677 33.767 52.6582 53.4788 52.6582 53.4788C50.611 55.526 47.2932 55.526 45.2483 53.4788L41.914 50.1445C41.6081 49.8362 41.6081 49.3397 41.914 49.0315Z" fill="#4F88FF"/>
<path fill-rule="evenodd" clip-rule="evenodd" d="M17.5366 34.1484L30.4339 47.0457C30.7092 47.321 30.7092 47.7681 30.4339 48.0434L23.8359 54.6415C23.5606 54.9168 23.1135 54.9168 22.8382 54.6415L9.94086 41.7442C9.66555 41.4688 9.66555 41.0218 9.94086 40.7465L16.5389 34.1484C16.8142 33.8731 17.2613 33.8731 17.5366 34.1484Z" fill="#F13030"/>
<path fill-rule="evenodd" clip-rule="evenodd" d="M16.4162 46.9915L38.3446 25.063C41.1024 22.3052 45.571 22.3052 48.3288 25.063L50.9337 27.6679L24.0143 54.5872C23.739 54.8626 23.2919 54.8626 23.0166 54.5872L16.4185 47.9892C16.1408 47.7162 16.1408 47.2691 16.4162 46.9915Z" fill="#F13030"/>
<path d="M184.533 34.4963L184.53 38.3295H190.545L185.876 55.9H219.024L217.132 45.7864H211.981L213.116 52.1021L192.837 52.0292L196.232 38.3318L219.994 38.3342L219.991 34.501L184.533 34.4963ZM186.86 23.8627V27.6864H217.624V23.8627H186.86Z" fill="#1E2020"/>
<path fill-rule="evenodd" clip-rule="evenodd" d="M132.125 51.3303C132.12 51.3303 132.116 51.3303 132.111 51.3303H131.979V51.3327C131.885 51.335 131.789 51.3374 131.692 51.335C125.318 51.2621 119.378 46.13 118.995 39.5907V22.1025H114.324V39.6166C113.933 46.1441 108.14 51.2621 101.772 51.335C101.664 51.3374 101.556 51.335 101.448 51.3303V51.3256H98.1299V55.8906H101.34C101.577 55.9 101.812 55.9071 102.052 55.9071C108.142 55.9071 113.717 52.5633 116.677 47.6124C119.68 52.5633 125.322 55.9071 131.412 55.9071C131.603 55.9071 131.791 55.9024 131.979 55.8953V55.8977H135.335V51.3256H132.125V51.3303Z" fill="#1E2020"/>
<path fill-rule="evenodd" clip-rule="evenodd" d="M103.249 41.106H107.916C107.916 41.106 106.633 37.807 105.626 33.6538C104.584 29.357 103.817 24.985 103.817 24.985H99.1504C99.1504 24.985 99.9293 29.4041 100.976 33.7244C101.979 37.854 103.249 41.106 103.249 41.106Z" fill="#1E2020"/>
<path fill-rule="evenodd" clip-rule="evenodd" d="M132.348 33.7244C133.396 29.4041 134.174 24.985 134.174 24.985H129.508C129.508 24.985 128.741 29.357 127.699 33.6538C126.692 37.807 125.409 41.106 125.409 41.106H130.075C130.075 41.106 131.346 37.854 132.348 33.7244Z" fill="#1E2020"/>
<path d="M173.952 51.1491C173.653 50.942 173.502 50.6291 173.502 50.2102V44.744H179.072V40.9249H156.692V44.744H162.17V45.3464C162.17 48.7184 158.736 53.8811 156.645 55.8906H162.435C163.678 54.7588 166.417 48.7254 166.417 45.3464V44.744H169.351V52.8433C169.351 53.8481 169.751 54.5964 170.551 55.0882C171.351 55.5776 172.316 55.8482 173.45 55.8977H179.102L179.124 51.4997H175.533C175.168 51.4738 174.253 51.3562 173.952 51.1491Z" fill="#1E2020"/>
<path d="M179.095 23.8745H165.988L165.094 22.1144H160.458C160.458 22.1144 160.83 22.9168 161.242 23.8745H156.618V27.6841H163.094C163.899 29.4749 164.814 31.9338 165.583 33.4328L156.649 35.6517V39.6449L167.937 36.753C168.499 37.3624 169.005 38.0048 169.607 38.4048C171.603 39.7296 173.4 39.7179 173.4 39.7179H179.09L179.109 36.0823H175.723C175.048 36.1223 173.909 35.7506 172.951 35.3199L179.128 33.5551V29.5619L170.033 32.1621C169.852 31.7926 169.753 31.5526 169.753 31.5526L168.085 27.6841H179.095V23.8745Z" fill="#1E2020"/>
<path d="M154.394 39.6402C154.778 34.7552 154.957 28.4983 154.929 24.9498H151.597C151.623 28.4983 151.446 34.7552 151.062 39.6402H154.394Z" fill="#1E2020"/>
<path d="M144.851 39.7508L144.112 24.9498H140.737L141.479 39.7508H144.851Z" fill="#1E2020"/>
<path d="M149.994 40.9885C150.048 40.405 150.076 39.3602 150.076 38.146L149.784 22.1144H145.509V38.146C145.509 41.4262 145.005 44.4711 144.292 47.2783C143.579 50.0856 142.393 52.9587 140.723 55.9001H146.111C147.838 52.3281 148.808 48.6808 149.33 44.9629C149.961 48.5114 150.61 52.4481 150.693 55.9001H155.015C154.879 50.7727 153.996 45.6077 152.954 40.9909H149.994V40.9885Z" fill="#1E2020"/>
</g>
<defs>
<clipPath id="clip0_859_101750">
<rect width="220" height="63.5335" fill="white"/>
</clipPath>
</defs>
</svg>
