<svg width="30" height="30" viewBox="0 0 30 30" fill="none" xmlns="http://www.w3.org/2000/svg">
<path fill-rule="evenodd" clip-rule="evenodd" d="M3.5 14.5C3.5 8.42486 8.42486 3.5 14.5 3.5C20.5751 3.5 25.5 8.42486 25.5 14.5C25.5 20.5751 20.5751 25.5 14.5 25.5C8.42486 25.5 3.5 20.5751 3.5 14.5ZM14.5 0.5C6.768 0.5 0.5 6.768 0.5 14.5C0.5 22.232 6.768 28.5 14.5 28.5C17.6851 28.5 20.6217 27.4364 22.9741 25.645C23.0119 25.6934 23.0531 25.74 23.0976 25.7846L26.6237 29.3107C27.2095 29.8964 28.1592 29.8964 28.745 29.3107C29.3308 28.7249 29.3308 27.7751 28.745 27.1893L25.2189 23.6633C25.1948 23.6391 25.17 23.616 25.1447 23.5938C27.2367 21.1474 28.5 17.9712 28.5 14.5C28.5 6.768 22.232 0.5 14.5 0.5Z" fill="#CD9765"/>
</svg>
