<svg width="32" height="32" viewBox="0 0 32 32" fill="none" xmlns="http://www.w3.org/2000/svg">
<path fill-rule="evenodd" clip-rule="evenodd" d="M18 9.5C18 8.67157 17.3284 8 16.5 8C15.6716 8 15 8.67157 15 9.5V18.5C15 19.3284 15.6716 20 16.5 20C17.3284 20 18 19.3284 18 18.5L18 9.5ZM18 23.5C18 22.6716 17.3284 22 16.5 22C15.6716 22 15 22.6716 15 23.5C15 24.3284 15.6716 25 16.5 25C17.3284 25 18 24.3284 18 23.5Z" fill="#A0AEC0"/>
<rect x="1.06667" y="1.06667" width="29.8667" height="29.8667" rx="14.9333" stroke="#A0AEC0" stroke-width="2.13333"/>
</svg>
