<svg width="30" height="30" viewBox="0 0 30 30" fill="none" xmlns="http://www.w3.org/2000/svg">
<path d="M2 1.6C2 0.716345 2.71634 0 3.6 0H19.6L28 8.66521V28.4C28 29.2837 27.2837 30 26.4 30H3.6C2.71634 30 2 29.2837 2 28.4V1.6Z" fill="#3A714A"/>
<path d="M19.5996 0L23.7996 4.4L27.9996 8.8H20.3996C19.9578 8.8 19.5996 8.44183 19.5996 8V0Z" fill="#2E5A3B"/>
<path d="M10.5152 12.8207H12.7968L14.8944 15.8383L16.9736 12.8207H19.2552L15.9616 17.2735L19.66 22.3335H17.3784L14.8944 18.7087L12.392 22.3335H10.092L13.8088 17.2735L10.5152 12.8207Z" fill="white"/>
</svg>
