<svg width="30" height="30" viewBox="0 0 30 30" fill="none" xmlns="http://www.w3.org/2000/svg">
<path d="M2 1.58242C2 0.708474 2.70847 0 3.58242 0H19.6L28 8.66521V28.4176C28 29.2915 27.2915 30 26.4176 30H3.58242C2.70847 30 2 29.2915 2 28.4176V1.58242Z" fill="#CF534E"/>
<path d="M19.4072 0L23.5611 4.35165L27.7149 8.7033H20.1984C19.7615 8.7033 19.4072 8.34906 19.4072 7.91209V0Z" fill="#A5433E"/>
<path d="M5.99654 15.2881H8.71974C10.2837 15.2881 11.0657 15.9505 11.0657 17.2845C11.0657 18.6277 10.2745 19.2993 8.70134 19.2993H6.99934V21.8569H5.99654V15.2881ZM6.99934 16.1437V18.4437H8.63694C9.13374 18.4437 9.49254 18.3517 9.72254 18.1677C9.94334 17.9837 10.0629 17.6893 10.0629 17.2845C10.0629 16.8797 9.94334 16.5853 9.71334 16.4197C9.48334 16.2357 9.12454 16.1437 8.63694 16.1437H6.99934ZM11.9981 15.2881H14.3901C15.4481 15.2881 16.2485 15.5825 16.8005 16.1805C17.3157 16.7325 17.5733 17.5329 17.5733 18.5725C17.5733 19.6029 17.3065 20.4033 16.7821 20.9737C16.2301 21.5625 15.4297 21.8569 14.3717 21.8569H11.9981V15.2881ZM13.0009 16.1437V21.0013H14.1877C15.0157 21.0013 15.6321 20.7989 16.0185 20.4033C16.3957 20.0077 16.5889 19.4005 16.5889 18.5725C16.5889 17.7261 16.3957 17.1189 16.0277 16.7325C15.6413 16.3369 15.0341 16.1437 14.2061 16.1437H13.0009ZM18.5926 15.2881H23.0546V16.1437H19.5954V18.0573H22.8614V18.9129H19.5954V21.8569H18.5926V15.2881Z" fill="white"/>
</svg>
