<svg width="30" height="30" viewBox="0 0 30 30" fill="none" xmlns="http://www.w3.org/2000/svg">
<path d="M27 8H20C15.5817 8 12 11.5817 12 16V18M27 8L21 14M27 8L21 2" stroke="white" stroke-width="3" stroke-linecap="round" stroke-linejoin="round"/>
<path d="M0 6.66659C0 4.82564 1.49238 3.33325 3.33333 3.33325H11.6667C12.5871 3.33325 13.3333 4.07944 13.3333 4.99992C13.3333 5.92039 12.5871 6.66659 11.6667 6.66659H3.33333V26.6666H23.3333V19.3333C23.3333 18.4128 24.0795 17.6666 25 17.6666C25.9205 17.6666 26.6667 18.4128 26.6667 19.3333V26.6666C26.6667 28.5075 25.1743 29.9999 23.3333 29.9999H3.33333C1.49238 29.9999 0 28.5075 0 26.6666V6.66659Z" fill="white"/>
</svg>
