<svg width="32" height="32" viewBox="0 0 32 32" fill="none" xmlns="http://www.w3.org/2000/svg">
<path d="M27.6364 13.7794C27.2506 13.7794 26.8806 13.9327 26.6078 14.2058C26.3351 14.4788 26.1818 14.8491 26.1818 15.2352V25.4259C26.1818 25.812 26.0286 26.1823 25.7558 26.4553C25.483 26.7283 25.113 26.8817 24.7273 26.8817H4.36364C3.97787 26.8817 3.6079 26.7283 3.33512 26.4553C3.06234 26.1823 2.90909 25.812 2.90909 25.4259V13.7794C2.90909 13.3932 3.06234 13.023 3.33512 12.7499C3.6079 12.4769 3.97787 12.3235 4.36364 12.3235H7.27273C7.58991 12.3401 7.9038 12.2523 8.16645 12.0736C8.4291 11.8948 8.62607 11.6349 8.72727 11.3336L9.51273 8.94604C9.61031 8.65688 9.79622 8.40574 10.0442 8.22809C10.2921 8.05045 10.5896 7.9553 10.8945 7.95608H18.9091C19.2949 7.95608 19.6648 7.8027 19.9376 7.52969C20.2104 7.25667 20.3636 6.88637 20.3636 6.50027C20.3636 6.11416 20.2104 5.74387 19.9376 5.47085C19.6648 5.19783 19.2949 5.04445 18.9091 5.04445H10.8218C9.90771 5.04616 9.01721 5.33515 8.27602 5.87063C7.53483 6.40612 6.98038 7.16105 6.69091 8.02888L6.22545 9.48469H4.36364C3.20633 9.48469 2.09642 9.94483 1.27808 10.7639C0.459739 11.5829 0 12.6938 0 13.8521V25.4987C0 26.657 0.459739 27.7679 1.27808 28.5869C2.09642 29.406 3.20633 29.8661 4.36364 29.8661H24.7273C25.8846 29.8661 26.9945 29.406 27.8128 28.5869C28.6312 27.7679 29.0909 26.657 29.0909 25.4987V15.308C29.1008 15.1108 29.0704 14.9136 29.0018 14.7285C28.9331 14.5434 28.8275 14.3742 28.6915 14.2312C28.5554 14.0882 28.3917 13.9744 28.2103 13.8967C28.0289 13.819 27.8337 13.7791 27.6364 13.7794ZM14.5455 12.3235C13.3947 12.3235 12.2698 12.6651 11.313 13.3049C10.3563 13.9448 9.61052 14.8543 9.17016 15.9183C8.72979 16.9824 8.61457 18.1533 8.83907 19.2829C9.06356 20.4125 9.61769 21.4501 10.4314 22.2645C11.2451 23.0789 12.2818 23.6335 13.4104 23.8582C14.539 24.0829 15.7088 23.9676 16.772 23.5268C17.8351 23.0861 18.7438 22.3397 19.3831 21.382C20.0224 20.4244 20.3636 19.2985 20.3636 18.1468C20.3636 16.6024 19.7507 15.1212 18.6595 14.0291C17.5684 12.9371 16.0885 12.3235 14.5455 12.3235ZM14.5455 21.0584C13.9701 21.0584 13.4076 20.8877 12.9293 20.5677C12.4509 20.2478 12.078 19.7931 11.8578 19.261C11.6376 18.729 11.58 18.1436 11.6923 17.5788C11.8045 17.014 12.0816 16.4952 12.4884 16.088C12.8953 15.6808 13.4136 15.4035 13.9779 15.2911C14.5422 15.1788 15.1271 15.2364 15.6587 15.4568C16.1903 15.6772 16.6446 16.0504 16.9643 16.5292C17.2839 17.008 17.4545 17.5709 17.4545 18.1468C17.4545 18.919 17.1481 19.6596 16.6025 20.2056C16.0569 20.7517 15.317 21.0584 14.5455 21.0584ZM30.5455 5.04445H29.0909V3.58863C29.0909 3.20252 28.9377 2.83223 28.6649 2.55921C28.3921 2.28619 28.0221 2.13281 27.6364 2.13281C27.2506 2.13281 26.8806 2.28619 26.6078 2.55921C26.3351 2.83223 26.1818 3.20252 26.1818 3.58863V5.04445H24.7273C24.3415 5.04445 23.9715 5.19783 23.6988 5.47085C23.426 5.74387 23.2727 6.11416 23.2727 6.50027C23.2727 6.88637 23.426 7.25667 23.6988 7.52969C23.9715 7.8027 24.3415 7.95608 24.7273 7.95608H26.1818V9.4119C26.1818 9.79801 26.3351 10.1683 26.6078 10.4413C26.8806 10.7143 27.2506 10.8677 27.6364 10.8677C28.0221 10.8677 28.3921 10.7143 28.6649 10.4413C28.9377 10.1683 29.0909 9.79801 29.0909 9.4119V7.95608H30.5455C30.9312 7.95608 31.3012 7.8027 31.574 7.52969C31.8468 7.25667 32 6.88637 32 6.50027C32 6.11416 31.8468 5.74387 31.574 5.47085C31.3012 5.19783 30.9312 5.04445 30.5455 5.04445Z" fill="#A2A3A4"/>
</svg>
