<svg width="40" height="40" viewBox="0 0 40 40" fill="none" xmlns="http://www.w3.org/2000/svg">
<rect width="40" height="40" rx="8" fill="#FFA34F"/>
<path d="M22.6337 19.6946C24.4601 20.263 25.9212 21.2777 27.0168 22.7387C28.1125 24.1998 28.674 25.884 28.7013 27.7913C28.7285 29.6987 11.7909 29.6987 11.8181 27.7913C11.8454 25.884 12.4069 24.1998 13.5026 22.7387C14.5982 21.2777 16.0593 20.263 17.8857 19.6946L20.2597 23.2459L22.6337 19.6946ZM24.4805 15.129C24.4532 16.3195 24.0407 17.3138 23.2428 18.1121C22.445 18.9104 21.4506 19.3229 20.2597 19.3498C19.0692 19.3225 18.0749 18.9099 17.2766 18.1121C16.4783 17.3143 16.0658 16.3199 16.0389 15.129C16.0662 13.9385 16.4788 12.9441 17.2766 12.1459C18.0744 11.3476 19.0688 10.935 20.2597 10.9082C21.4502 10.9355 22.4446 11.348 23.2428 12.1459C24.0411 12.9437 24.4536 13.9381 24.4805 15.129Z" fill="white"/>
</svg>
