<svg width="44" height="44" viewBox="0 0 44 44" fill="none" xmlns="http://www.w3.org/2000/svg">
<rect width="44" height="44" rx="8" fill="#EDF2F2"/>
<path fill-rule="evenodd" clip-rule="evenodd" d="M7 18.7147C7 21.3291 8.42534 23.7176 10.6281 25.2991C10.8225 25.4282 10.9197 25.6219 10.9197 25.8801C10.9197 25.9447 10.8873 26.0415 10.8873 26.106C10.7253 26.7516 10.4338 27.8167 10.4014 27.849C10.369 27.9458 10.3366 28.0104 10.3366 28.1072C10.3366 28.3009 10.4986 28.4622 10.6929 28.4622C10.7577 28.4622 10.8225 28.43 10.8873 28.3977L13.1873 27.0743C13.3492 26.9775 13.5436 26.913 13.738 26.913C13.8351 26.913 13.9647 26.913 14.0619 26.9452C15.1309 27.268 16.2971 27.4294 17.4957 27.4294C23.2942 27.4294 27.9913 23.5239 27.9913 18.7147C27.9913 13.9055 23.2942 10 17.4957 10C11.6971 10 7 13.9055 7 18.7147" fill="#04AE0E"/>
<path fill-rule="evenodd" clip-rule="evenodd" d="M27 33.0377C28.0333 33.0377 29.0333 32.8952 29.9333 32.6101C30 32.5744 30.1 32.5744 30.2 32.5744C30.3667 32.5744 30.5333 32.6457 30.6667 32.717L32.6333 33.9287C32.7 33.9644 32.7333 34 32.8 34C32.9667 34 33.1 33.8574 33.1 33.6792C33.1 33.608 33.0667 33.5367 33.0667 33.4298C33.0667 33.3941 32.8 32.4319 32.6667 31.826C32.6333 31.7547 32.6333 31.6834 32.6333 31.6122C32.6333 31.3983 32.7333 31.2201 32.9 31.0776C34.8 29.6164 36 27.4423 36 25.0189C36 20.5996 31.9667 17 27 17C22.0333 17 18 20.5639 18 25.0189C18 29.4382 22.0333 33.0377 27 33.0377Z" fill="#EDF2F2"/>
<path fill-rule="evenodd" clip-rule="evenodd" d="M27.2741 32.5594C28.2759 32.5594 29.2454 32.4293 30.1179 32.1692C30.1826 32.1367 30.2795 32.1367 30.3765 32.1367C30.538 32.1367 30.6996 32.2017 30.8289 32.2667L32.7355 33.3724C32.8002 33.4049 32.8325 33.4374 32.8971 33.4374C33.0587 33.4374 33.188 33.3074 33.188 33.1448C33.188 33.0797 33.1556 33.0147 33.1556 32.9171C33.1556 32.8846 32.8971 32.0066 32.7678 31.4538C32.7355 31.3887 32.7355 31.3237 32.7355 31.2587C32.7355 31.0635 32.8325 30.9009 32.9941 30.7709C34.8361 29.4376 35.9994 27.4539 35.9994 25.2426C35.9994 21.2102 32.0892 17.9258 27.2741 17.9258C22.4591 17.9258 18.5488 21.1777 18.5488 25.2426C18.5488 29.275 22.4591 32.5594 27.2741 32.5594Z" fill="#04AE0E"/>
<path fill-rule="evenodd" clip-rule="evenodd" d="M15.3464 15.9016C15.3464 16.6544 14.7504 17.2504 13.9975 17.2504C13.2447 17.2504 12.6487 16.6544 12.6487 15.9016C12.6487 15.1487 13.2447 14.5527 13.9975 14.5527C14.7504 14.5527 15.3464 15.1487 15.3464 15.9016" fill="#EDF2F2"/>
<path fill-rule="evenodd" clip-rule="evenodd" d="M22.3427 15.9016C22.3427 16.6544 21.7467 17.2504 20.9939 17.2504C20.241 17.2504 19.645 16.6544 19.645 15.9016C19.645 15.1487 20.241 14.5527 20.9939 14.5527C21.7467 14.5527 22.3427 15.1487 22.3427 15.9016" fill="#EDF2F2"/>
<path fill-rule="evenodd" clip-rule="evenodd" d="M29.0872 22.983C29.0872 23.6387 29.6117 24.1632 30.2674 24.1632C30.9231 24.1632 31.4476 23.6387 31.4476 22.983C31.4476 22.3273 30.9231 21.8027 30.2674 21.8027C29.6117 21.8027 29.0872 22.3273 29.0872 22.983" fill="#EDF2F2"/>
<path fill-rule="evenodd" clip-rule="evenodd" d="M23.2703 22.983C23.2703 23.6387 23.7948 24.1632 24.4505 24.1632C25.1062 24.1632 25.6307 23.6387 25.6307 22.983C25.6307 22.3273 25.1062 21.8027 24.4505 21.8027C23.7948 21.8027 23.2703 22.3273 23.2703 22.983" fill="#EDF2F2"/>
</svg>
