<svg width="32" height="32" viewBox="0 0 32 32" fill="none" xmlns="http://www.w3.org/2000/svg">
<path d="M26.2143 28H5.78571C4.24721 28 3 26.7602 3 25.2308L3 6.76923C3 5.23983 4.24721 4 5.78572 4L20.6429 4C22.1814 4 23.4286 5.23983 23.4286 6.76923V10M26.2143 28C24.6758 28 23.4286 26.7602 23.4286 25.2308L23.4286 10M26.2143 28C27.7528 28 29 26.7602 29 25.2308V12.7692C29 11.2398 27.7528 10 26.2143 10H23.4286M17.8571 4L11.3571 4M8.57143 13.2308H17.8571M8.57143 18.7692H17.8571" stroke="#A2A3A4" stroke-width="3" stroke-linecap="round" stroke-linejoin="round"/>
</svg>
