<svg width="28" height="28" viewBox="0 0 28 28" fill="none" xmlns="http://www.w3.org/2000/svg">
<circle cx="14" cy="14" r="14" fill="#FF3D3D"/>
<path fill-rule="evenodd" clip-rule="evenodd" d="M18.9998 19C19.5521 18.4478 19.5521 17.5523 18.9998 17L15.9998 14L18.9998 10.9999C19.5521 10.4476 19.5521 9.55221 18.9998 8.99993C18.4475 8.44764 17.5521 8.44764 16.9998 8.99993L13.9998 12L10.9998 9.00005C10.4475 8.44776 9.55212 8.44776 8.99983 9.00005C8.44755 9.55233 8.44754 10.4478 8.99983 11L11.9998 14L8.99981 16.9999C8.44752 17.5522 8.44752 18.4476 8.99981 18.9999C9.55209 19.5522 10.4475 19.5522 10.9998 18.9999L13.9998 16L16.9998 19C17.5521 19.5523 18.4475 19.5523 18.9998 19Z" fill="white"/>
</svg>
