<svg width="20" height="20" viewBox="0 0 20 20" fill="none" xmlns="http://www.w3.org/2000/svg">
<rect x="2" y="2" width="16" height="16" rx="3" fill="#22AC38"/>
<path fill-rule="evenodd" clip-rule="evenodd" d="M15.7646 7.40635L8.27663 11.7442L8.23196 11.775C8.17079 11.8041 8.10388 11.8193 8.03608 11.8194C7.95854 11.8189 7.88255 11.7977 7.81605 11.758C7.74956 11.7183 7.695 11.6615 7.65807 11.5936L7.63058 11.5321L6.43814 8.94921C6.43126 8.91996 6.43126 8.88952 6.43814 8.86027C6.43721 8.83245 6.44196 8.80474 6.45212 8.77881C6.46228 8.75288 6.47763 8.72928 6.49724 8.70944C6.51684 8.6896 6.5403 8.67394 6.56618 8.66341C6.59205 8.65287 6.61981 8.64769 6.64777 8.64817C6.69669 8.65084 6.74407 8.66617 6.78522 8.69264L8.18728 9.67447C8.29761 9.74021 8.42302 9.77673 8.55155 9.78052C8.62845 9.77943 8.70438 9.76315 8.77491 9.73262L15.3454 6.80425C14.6762 6.05888 13.8524 5.46699 12.931 5.06949C12.0096 4.67199 11.0125 4.47834 10.0086 4.50192C6.4244 4.50192 3.5 6.93425 3.5 9.93788C3.52085 10.7501 3.73515 11.5459 4.12527 12.2596C4.5154 12.9733 5.07019 13.5845 5.74399 14.0431C5.79828 14.0827 5.84287 14.1341 5.87441 14.1934C5.90595 14.2526 5.92362 14.3182 5.92612 14.3852C5.9237 14.4322 5.91324 14.4785 5.89519 14.522C5.7921 14.9291 5.60997 15.5928 5.60997 15.6236C5.59149 15.6776 5.58107 15.7341 5.57904 15.7912C5.57856 15.819 5.58376 15.8467 5.59434 15.8724C5.60493 15.8982 5.62066 15.9215 5.64059 15.9411C5.66052 15.9606 5.68422 15.9759 5.71027 15.986C5.73632 15.9961 5.76415 16.0008 5.7921 15.9999C5.83651 16.0014 5.87975 15.9855 5.91237 15.9554L7.32818 15.1241C7.43231 15.0614 7.5503 15.025 7.67182 15.0181C7.73797 15.0219 7.80358 15.0322 7.8677 15.0488C8.55719 15.2512 9.27259 15.3526 9.99141 15.3499C13.579 15.3499 16.5 12.921 16.5 9.91393C16.4921 9.02651 16.2376 8.15859 15.7646 7.40635Z" fill="white"/>
</svg>
