<svg width="140" height="140" viewBox="0 0 140 140" fill="none" xmlns="http://www.w3.org/2000/svg">
<rect width="140" height="140" rx="70" fill="#FF8D8D"/>
<path fill-rule="evenodd" clip-rule="evenodd" d="M65.3997 39.2001C64.8474 39.2001 64.3997 39.6478 64.3997 40.2001V80.2001C64.3997 80.7524 64.8474 81.2001 65.3997 81.2001H76.4663C77.0186 81.2001 77.4663 80.7524 77.4663 80.2001V40.2001C77.4663 39.6478 77.0186 39.2001 76.4663 39.2001H65.3997ZM65.3997 86.8001C64.8474 86.8001 64.3997 87.2478 64.3997 87.8001V98.8667C64.3997 99.419 64.8474 99.8667 65.3997 99.8667H76.4663C77.0186 99.8667 77.4663 99.419 77.4663 98.8667V87.8001C77.4663 87.2478 77.0186 86.8001 76.4663 86.8001H65.3997Z" fill="white"/>
</svg>
