<svg width="40" height="40" viewBox="0 0 40 40" fill="none" xmlns="http://www.w3.org/2000/svg">
<g clip-path="url(#clip0_448_111885)">
<path fill-rule="evenodd" clip-rule="evenodd" d="M8.33333 5H31.6667C33.5 5 35 6.5 35 8.33333V31.6667C35 33.5 33.5 35 31.6667 35H8.33333C6.5 35 5 33.5 5 31.6667V8.33333C5 6.5 6.5 5 8.33333 5ZM12 28.3333C12.5523 28.3333 13 27.8856 13 27.3333V17.6667C13 17.1144 12.5523 16.6667 12 16.6667H10.6667C10.1144 16.6667 9.66667 17.1144 9.66667 17.6667V27.3333C9.66667 27.8856 10.1144 28.3333 10.6667 28.3333H12ZM17.6667 28.3333C18.219 28.3333 18.6667 27.8856 18.6667 27.3333V12.6667C18.6667 12.1144 18.219 11.6667 17.6667 11.6667H16.3333C15.781 11.6667 15.3333 12.1144 15.3333 12.6667V27.3333C15.3333 27.8856 15.781 28.3333 16.3333 28.3333H17.6667ZM28.0356 18.2477L28.7494 17.503C29.2967 16.9633 30.1778 16.9657 30.7222 17.5101C31.2689 18.0568 31.2689 18.9432 30.7222 19.4899L30.7059 19.5065L30.0151 20.2272L28.0356 18.2477ZM26.513 19.8364L28.4923 21.8157L24.0307 26.4698H22.1V24.4408L26.513 19.8364ZM25.6866 17.4544C25.7576 17.3834 25.8359 17.3242 25.919 17.2767L27.1703 15.9711L27.1866 15.9544C28.5925 14.5485 30.8719 14.5485 32.2778 15.9544C33.6807 17.3573 33.6837 19.63 32.2868 21.0366L25.2941 28.3311C25.0866 28.5475 24.7998 28.6698 24.5 28.6698H21C20.3925 28.6698 19.9 28.1774 19.9 27.5698V23.9988C19.9 23.7151 20.0096 23.4424 20.2059 23.2376L25.4866 17.7279C25.5374 17.6294 25.6041 17.537 25.6866 17.4544Z" fill="#4E72BD"/>
</g>
<defs>
<clipPath id="clip0_448_111885">
<rect width="40" height="40" fill="white"/>
</clipPath>
</defs>
</svg>
