<svg width="40" height="40" viewBox="0 0 40 40" fill="none" xmlns="http://www.w3.org/2000/svg">
<rect width="40" height="40" rx="20" fill="url(#paint0_linear_202_20301)"/>
<path d="M22.6115 19.2392C24.6205 19.8645 26.2277 20.9806 27.4329 22.5878C28.6382 24.1949 29.2558 26.0476 29.2858 28.1456H10.7144C10.7444 26.0476 11.362 24.1949 12.5672 22.5878C13.7725 20.9806 15.3796 19.8645 17.3886 19.2392L20.0001 23.1456L22.6115 19.2392ZM24.6429 14.2171C24.6129 15.5266 24.1591 16.6204 23.2815 17.4985C22.4039 18.3766 21.3101 18.8304 20.0001 18.8599C18.6905 18.8299 17.5967 18.3761 16.7186 17.4985C15.8405 16.6209 15.3867 15.5271 15.3572 14.2171C15.3872 12.9076 15.841 11.8137 16.7186 10.9356C17.5963 10.0576 18.6901 9.60374 20.0001 9.57422C21.3096 9.60422 22.4034 10.058 23.2815 10.9356C24.1596 11.8133 24.6134 12.9071 24.6429 14.2171Z" fill="white"/>
<path d="M22.6115 19.2392C24.6206 19.8645 26.2277 20.9806 27.433 22.5878C28.6382 24.1949 29.2558 26.0476 29.2858 28.1456C29.3158 30.2437 10.6844 30.2437 10.7144 28.1456C10.7444 26.0476 11.362 24.1949 12.5672 22.5878C13.7725 20.9806 15.3796 19.8645 17.3887 19.2392L20.0001 23.1456L22.6115 19.2392ZM24.643 14.2171C24.613 15.5266 24.1592 16.6204 23.2815 17.4985C22.4039 18.3766 21.3101 18.8304 20.0001 18.8599C18.6906 18.8299 17.5968 18.3761 16.7187 17.4985C15.8406 16.6209 15.3868 15.5271 15.3572 14.2171C15.3872 12.9076 15.8411 11.8137 16.7187 10.9356C17.5963 10.0576 18.6901 9.60374 20.0001 9.57422C21.3096 9.60422 22.4034 10.058 23.2815 10.9356C24.1596 11.8133 24.6134 12.9071 24.643 14.2171Z" fill="#5C82B6"/>
<defs>
<linearGradient id="paint0_linear_202_20301" x1="20" y1="0" x2="20" y2="40" gradientUnits="userSpaceOnUse">
<stop stop-color="#F4F4FC"/>
<stop offset="1" stop-color="#E2E3ED"/>
</linearGradient>
</defs>
</svg>
