<svg width="44" height="44" viewBox="0 0 44 44" fill="none" xmlns="http://www.w3.org/2000/svg">
<rect width="44" height="44" rx="8" fill="#EDF2F2"/>
<path fill-rule="evenodd" clip-rule="evenodd" d="M12 12C11.4477 12 11 12.4477 11 13V22C11 22.5523 11.4477 23 12 23H20C20.5523 23 21 22.5523 21 22V13C21 12.4477 20.5523 12 20 12H12ZM24 21C23.4477 21 23 21.4477 23 22V31C23 31.5523 23.4477 32 24 32H32C32.5523 32 33 31.5523 33 31V22C33 21.4477 32.5523 21 32 21H24ZM23 13C23 12.4477 23.4477 12 24 12H32C32.5523 12 33 12.4477 33 13V18C33 18.5523 32.5523 19 32 19H24C23.4477 19 23 18.5523 23 18V13ZM12 25C11.4477 25 11 25.4477 11 26V31C11 31.5523 11.4477 32 12 32H20C20.5523 32 21 31.5523 21 31V26C21 25.4477 20.5523 25 20 25H12Z" fill="#4F88FF"/>
</svg>
