<svg width="40" height="40" viewBox="0 0 40 40" fill="none" xmlns="http://www.w3.org/2000/svg">
<g clip-path="url(#clip0_385_69482)">
<rect width="40" height="40" rx="20" fill="#EDEDED"/>
<path fill-rule="evenodd" clip-rule="evenodd" d="M19.2954 12C18.9611 12 18.6555 12.2041 18.506 12.5273L17.8674 13.9079H14.8826C14.3951 13.9079 14 14.335 14 14.8618C14 15.3887 14.3951 15.8158 14.8826 15.8158L14.8826 25.5369C14.8826 26.5906 15.6728 27.4448 16.6477 27.4448H23.7082C24.683 27.4448 25.4733 26.5906 25.4733 25.5369V15.8158C25.9607 15.8158 26.3559 15.3887 26.3559 14.8618C26.3559 14.335 25.9607 13.9079 25.4733 13.9079H22.4885L21.8499 12.5273C21.7004 12.2041 21.3948 12 21.0605 12H19.2954ZM17.5302 17.7237C17.5302 17.1968 17.9254 16.7697 18.4128 16.7697C18.9002 16.7697 19.2954 17.1968 19.2954 17.7237V23.629C19.2954 24.1559 18.9002 24.583 18.4128 24.583C17.9254 24.583 17.5302 24.1559 17.5302 23.629V17.7237ZM21.9431 16.7697C21.4556 16.7697 21.0605 17.1968 21.0605 17.7237V23.629C21.0605 24.1559 21.4556 24.583 21.9431 24.583C22.4305 24.583 22.8256 24.1559 22.8256 23.629V17.7237C22.8256 17.1968 22.4305 16.7697 21.9431 16.7697Z" fill="#8C9AAB"/>
</g>
<defs>
<clipPath id="clip0_385_69482">
<rect width="40" height="40" rx="20" fill="white"/>
</clipPath>
</defs>
</svg>
