<svg width="30" height="30" viewBox="0 0 30 30" fill="none" xmlns="http://www.w3.org/2000/svg">
<path fill-rule="evenodd" clip-rule="evenodd" d="M21.4306 22.9862C19.198 24.8669 16.315 26.0002 13.1673 26.0002C6.07965 26.0002 0.333984 20.2545 0.333984 13.1668C0.333984 6.07916 6.07965 0.333496 13.1673 0.333496C20.255 0.333496 26.0007 6.07916 26.0007 13.1668C26.0007 16.3148 24.8673 19.198 22.9863 21.4306L29.1575 27.6018C29.5155 27.9598 29.5155 28.5402 29.1575 28.8982L28.8982 29.1575C28.5402 29.5154 27.9598 29.5154 27.6018 29.1575L21.4306 22.9862ZM23.801 13.1667C23.801 19.0394 19.0403 23.8001 13.1677 23.8001C7.29504 23.8001 2.53434 19.0394 2.53434 13.1667C2.53434 7.2941 7.29504 2.53341 13.1677 2.53341C19.0403 2.53341 23.801 7.2941 23.801 13.1667Z" fill="black" fill-opacity="0.9"/>
</svg>
