<svg width="32" height="32" viewBox="0 0 32 32" fill="none" xmlns="http://www.w3.org/2000/svg">
<path fill-rule="evenodd" clip-rule="evenodd" d="M26.5928 11.3998L12.2619 19.7791L12.1764 19.8386C12.0593 19.8948 11.9313 19.9241 11.8015 19.9245C11.6531 19.9235 11.5077 19.8825 11.3804 19.8058C11.2531 19.7291 11.1487 19.6194 11.0781 19.4883L11.0254 19.3694L8.74329 14.3801C8.73012 14.3236 8.73012 14.2648 8.74329 14.2083C8.7415 14.1546 8.7506 14.101 8.77004 14.0509C8.78949 14.0009 8.81886 13.9553 8.85639 13.917C8.89391 13.8786 8.9388 13.8484 8.98833 13.828C9.03785 13.8077 9.09098 13.7977 9.14448 13.7986C9.23811 13.8038 9.32878 13.8334 9.40755 13.8845L12.0909 15.7811C12.302 15.9081 12.542 15.9786 12.788 15.9859C12.9352 15.9838 13.0805 15.9524 13.2155 15.8934L25.7904 10.2367C24.5097 8.7969 22.9331 7.65357 21.1697 6.88572C19.4063 6.11788 17.498 5.74381 15.5766 5.78936C8.71698 5.78936 3.12012 10.4878 3.12012 16.2899C3.16002 17.8589 3.57016 19.396 4.3168 20.7747C5.06344 22.1533 6.12522 23.3341 7.41477 24.2198C7.51869 24.2965 7.60403 24.3957 7.66439 24.5101C7.72475 24.6246 7.75858 24.7512 7.76334 24.8807C7.75872 24.9715 7.73871 25.0609 7.70415 25.145C7.50685 25.9314 7.15828 27.2134 7.15828 27.2729C7.12292 27.3773 7.10298 27.4864 7.09909 27.5967C7.09817 27.6504 7.10813 27.7038 7.12838 27.7536C7.14863 27.8033 7.17875 27.8484 7.21689 27.8861C7.25503 27.9238 7.3004 27.9534 7.35025 27.9729C7.40009 27.9924 7.45337 28.0016 7.50685 27.9998C7.59185 28.0028 7.6746 27.9719 7.73704 27.9139L10.4467 26.3081C10.646 26.1869 10.8718 26.1165 11.1044 26.1032C11.231 26.1106 11.3565 26.1305 11.4792 26.1627C12.7988 26.5535 14.168 26.7494 15.5437 26.7442C22.4099 26.7442 28.0002 22.0523 28.0002 16.2437C27.9851 14.5294 27.498 12.8529 26.5928 11.3998Z" fill="white"/>
</svg>
