<svg width="40" height="40" viewBox="0 0 40 40" fill="none" xmlns="http://www.w3.org/2000/svg">
<rect x="4" y="4" width="32" height="32" rx="6.85714" fill="#FF9E2D"/>
<path fill-rule="evenodd" clip-rule="evenodd" d="M28.1906 13.2428C28.9717 12.4618 28.9717 11.1954 28.1906 10.4144C27.4096 9.63335 26.1433 9.63335 25.3622 10.4144L20.4142 15.3624C20.2255 15.5511 20.0823 15.7682 19.9848 16H19.7776C19.7076 15.897 19.627 15.7991 19.5357 15.7078L14.2426 10.4147C13.4616 9.63365 12.1953 9.63365 11.4142 10.4147C10.6332 11.1958 10.6332 12.4621 11.4142 13.2431L14.171 16H13C11.8954 16 11 16.8954 11 18C11 19.1045 11.8954 20 13 20H18V22H13C11.8954 22 11 22.8954 11 24C11 25.1045 11.8954 26 13 26H18V29C18 30.1046 18.8954 31 20 31C21.1046 31 22 30.1046 22 29V26H27C28.1046 26 29 25.1045 29 24C29 22.8954 28.1046 22 27 22H22V20H27C28.1046 20 29 19.1045 29 18C29 16.8954 28.1046 16 27 16H25.4335L28.1906 13.2428Z" fill="white"/>
</svg>
