<svg width="40" height="40" viewBox="0 0 40 40" fill="none" xmlns="http://www.w3.org/2000/svg">
<rect width="40" height="40" rx="7.27273" fill="#5D72DE"/>
<path d="M24.5455 23.5354H26.0606V28.1819C26.0606 28.684 25.6536 29.091 25.1515 29.091H14.8485C14.3464 29.091 13.9394 28.684 13.9394 28.1819V23.5354H15.4546V26.0607H24.5455V23.5354ZM29.0197 19.937C29.0672 20.1107 29.0909 20.3001 29.0909 20.5051C29.0753 21.1521 28.8543 21.6887 28.4281 22.115C28.0018 22.5413 27.4652 22.7544 26.8182 22.7544C26.1712 22.7544 25.6346 22.5413 25.2084 22.115C24.7821 21.6887 24.5611 21.1521 24.5455 20.5051C24.5298 21.1521 24.3089 21.6887 23.8826 22.115C23.4563 22.5413 22.9197 22.7544 22.2728 22.7544C21.6258 22.7544 21.0892 22.5413 20.6629 22.115C20.2366 21.6887 20.0157 21.1521 20 20.5051C19.9844 21.1521 19.7634 21.6887 19.3371 22.115C18.9109 22.5413 18.3743 22.7544 17.7273 22.7544C17.0803 22.7544 16.5437 22.5413 16.1175 22.115C15.6912 21.6887 15.4702 21.1521 15.4546 20.5051C15.4389 21.1521 15.218 21.6887 14.7917 22.115C14.3654 22.5413 13.8288 22.7544 13.1818 22.7544C12.5349 22.7544 11.9983 22.5413 11.572 22.115C11.1457 21.6887 10.9248 21.1521 10.9091 20.5051C10.9091 20.3001 10.9329 20.1107 10.9803 19.937L12.3018 11.6747C12.3724 11.2336 12.7529 10.9092 13.1995 10.9092H26.8005C27.2472 10.9092 27.6277 11.2336 27.6982 11.6747L29.0197 19.937Z" fill="white"/>
</svg>
