<svg width="20" height="20" viewBox="0 0 20 20" fill="none" xmlns="http://www.w3.org/2000/svg">
<rect x="2" y="2" width="16" height="16" rx="3.42857" fill="#4C8DE1"/>
<path d="M11.2655 10.1838C12.2392 10.4868 13.018 11.0277 13.6021 11.8066C14.1862 12.5854 14.4855 13.4832 14.5 14.5H5.5C5.51454 13.4832 5.81385 12.5854 6.39792 11.8066C6.982 11.0277 7.76085 10.4868 8.73446 10.1838L10 12.0769L11.2655 10.1838ZM12.25 7.75C12.2355 8.38461 12.0155 8.91469 11.5902 9.34023C11.1649 9.76577 10.6348 9.98569 10 10C9.36538 9.98546 8.83531 9.76554 8.40977 9.34023C7.98423 8.91492 7.76431 8.38485 7.75 7.75C7.76454 7.11538 7.98446 6.58531 8.40977 6.15977C8.83508 5.73423 9.36515 5.51431 10 5.5C10.6346 5.51454 11.1647 5.73446 11.5902 6.15977C12.0158 6.58508 12.2357 7.11515 12.25 7.75Z" fill="white"/>
</svg>
