<svg width="26" height="26" viewBox="0 0 26 26" fill="none" xmlns="http://www.w3.org/2000/svg">
<rect width="26" height="26" rx="13" fill="#C2C8CF"/>
<path fill-rule="evenodd" clip-rule="evenodd" d="M17.3012 10.7349C17.8452 10.191 17.8452 9.30905 17.3012 8.7651C16.7573 8.22116 15.8754 8.22115 15.3314 8.7651L13.0663 11.0302L10.9136 8.87748C10.3697 8.33353 9.48776 8.33353 8.94381 8.87748C8.39987 9.42142 8.39987 10.3033 8.94381 10.8473L11.0965 13L8.76545 15.3311C8.2215 15.875 8.2215 16.7569 8.76544 17.3009C9.30939 17.8448 10.1913 17.8448 10.7352 17.3009L13.0663 14.9698L15.5098 17.4133C16.0537 17.9572 16.9357 17.9572 17.4796 17.4133C18.0235 16.8693 18.0235 15.9874 17.4796 15.4435L15.0361 13L17.3012 10.7349Z" fill="white"/>
</svg>
