<svg width="34" height="34" viewBox="0 0 34 34" fill="none" xmlns="http://www.w3.org/2000/svg">
<circle cx="17" cy="17" r="15.6579" stroke="#F13030" stroke-width="2.68421"/>
<path fill-rule="evenodd" clip-rule="evenodd" d="M17.5 7.00001C16.6715 7.00001 16 7.67158 16 8.50001L16 19.5C16 20.3284 16.6715 21 17.5 21C18.3284 21 19 20.3284 19 19.5L19 8.50001C19 7.67158 18.3284 7.00001 17.5 7.00001ZM17.5 22.9999C16.6716 22.9999 16 23.6715 16 24.4999C16 25.3283 16.6716 25.9999 17.5 25.9999C18.3284 25.9999 19 25.3283 19 24.4999C19 23.6715 18.3284 22.9999 17.5 22.9999Z" fill="#F13030"/>
</svg>
