<svg width="34" height="34" viewBox="0 0 34 34" fill="none" xmlns="http://www.w3.org/2000/svg">
<circle cx="17" cy="17" r="15.6579" stroke="#F13030" stroke-width="2.68421"/>
<path fill-rule="evenodd" clip-rule="evenodd" d="M22.981 23.0607C23.5668 22.4749 23.5668 21.5251 22.981 20.9393L19.163 17.1213L23.1023 13.182C23.6881 12.5962 23.6881 11.6464 23.1023 11.0607C22.5165 10.4749 21.5668 10.4749 20.981 11.0607L17.0416 15L13.0815 11.0398C12.4957 10.4541 11.5459 10.4541 10.9602 11.0398C10.3744 11.6256 10.3744 12.5754 10.9602 13.1612L14.9203 17.1213L11.0815 20.9602C10.4957 21.5459 10.4957 22.4957 11.0815 23.0815C11.6673 23.6673 12.617 23.6673 13.2028 23.0815L17.0416 19.2426L20.8597 23.0607C21.4454 23.6464 22.3952 23.6464 22.981 23.0607Z" fill="#F13030"/>
</svg>
