<svg width="210" height="61" viewBox="0 0 210 61" fill="none" xmlns="http://www.w3.org/2000/svg">
<path d="M94.5438 52.8574H99.0679C99.8049 50.4363 101.436 47.6256 102.056 44.4254C102.676 41.2252 103.087 37.9831 103.288 34.7008H107.358V52.859H111.681V51.7145H131.118V48.9843H123.747V43.5787H130.282V40.8131H123.747V35.4075H130.282V32.6773H123.747V27.2717H131.097V24.5061H123.797L122.037 20.9791H117.715L119.424 24.5061H112.637C113.072 23.273 113.408 22.085 113.642 20.9453H109.319C108.548 24.6236 105.819 29.1744 103.037 34.5977H99.0647C98.8634 37.2989 98.4284 40.2947 97.7579 43.5899C97.0875 46.8803 95.3814 49.9711 94.5438 52.8574ZM111.683 48.9811V43.5755H119.424V48.9811H111.683ZM111.683 40.8099V35.4042H119.424V40.8099H111.683ZM99.016 29.5656H103.288L100.975 20.9404H96.6525L99.016 29.5656ZM111.683 32.6741V29.3563H110.829L111.181 28.4838C111.348 28.112 111.533 27.8737 111.734 27.2684H119.426V32.6741H111.683Z" fill="#222222"/>
<path d="M156.878 52.8577H161.804C162.709 51.8806 163.697 50.6813 164.77 49.2615C165.876 50.6813 166.932 51.8806 167.937 52.8577H172.814C170.736 50.7393 168.841 48.3649 167.132 45.7345C169.914 40.939 171.306 36.5636 171.306 32.6052V28.1703H172.814V25.6558H163.613C164.082 23.8641 164.45 22.2914 164.718 20.9424H160.446C160.077 22.9208 159.566 24.8187 158.912 26.6345C158.257 28.4504 157.579 30.0102 156.876 31.3142H161.501C161.903 30.5688 162.338 29.5225 162.808 28.1719H167.03V32.6068C167.03 35.2839 166.242 38.2281 164.666 41.4412C163.359 38.695 162.705 36.1692 162.705 33.864V31.8744H158.382V33.8994C158.382 37.5552 159.689 41.5008 162.304 45.7361C160.631 48.3874 158.821 50.7618 156.878 52.8577ZM136.869 52.8577H143.203C144.276 52.4859 145.432 51.9965 146.672 51.3912C147.778 51.9965 148.851 52.4859 149.889 52.8577H156.274C153.928 51.9498 151.716 50.9019 149.638 49.7155C152.922 47.5503 154.565 45.3272 154.565 43.0462V42.6969H156.676V40.1824H154.565V39.2053H150.441V40.1824H143.403V39.2053H139.33V40.1824H136.465V42.6969H139.33V43.0462C139.33 45.3047 140.838 47.5149 143.854 49.6801C141.677 50.889 139.349 51.9498 136.869 52.8577ZM146.823 47.8288C144.544 46.1064 143.404 44.4644 143.404 42.9045V42.6953H150.443V42.9045C150.443 44.466 149.235 46.1064 146.823 47.8288ZM136.215 38.4358H140.789C141.426 37.4345 141.921 36.2304 142.273 34.8218C142.625 33.4133 142.867 32.0337 143.002 30.6847H138.979C138.744 31.9645 138.384 33.3038 137.898 34.7011C137.413 36.0968 136.851 37.3411 136.215 38.4358ZM144.309 38.505H148.631V33.1622H150.29C150.659 35.2806 151.279 37.0385 152.151 38.4342H156.725C156.089 37.3395 155.527 36.0952 155.04 34.6979C154.553 33.3006 154.193 31.9629 153.959 30.6815H148.63V29.669H156.321V27.1577H148.63V20.9424H144.307V27.1577H136.616V29.6722H144.307V38.505H144.309ZM138.981 26.6329H143.104L141.043 22.2334H136.919L138.981 26.6329ZM149.839 26.6329H153.962L156.024 22.2334H151.901L149.839 26.6329Z" fill="#222222"/>
<path d="M178.291 48.8415H183.222C184.662 47.0724 186.154 45.6397 187.696 43.2878C189.237 40.9359 190.561 37.5667 191.668 35.2148H209.768V31.3159H177.883V35.2148H186.936C185.897 37.3091 184.599 40.5593 183.04 42.9208C181.482 45.2839 179.899 46.839 178.291 48.8415ZM210 52.5006L207.343 43.2927H202.588L204.851 49.0074L178.291 48.8415L178.039 52.7259L210 52.5006ZM180.047 26.2387H207.503V22.3398H180.047V26.2387Z" fill="#222222"/>
<path fill-rule="evenodd" clip-rule="evenodd" d="M84.4273 38.4752C84.4273 26.9492 75.2655 17.5353 63.7353 16.9332C61.5828 7.24881 52.8397 0 42.3776 0C31.8993 0 23.1433 7.27296 21.0103 16.9799C9.8031 17.9103 1 27.1778 1 38.4752C1 50.3521 10.73 59.9866 22.7537 60.0462V60.0478H62.6736V60.0462C74.699 59.9866 84.4273 50.3521 84.4273 38.4752Z" fill="white"/>
<path fill-rule="evenodd" clip-rule="evenodd" d="M45.3013 24.75H46.3824C48.715 24.75 50.6045 26.6254 50.6045 28.937V48.9417C50.6045 50.6239 49.2296 51.989 47.5317 51.989H45.2996C42.5741 51.989 40.3665 49.7981 40.3665 47.0969V29.6421C40.3665 26.9393 42.5758 24.75 45.3013 24.75Z" fill="#4F88FF"/>
<path fill-rule="evenodd" clip-rule="evenodd" d="M40.9489 46.3412L65.0223 22.4683C65.3144 22.1785 65.7885 22.1785 66.0823 22.4683C66.0823 22.4683 71.1615 27.5053 72.4813 28.814C72.7102 29.136 72.5641 29.2696 72.4959 29.4145C69.9765 31.9128 51.1902 50.5444 51.1902 50.5444C49.2406 52.4777 46.0785 52.4777 44.1273 50.5444L40.9489 47.3908C40.6551 47.101 40.6551 46.631 40.9489 46.3412Z" fill="#4F88FF"/>
<path fill-rule="evenodd" clip-rule="evenodd" d="M17.7149 32.2757L30.0065 44.4649C30.2694 44.7257 30.2694 45.1474 30.0065 45.4082L23.7195 51.6428C23.4565 51.9036 23.0312 51.9036 22.7682 51.6428L10.4751 39.4553C10.2121 39.1945 10.2121 38.7727 10.4751 38.5119L16.7621 32.2757C17.025 32.0149 17.452 32.0149 17.7149 32.2757Z" fill="#F13030"/>
<path fill-rule="evenodd" clip-rule="evenodd" d="M16.6486 44.4133L37.5469 23.689C40.175 21.0828 44.4345 21.0828 47.061 23.689L49.543 26.1504L23.8869 51.5929C23.6239 51.8536 23.1986 51.8536 22.9356 51.5929L16.6486 45.3582C16.3857 45.0974 16.3857 44.674 16.6486 44.4133Z" fill="#F13030"/>
</svg>
