<svg width="670" height="72" viewBox="0 0 670 72" fill="none" xmlns="http://www.w3.org/2000/svg">
<g clip-path="url(#clip0_1017_52025)">
<rect x="0.473684" y="0.473684" width="669.053" height="71.0526" rx="3.31579" fill="#FFF7F1" stroke="#F8DDC9" stroke-width="0.947368"/>
<path fill-rule="evenodd" clip-rule="evenodd" d="M629 60.3854C629 43.4941 615.602 29.6979 598.741 28.8156C595.593 14.6231 582.808 4 567.509 4C552.186 4 539.381 14.6585 536.262 28.884C519.873 30.2476 507 43.8291 507 60.3854C507 77.791 521.229 91.9104 538.812 91.9976V92H597.188V91.9976C614.774 91.9104 629 77.791 629 60.3854Z" fill="#FFEADA"/>
<path fill-rule="evenodd" clip-rule="evenodd" d="M571.784 40.2708H573.365C576.776 40.2708 579.539 43.0192 579.539 46.4069V75.7237C579.539 78.189 577.528 80.1895 575.045 80.1895H571.781C567.796 80.1895 564.567 76.9788 564.567 73.0202V47.4402C564.567 43.4792 567.798 40.2708 571.784 40.2708Z" fill="#FFF7F1"/>
<path fill-rule="evenodd" clip-rule="evenodd" d="M565.419 71.9131L600.623 36.9273C601.05 36.5027 601.743 36.5027 602.173 36.9273C602.173 36.9273 609.601 44.309 611.531 46.227C611.865 46.6988 611.652 46.8946 611.552 47.107C607.868 50.7683 580.396 78.0728 580.396 78.0728C577.545 80.9061 572.92 80.9061 570.067 78.0728L565.419 73.4513C564.99 73.0266 564.99 72.3378 565.419 71.9131Z" fill="#FFF7F1"/>
<path fill-rule="evenodd" clip-rule="evenodd" d="M531.443 51.3002L549.418 69.1635C549.802 69.5457 549.802 70.1638 549.418 70.546L540.224 79.6828C539.839 80.065 539.217 80.065 538.833 79.6828L520.856 61.8219C520.471 61.4398 520.471 60.8217 520.856 60.4395L530.05 51.3002C530.434 50.9181 531.058 50.9181 531.443 51.3002Z" fill="#FFF7F1"/>
<path fill-rule="evenodd" clip-rule="evenodd" d="M529.884 69.0876L560.444 38.7163C564.287 34.8969 570.516 34.8969 574.357 38.7163L577.987 42.3234L540.468 79.6093C540.084 79.9915 539.462 79.9915 539.077 79.6093L529.884 70.4724C529.499 70.0902 529.499 69.4698 529.884 69.0876Z" fill="#FFF7F1"/>
</g>
<defs>
<clipPath id="clip0_1017_52025">
<rect width="670" height="72" fill="white"/>
</clipPath>
</defs>
</svg>
