<svg width="70" height="70" viewBox="0 0 70 70" fill="none" xmlns="http://www.w3.org/2000/svg">
<rect width="70" height="70" rx="35" fill="#F6F6F6"/>
<path d="M37 28C37 24.685 34.315 22 31 22C27.685 22 25 24.685 25 28C25 31.315 27.685 34 31 34C34.315 34 37 31.315 37 28ZM41.5 31C40.6716 31 40 31.6716 40 32.5C40 33.3284 40.6716 34 41.5 34H44.5V37C44.5 37.8284 45.1716 38.5 46 38.5C46.8284 38.5 47.5 37.8284 47.5 37V34H50.5C51.3284 34 52 33.3284 52 32.5C52 31.6716 51.3284 31 50.5 31H47.5V28C47.5 27.1716 46.8284 26.5 46 26.5C45.1716 26.5 44.5 27.1716 44.5 28V31H41.5ZM19 43V46H43V43C43 39.01 35.005 37 31 37C26.995 37 19 39.01 19 43Z" fill="#222222"/>
</svg>
