<svg width="28" height="28" viewBox="0 0 28 28" fill="none" xmlns="http://www.w3.org/2000/svg">
<circle cx="14" cy="14" r="14" fill="#F0F0F0"/>
<path fill-rule="evenodd" clip-rule="evenodd" d="M19.5569 8.10771C19.1013 7.6521 18.3626 7.6521 17.907 8.10771L13.7822 12.2325L9.65744 8.10771C9.20183 7.6521 8.46313 7.6521 8.00752 8.10771C7.55191 8.56332 7.55191 9.30202 8.00752 9.75763L12.1323 13.8824L8.00752 18.0072C7.55191 18.4628 7.55191 19.2015 8.00752 19.6571C8.46313 20.1127 9.20183 20.1127 9.65744 19.6571L13.7822 15.5323L17.907 19.6571C18.3626 20.1127 19.1013 20.1127 19.5569 19.6571C20.0125 19.2015 20.0125 18.4628 19.5569 18.0072L15.4321 13.8824L19.5569 9.75763C20.0125 9.30202 20.0125 8.56332 19.5569 8.10771Z" fill="black" fill-opacity="0.9"/>
</svg>
