<svg width="30" height="30" viewBox="0 0 30 30" fill="none" xmlns="http://www.w3.org/2000/svg">
<path fill-rule="evenodd" clip-rule="evenodd" d="M18.2083 18.2421V13.6713C19.1824 12.965 19.851 12.0731 20.214 10.9957C20.577 9.91837 20.5721 8.81752 20.1993 7.69319C19.8266 6.56885 19.1724 5.67223 18.2367 5.00334C17.3011 4.33445 16.2222 4 15 4C13.7778 4 12.6989 4.33445 11.7633 5.00334C10.8276 5.67223 10.1734 6.56885 9.80067 7.69319C9.42789 8.81752 9.423 9.91837 9.786 10.9957C10.149 12.0731 10.8176 12.965 11.7917 13.6713V18.2421H7.66667C6.63572 18.2611 5.77161 18.6095 5.07433 19.2873C4.37706 19.9652 4.01894 20.8059 4 21.8095H26C25.9804 20.8065 25.6223 19.9658 24.9257 19.2873C24.229 18.6089 23.3649 18.2605 22.3333 18.2421H18.2083ZM26 25.9995V23.9043H4V25.9995H26Z" fill="#B17D3C"/>
</svg>
