<svg width="32" height="32" viewBox="0 0 32 32" fill="none" xmlns="http://www.w3.org/2000/svg">
<rect x="1.33333" y="1.33333" width="29.3333" height="29.3333" rx="14.6667" stroke="#555555" stroke-width="2.66667"/>
<path fill-rule="evenodd" clip-rule="evenodd" d="M17.2548 10.1436C17.2548 9.45051 16.6929 8.88867 15.9999 8.88867C15.3068 8.88867 14.745 9.45051 14.745 10.1436V14.7449H10.1436C9.45051 14.7449 8.88867 15.3067 8.88867 15.9998C8.88867 16.6929 9.45051 17.2547 10.1436 17.2547H14.745V21.856C14.745 22.5491 15.3068 23.1109 15.9999 23.1109C16.6929 23.1109 17.2548 22.5491 17.2548 21.856V17.2547H21.856C22.5491 17.2547 23.1109 16.6929 23.1109 15.9998C23.1109 15.3067 22.5491 14.7449 21.856 14.7449H17.2548V10.1436Z" fill="#555555"/>
</svg>
