<svg width="200" height="200" viewBox="0 0 200 200" fill="none" xmlns="http://www.w3.org/2000/svg">
<ellipse cx="99.75" cy="140.822" rx="86.75" ry="16.637" fill="#EFEFEF"/>
<path d="M63.3093 40.9677L34.1393 72.7895C33.5366 73.447 33.2023 74.3065 33.2023 75.1985V109.925C33.2023 111.894 34.7984 113.49 36.7673 113.49H162.733C164.702 113.49 166.298 111.894 166.298 109.925V75.4049C166.298 74.4597 165.923 73.5531 165.255 72.8846L133.24 40.8564C132.572 40.1875 131.665 39.8116 130.719 39.8116H65.9373C64.938 39.8116 63.9845 40.2311 63.3093 40.9677Z" fill="#F5F5F5" stroke="#CACACA" stroke-width="2.37671"/>
<mask id="path-3-inside-1_261_15199" fill="white">
<path fill-rule="evenodd" clip-rule="evenodd" d="M72.4178 74.2734H32.0137V133.691C32.0137 137.629 35.2059 140.821 39.1438 140.821H160.356C164.294 140.821 167.486 137.629 167.486 133.691V74.2734H124.705V80.8985C124.705 86.149 120.449 90.4053 115.199 90.4053H81.9246C76.6741 90.4053 72.4178 86.149 72.4178 80.8985V74.2734Z"/>
</mask>
<path fill-rule="evenodd" clip-rule="evenodd" d="M72.4178 74.2734H32.0137V133.691C32.0137 137.629 35.2059 140.821 39.1438 140.821H160.356C164.294 140.821 167.486 137.629 167.486 133.691V74.2734H124.705V80.8985C124.705 86.149 120.449 90.4053 115.199 90.4053H81.9246C76.6741 90.4053 72.4178 86.149 72.4178 80.8985V74.2734Z" fill="white"/>
<path d="M32.0137 74.2734V71.8967H29.637V74.2734H32.0137ZM72.4178 74.2734H74.7945V71.8967H72.4178V74.2734ZM167.486 74.2734H169.863V71.8967H167.486V74.2734ZM124.705 74.2734V71.8967H122.329V74.2734H124.705ZM32.0137 76.6501H72.4178V71.8967H32.0137V76.6501ZM34.3904 133.691V74.2734H29.637V133.691H34.3904ZM39.1438 138.445C36.5186 138.445 34.3904 136.316 34.3904 133.691H29.637C29.637 138.942 33.8933 143.198 39.1438 143.198V138.445ZM160.356 138.445H39.1438V143.198H160.356V138.445ZM165.11 133.691C165.11 136.316 162.981 138.445 160.356 138.445V143.198C165.607 143.198 169.863 138.942 169.863 133.691H165.11ZM165.11 74.2734V133.691H169.863V74.2734H165.11ZM124.705 76.6501H167.486V71.8967H124.705V76.6501ZM122.329 74.2734V80.8985H127.082V74.2734H122.329ZM122.329 80.8985C122.329 84.8363 119.136 88.0286 115.199 88.0286V92.782C121.762 92.782 127.082 87.4616 127.082 80.8985H122.329ZM115.199 88.0286H81.9246V92.782H115.199V88.0286ZM81.9246 88.0286C77.9868 88.0286 74.7945 84.8363 74.7945 80.8985H70.0411C70.0411 87.4616 75.3615 92.782 81.9246 92.782V88.0286ZM74.7945 80.8985V74.2734H70.0411V80.8985H74.7945Z" fill="#CACACA" mask="url(#path-3-inside-1_261_15199)"/>
</svg>
