<svg width="32" height="32" viewBox="0 0 32 32" fill="none" xmlns="http://www.w3.org/2000/svg">
<g clip-path="url(#clip0_258_16068)">
<path d="M15.9818 0.76123C7.57034 0.76123 0.758911 7.5879 0.758911 15.9993C0.758911 24.4108 7.57034 31.2374 15.9818 31.2374C24.4084 31.2374 31.2351 24.4108 31.2351 15.9993C31.2351 7.5879 24.4084 0.76123 15.9818 0.76123ZM15.997 28.1898C9.26177 28.1898 3.80653 22.7346 3.80653 15.9993C3.80653 9.26409 9.26177 3.80885 15.997 3.80885C22.7322 3.80885 28.1875 9.26409 28.1875 15.9993C28.1875 22.7346 22.7322 28.1898 15.997 28.1898Z" fill="#A0AEC0"/>
<path d="M16.759 9.38184C16.759 8.82955 16.3113 8.38184 15.759 8.38184H15.4733C14.921 8.38184 14.4733 8.82955 14.4733 9.38184V16.9585C14.4733 17.3098 14.6576 17.6353 14.9588 17.816L21.6219 21.8139C22.0931 22.0966 22.7041 21.9461 22.9902 21.477L23.0892 21.3146C23.3792 20.839 23.2247 20.2182 22.7457 19.9339L17.2487 16.6724C16.9451 16.4923 16.759 16.1654 16.759 15.8124V9.38184Z" fill="#A0AEC0"/>
</g>
<defs>
<clipPath id="clip0_258_16068">
<rect width="32" height="32" fill="white"/>
</clipPath>
</defs>
</svg>
