<svg width="70" height="70" viewBox="0 0 70 70" fill="none" xmlns="http://www.w3.org/2000/svg">
<rect width="70" height="70" rx="6" fill="#F6F6F6"/>
<rect x="20.5" y="20.5" width="29" height="29" rx="14.5" stroke="#999999" stroke-width="3"/>
<path fill-rule="evenodd" clip-rule="evenodd" d="M36.5877 28.3897C36.5877 27.6222 35.9655 27 35.198 27C34.4305 27 33.8083 27.6222 33.8083 28.3897V33.4123H28.3897C27.6222 33.4123 27 34.0345 27 34.802C27 35.5695 27.6222 36.1917 28.3897 36.1917H33.8083V41.6103C33.8083 42.3778 34.4305 43 35.198 43C35.9655 43 36.5877 42.3778 36.5877 41.6103V36.1917H41.6103C42.3778 36.1917 43 35.5695 43 34.802C43 34.0345 42.3778 33.4123 41.6103 33.4123H36.5877V28.3897Z" fill="#999999"/>
</svg>
