<svg width="300" height="190" viewBox="0 0 300 190" fill="none" xmlns="http://www.w3.org/2000/svg">
<rect x="1" y="1" width="298" height="188" rx="18" fill="url(#paint0_linear_123_38508)" stroke="#D3DAED" stroke-width="2" stroke-dasharray="2 2"/>
<path fill-rule="evenodd" clip-rule="evenodd" d="M240 48C239.448 48 239 48.4477 239 49V69C239 69.5523 239.448 70 240 70H260C260.552 70 261 69.5523 261 69V49C261 48.4477 260.552 48 260 48H240ZM38 55C38 54.4477 38.4477 54 39 54H59C59.5523 54 60 54.4477 60 55V60C60 60.5523 59.5523 61 59 61H39C38.4477 61 38 60.5523 38 60V55ZM108 55C108 54.4477 108.448 54 109 54H190C190.552 54 191 54.4477 191 55V65C191 65.5523 190.552 66 190 66H109C108.448 66 108 65.5523 108 65V55ZM35 82C35 81.4477 35.4477 81 36 81H135C135.552 81 136 81.4477 136 82V92C136 92.5523 135.552 93 135 93H36C35.4477 93 35 92.5523 35 92V82ZM36 105C35.4477 105 35 105.448 35 106V116C35 116.552 35.4477 117 36 117H135C135.552 117 136 116.552 136 116V106C136 105.448 135.552 105 135 105H36ZM35 126C35 125.448 35.4477 125 36 125H135C135.552 125 136 125.448 136 126V132C136 132.552 135.552 133 135 133H36C35.4477 133 35 132.552 35 132V126ZM36 141C35.4477 141 35 141.448 35 142V148C35 148.552 35.4477 149 36 149H98C98.5523 149 99 148.552 99 148V142C99 141.448 98.5523 141 98 141H36Z" fill="#E8E8DD"/>
<rect x="115" y="60" width="70" height="70" rx="35" fill="url(#paint1_linear_123_38508)"/>
<path d="M145.8 81L143.238 83.7778H138.8C137.26 83.7778 136 85.0278 136 86.5556V103.222C136 104.75 137.26 106 138.8 106H161.2C162.74 106 164 104.75 164 103.222V86.5556C164 85.0278 162.74 83.7778 161.2 83.7778H156.762L154.2 81H145.8ZM150 101.833C146.136 101.833 143 98.7222 143 94.8889C143 91.0556 146.136 87.9444 150 87.9444C153.864 87.9444 157 91.0556 157 94.8889C157 98.7222 153.864 101.833 150 101.833Z" fill="white"/>
<path fill-rule="evenodd" clip-rule="evenodd" d="M220 134C220 119.641 231.641 108 246 108C260.359 108 272 119.641 272 134C272 148.359 260.359 160 246 160C231.641 160 220 148.359 220 134ZM223 134C223 121.297 233.297 111 246 111C258.703 111 269 121.297 269 134C269 146.703 258.703 157 246 157C233.297 157 223 146.703 223 134ZM244 116C244 114.895 244.895 114 246 114H247C248.105 114 249 114.895 249 116V117C249 118.105 248.105 119 247 119H246C244.895 119 244 118.105 244 117V116ZM235 118C235 116.895 235.895 116 237 116H238C239.105 116 240 116.895 240 118V119C240 120.105 239.105 121 238 121H237C235.895 121 235 120.105 235 119V118ZM231 122C229.895 122 229 122.895 229 124V125C229 126.105 229.895 127 231 127H232C233.105 127 234 126.105 234 125V124C234 122.895 233.105 122 232 122H231ZM246.5 125L248.857 132.255H256.486L250.314 136.739L252.672 143.995L246.5 139.511L240.328 143.995L242.686 136.739L236.514 132.255H244.143L246.5 125ZM225 131C225 129.895 225.895 129 227 129H228C229.105 129 230 129.895 230 131V132C230 133.105 229.105 134 228 134H227C225.895 134 225 133.105 225 132V131ZM254 116C252.895 116 252 116.895 252 118V119C252 120.105 252.895 121 254 121H255C256.105 121 257 120.105 257 119V118C257 116.895 256.105 116 255 116H254ZM260 122C258.895 122 258 122.895 258 124V125C258 126.105 258.895 127 260 127H261C262.105 127 263 126.105 263 125V124C263 122.895 262.105 122 261 122H260ZM262 131C262 129.895 262.895 129 264 129H265C266.105 129 267 129.895 267 131V132C267 133.105 266.105 134 265 134H264C262.895 134 262 133.105 262 132V131Z" fill="#E8E8DD"/>
<mask id="path-6-inside-1_123_38508" fill="white">
<rect x="17" y="20" width="269" height="152" rx="3"/>
</mask>
<rect x="17" y="20" width="269" height="152" rx="3" stroke="#E8E8DD" stroke-width="10" mask="url(#path-6-inside-1_123_38508)"/>
<path d="M139.348 42.931L139.708 37.2858L161.933 37.0977L162.652 42.931C162.652 42.931 159.978 43.8718 157.258 45.0009L155.82 42.931H145.281L144.202 45.0009L139.348 42.931Z" fill="#E8E8DD"/>
<rect x="134" y="10" width="34" height="33.4946" rx="16.7473" fill="#E8E8DD"/>
<rect x="138.202" y="19.4082" width="25.2135" height="24.8387" rx="12.4194" fill="#E8E8DD"/>
<rect x="138.584" y="14.5156" width="24.8315" height="24.4624" rx="12.2312" fill="#FFFFF7"/>
<rect x="147.753" y="36.7207" width="6.11236" height="6.02151" rx="3.01075" fill="#E8E8DD"/>
<rect x="138.202" y="32.5801" width="25.2135" height="1.50538" fill="#E8E8DD"/>
<path d="M145.982 28.8164H155.636L156.539 32.9562H145.079L145.982 28.8164Z" fill="#E8E8DD"/>
<path d="M151.001 18.8552C151.061 18.672 151.321 18.672 151.381 18.8552L151.746 19.9623C151.773 20.0442 151.85 20.0996 151.936 20.0996H153.111C153.306 20.0996 153.386 20.3491 153.228 20.4623L152.282 21.1391C152.211 21.19 152.181 21.2812 152.209 21.3643L152.571 22.4631C152.632 22.6468 152.422 22.801 152.265 22.6884L151.307 22.0033C151.238 21.9535 151.144 21.9535 151.075 22.0033L150.117 22.6884C149.96 22.801 149.751 22.6468 149.811 22.4631L150.173 21.3643C150.201 21.2812 150.171 21.19 150.1 21.1391L149.154 20.4623C148.996 20.3491 149.076 20.0996 149.271 20.0996H150.446C150.532 20.0996 150.609 20.0442 150.636 19.9623L151.001 18.8552Z" fill="#E8E8DD"/>
<path d="M145.231 21.8623C145.343 21.7045 145.591 21.7793 145.595 21.9718L145.601 22.3428C145.603 22.429 145.66 22.504 145.742 22.5289L146.098 22.6359C146.284 22.6919 146.287 22.953 146.102 23.0157L145.756 23.1331C145.673 23.1613 145.617 23.2397 145.619 23.3268L145.625 23.6906C145.629 23.8836 145.382 23.9701 145.265 23.817L145.038 23.5197C144.986 23.4519 144.896 23.4248 144.814 23.4525L144.457 23.5737C144.273 23.6361 144.118 23.4285 144.23 23.2704L144.442 22.9724C144.493 22.901 144.491 22.8055 144.438 22.7364L144.218 22.4484C144.1 22.2946 144.251 22.0798 144.437 22.1358L144.792 22.2428C144.875 22.2677 144.965 22.2368 145.015 22.1662L145.231 21.8623Z" fill="#E8E8DD"/>
<path d="M148.476 24.61C148.547 24.4305 148.805 24.4452 148.855 24.6315L148.951 24.9912C148.973 25.0746 149.046 25.1342 149.133 25.1391L149.503 25.1601C149.697 25.1711 149.763 25.4246 149.598 25.5287L149.291 25.7228C149.217 25.7696 149.182 25.8591 149.205 25.9436L149.298 26.2948C149.348 26.4817 149.13 26.6237 148.979 26.5024L148.686 26.2659C148.619 26.2123 148.526 26.207 148.453 26.2528L148.135 26.4545C147.971 26.558 147.771 26.3923 147.842 26.2123L147.976 25.8739C148.008 25.7925 147.984 25.6997 147.915 25.6448L147.633 25.4173C147.482 25.2953 147.576 25.0508 147.771 25.0618L148.141 25.0829C148.227 25.0877 148.307 25.0368 148.339 24.9565L148.476 24.61Z" fill="#E8E8DD"/>
<path d="M152.947 24.6366C152.993 24.4494 153.251 24.4296 153.326 24.6075L153.47 24.9512C153.503 25.0309 153.584 25.0802 153.67 25.0736L154.04 25.0452C154.234 25.0303 154.334 25.2728 154.185 25.3978L153.907 25.631C153.84 25.6872 153.818 25.7804 153.852 25.8612L153.993 26.1968C154.068 26.3753 153.871 26.5451 153.705 26.4448L153.382 26.2496C153.309 26.2052 153.215 26.2124 153.15 26.2674L152.862 26.5096C152.714 26.634 152.492 26.4964 152.538 26.3086L152.625 25.9554C152.645 25.8705 152.608 25.7818 152.534 25.7365L152.223 25.5485C152.056 25.4478 152.116 25.193 152.31 25.1781L152.68 25.1497C152.766 25.1431 152.838 25.082 152.859 24.9982L152.947 24.6366Z" fill="#E8E8DD"/>
<path d="M156.576 21.8766C156.595 21.6851 156.849 21.6312 156.947 21.7976L157.137 22.1188C157.181 22.1932 157.267 22.2314 157.352 22.2135L157.715 22.1363C157.905 22.0959 158.037 22.3228 157.906 22.4662L157.663 22.7345C157.604 22.799 157.595 22.8943 157.639 22.9697L157.825 23.2839C157.923 23.4508 157.751 23.645 157.573 23.5676L157.227 23.417C157.148 23.3827 157.056 23.4022 156.999 23.4655L156.747 23.7433C156.617 23.8861 156.379 23.7793 156.399 23.5872L156.436 23.2255C156.445 23.1388 156.396 23.0559 156.316 23.0209L155.982 22.8755C155.803 22.7978 155.828 22.5376 156.018 22.4972L156.381 22.42C156.465 22.402 156.528 22.332 156.537 22.2462L156.576 21.8766Z" fill="#E8E8DD"/>
<defs>
<linearGradient id="paint0_linear_123_38508" x1="19.4196" y1="13.7148" x2="284.124" y2="179.185" gradientUnits="userSpaceOnUse">
<stop stop-color="#F3F4EB"/>
<stop offset="1" stop-color="#F2F3EA"/>
</linearGradient>
<linearGradient id="paint1_linear_123_38508" x1="150" y1="60" x2="150" y2="130" gradientUnits="userSpaceOnUse">
<stop stop-color="#608FFF"/>
<stop offset="1" stop-color="#336FFF"/>
</linearGradient>
</defs>
</svg>
