<svg width="30" height="30" viewBox="0 0 30 30" fill="none" xmlns="http://www.w3.org/2000/svg">
<path d="M15 3C16.3255 3 17.4 4.07452 17.4 5.4V24.6C17.4 25.9255 16.3255 27 15 27C13.6745 27 12.6 25.9255 12.6 24.6V5.4C12.6 4.07452 13.6745 3 15 3ZM24.6 7.8C25.9255 7.8 27 8.87452 27 10.2V24.6C27 25.9255 25.9255 27 24.6 27C23.2745 27 22.2 25.9255 22.2 24.6V10.2C22.2 8.87452 23.2745 7.8 24.6 7.8ZM5.4 12.6C6.72548 12.6 7.8 13.6745 7.8 15V24.6C7.8 25.9255 6.72548 27 5.4 27C4.07452 27 3 25.9255 3 24.6V15C3 13.6745 4.07452 12.6 5.4 12.6Z" fill="#104E7A"/>
</svg>
