<svg width="30" height="30" viewBox="0 0 30 30" fill="none" xmlns="http://www.w3.org/2000/svg">
<path d="M28.6033 23.9777L23.8649 19.2393C25.3196 16.666 25.7926 13.6527 25.1962 10.7575C24.5998 7.86225 22.9744 5.28121 20.6211 3.49235C18.2677 1.70349 15.3459 0.828007 12.3966 1.02803C9.44738 1.22806 6.67051 2.49004 4.58027 4.58027C2.49004 6.67051 1.22806 9.44738 1.02803 12.3966C0.828007 15.3459 1.70349 18.2677 3.49235 20.6211C5.28121 22.9744 7.86225 24.5998 10.7575 25.1962C13.6527 25.7926 16.666 25.3196 19.2393 23.8649L23.9777 28.6033C24.2318 28.8573 24.5764 29 24.9356 29C25.2949 29 25.6395 28.8573 25.8935 28.6033L28.6033 25.8935C28.8573 25.6395 29 25.2949 29 24.9356C29 24.5764 28.8573 24.2318 28.6033 23.9777ZM3.76927 13.2535C3.76927 11.3777 4.3255 9.54399 5.36764 7.98432C6.40978 6.42465 7.891 5.20904 9.62401 4.49121C11.357 3.77337 13.264 3.58555 15.1037 3.9515C16.9435 4.31745 18.6334 5.22073 19.9598 6.54712C21.2862 7.87351 22.1895 9.56343 22.5554 11.4032C22.9214 13.2429 22.7335 15.1499 22.0157 16.8829C21.2979 18.6159 20.0823 20.0971 18.5226 21.1393C16.9629 22.1814 15.1293 22.7376 13.2535 22.7376C10.739 22.7348 8.3283 21.7346 6.55029 19.9566C4.77228 18.1786 3.77213 15.7679 3.76927 13.2535Z" fill="#574E90"/>
</svg>
