<svg width="300" height="190" viewBox="0 0 300 190" fill="none" xmlns="http://www.w3.org/2000/svg">
<rect x="1" y="1" width="298" height="188" rx="18" fill="url(#paint0_linear_123_38550)" stroke="#D3DAED" stroke-width="2" stroke-dasharray="2 2"/>
<path fill-rule="evenodd" clip-rule="evenodd" d="M104 112.199C103.448 112.199 103 112.647 103 113.199V123.199C103 123.752 103.448 124.199 104 124.199H196C196.552 124.199 197 123.752 197 123.199V113.199C197 112.647 196.552 112.199 196 112.199H104ZM104 140.199C103.448 140.199 103 140.647 103 141.199V151.199C103 151.752 103.448 152.199 104 152.199H196C196.552 152.199 197 151.752 197 151.199V141.199C197 140.647 196.552 140.199 196 140.199H104Z" fill="#E7D5CB"/>
<mask id="path-3-inside-1_123_38550" fill="white">
<rect x="79" y="20.1992" width="144" height="152" rx="3"/>
</mask>
<rect x="79" y="20.1992" width="144" height="152" rx="3" stroke="#E7D5CB" stroke-width="10" mask="url(#path-3-inside-1_123_38550)"/>
<path d="M139.348 63.1302L139.708 57.485L161.933 57.2969L162.652 63.1302C162.652 63.1302 159.978 64.0711 157.258 65.2001L155.82 63.1302H145.281L144.202 65.2001L139.348 63.1302Z" fill="#E7D5CB"/>
<rect x="134" y="30.1992" width="34" height="33.4946" rx="16.7473" fill="#E7D5CB"/>
<rect x="138.202" y="39.6074" width="25.2135" height="24.8387" rx="12.4194" fill="#E7D5CB"/>
<rect x="138.584" y="34.7148" width="24.8315" height="24.4624" rx="12.2312" fill="#F3EBE7"/>
<rect x="147.753" y="56.9199" width="6.11236" height="6.02151" rx="3.01075" fill="#E7D5CB"/>
<rect x="138.202" y="52.7793" width="25.2135" height="1.50538" fill="#E7D5CB"/>
<path d="M145.982 49.0156H155.636L156.539 53.1554H145.079L145.982 49.0156Z" fill="#E7D5CB"/>
<path d="M151.001 39.0544C151.061 38.8712 151.321 38.8712 151.381 39.0544L151.746 40.1615C151.773 40.2435 151.85 40.2988 151.936 40.2988H153.111C153.306 40.2988 153.386 40.5483 153.228 40.6615L152.282 41.3383C152.211 41.3892 152.181 41.4805 152.209 41.5636L152.571 42.6623C152.632 42.846 152.422 43.0002 152.265 42.8876L151.307 42.2025C151.238 42.1527 151.144 42.1527 151.075 42.2025L150.117 42.8876C149.96 43.0002 149.75 42.846 149.811 42.6623L150.173 41.5636C150.201 41.4805 150.171 41.3892 150.1 41.3383L149.154 40.6615C148.996 40.5483 149.076 40.2988 149.271 40.2988H150.446C150.532 40.2988 150.609 40.2435 150.636 40.1615L151.001 39.0544Z" fill="#E7D5CB"/>
<path d="M145.231 42.0615C145.343 41.9038 145.591 41.9786 145.595 42.171L145.601 42.542C145.603 42.6282 145.66 42.7032 145.742 42.7282L146.098 42.8351C146.284 42.8911 146.287 43.1522 146.102 43.2149L145.756 43.3323C145.673 43.3605 145.617 43.4389 145.619 43.5261L145.625 43.8898C145.629 44.0828 145.382 44.1694 145.265 44.0163L145.038 43.719C144.986 43.6511 144.896 43.624 144.814 43.6517L144.457 43.7729C144.273 43.8353 144.118 43.6278 144.23 43.4696L144.442 43.1716C144.493 43.1002 144.491 43.0047 144.438 42.9356L144.218 42.6476C144.1 42.4939 144.251 42.279 144.437 42.335L144.792 42.442C144.875 42.4669 144.965 42.436 145.015 42.3654L145.231 42.0615Z" fill="#E7D5CB"/>
<path d="M148.476 44.8092C148.547 44.6298 148.805 44.6444 148.855 44.8307L148.951 45.1904C148.973 45.2738 149.046 45.3334 149.133 45.3383L149.503 45.3593C149.697 45.3703 149.763 45.6238 149.598 45.7279L149.291 45.9221C149.217 45.9689 149.182 46.0583 149.205 46.1428L149.298 46.4941C149.348 46.6809 149.13 46.8229 148.979 46.7016L148.686 46.4652C148.619 46.4115 148.526 46.4062 148.453 46.452L148.135 46.6537C147.971 46.7572 147.771 46.5915 147.842 46.4115L147.976 46.0731C148.008 45.9917 147.984 45.8989 147.915 45.8441L147.633 45.6165C147.482 45.4945 147.576 45.2501 147.771 45.2611L148.141 45.2821C148.227 45.287 148.307 45.236 148.339 45.1557L148.476 44.8092Z" fill="#E7D5CB"/>
<path d="M152.947 44.8359C152.993 44.6487 153.251 44.6288 153.326 44.8068L153.47 45.1504C153.503 45.2301 153.584 45.2794 153.67 45.2728L154.04 45.2444C154.234 45.2295 154.334 45.472 154.185 45.597L153.907 45.8302C153.84 45.8864 153.818 45.9797 153.852 46.0604L153.993 46.396C154.068 46.5746 153.871 46.7443 153.705 46.6441L153.382 46.4488C153.309 46.4044 153.215 46.4116 153.15 46.4666L152.862 46.7089C152.714 46.8332 152.492 46.6956 152.538 46.5078L152.625 46.1547C152.645 46.0697 152.608 45.9811 152.534 45.9357L152.223 45.7477C152.056 45.647 152.116 45.3922 152.31 45.3773L152.68 45.3489C152.766 45.3423 152.838 45.2812 152.859 45.1974L152.947 44.8359Z" fill="#E7D5CB"/>
<path d="M156.576 42.0759C156.595 41.8843 156.849 41.8304 156.947 41.9968L157.137 42.318C157.181 42.3925 157.268 42.4307 157.352 42.4127L157.715 42.3355C157.905 42.2951 158.037 42.522 157.906 42.6655L157.663 42.9337C157.604 42.9983 157.595 43.0935 157.639 43.1689L157.825 43.4831C157.923 43.6501 157.751 43.8442 157.573 43.7668L157.227 43.6162C157.148 43.582 157.056 43.6015 156.999 43.6647L156.747 43.9425C156.617 44.0854 156.379 43.9785 156.399 43.7864L156.436 43.4248C156.445 43.338 156.396 43.2551 156.316 43.2201L155.982 43.0748C155.803 42.997 155.828 42.7368 156.018 42.6964L156.381 42.6192C156.465 42.6012 156.528 42.5312 156.537 42.4454L156.576 42.0759Z" fill="#E7D5CB"/>
<rect x="115" y="60" width="70" height="70" rx="35" fill="url(#paint1_linear_123_38550)"/>
<path d="M145.8 81L143.238 83.7778H138.8C137.26 83.7778 136 85.0278 136 86.5556V103.222C136 104.75 137.26 106 138.8 106H161.2C162.74 106 164 104.75 164 103.222V86.5556C164 85.0278 162.74 83.7778 161.2 83.7778H156.762L154.2 81H145.8ZM150 101.833C146.136 101.833 143 98.7222 143 94.8889C143 91.0556 146.136 87.9444 150 87.9444C153.864 87.9444 157 91.0556 157 94.8889C157 98.7222 153.864 101.833 150 101.833Z" fill="white"/>
<defs>
<linearGradient id="paint0_linear_123_38550" x1="19.4196" y1="13.7148" x2="284.124" y2="179.185" gradientUnits="userSpaceOnUse">
<stop stop-color="#F1E7E2"/>
<stop offset="1" stop-color="#F3EEEA"/>
</linearGradient>
<linearGradient id="paint1_linear_123_38550" x1="150" y1="60" x2="150" y2="130" gradientUnits="userSpaceOnUse">
<stop stop-color="#608FFF"/>
<stop offset="1" stop-color="#336FFF"/>
</linearGradient>
</defs>
</svg>
