<svg width="50" height="50" viewBox="0 0 50 50" fill="none" xmlns="http://www.w3.org/2000/svg">
<circle cx="25" cy="25" r="25" fill="#E6F1FE"/>
<path d="M25 33.8743H27.2727V16.8698L34.5386 20.1245C34.7432 20.2161 34.9175 20.3686 35.0399 20.5628C35.1623 20.7571 35.2275 20.9847 35.2273 21.2173V33.8743H37.5V36.25H12.5V33.8743H14.7727V16.454C14.7727 16.2242 14.8365 15.9993 14.9563 15.8066C15.0761 15.6139 15.2468 15.4617 15.4477 15.3683L24.2011 11.3012C24.2877 11.2609 24.3826 11.244 24.477 11.2519C24.5715 11.2598 24.6626 11.2922 24.742 11.3463C24.8214 11.4004 24.8866 11.4743 24.9316 11.5615C24.9767 11.6486 25.0002 11.7461 25 11.8452V33.8743Z" fill="#104E7A"/>
</svg>
