<svg width="27" height="27" viewBox="0 0 27 27" fill="none" xmlns="http://www.w3.org/2000/svg">
<path d="M24.3796 21.1268L14.2332 11.223C13.1927 10.2073 11.5246 10.2265 10.5075 11.2658C9.49032 12.3051 9.5093 13.971 10.5498 14.9867L20.6962 24.8905C21.7368 25.9061 23.4049 25.887 24.422 24.8477C25.4391 23.8083 25.4202 22.1425 24.3796 21.1268Z" fill="#325DB7"/>
<path d="M22.2438 8.81852L16.4565 2.94727C15.855 2.337 14.8719 2.32934 14.2608 2.93014C13.6497 3.53094 13.6419 4.51271 14.2435 5.12297L20.0308 10.9942C20.6324 11.6045 21.6154 11.6122 22.2265 11.0113C22.8376 10.4105 22.8454 9.42878 22.2438 8.81852Z" fill="#325DB7"/>
<path d="M20.418 10.7979L14.4922 4.87988L4.17898 15.1797L10.1048 21.0977L20.418 10.7979Z" fill="#325DB7"/>
<path d="M10.3367 20.6817L4.43187 14.9245C3.81884 14.3268 2.83665 14.3387 2.23809 14.951C1.63953 15.5633 1.65126 16.5442 2.26428 17.1419L8.16916 22.899C8.78219 23.4967 9.76437 23.4849 10.3629 22.8726C10.9615 22.2603 10.9498 21.2794 10.3367 20.6817Z" fill="#325DB7"/>
</svg>
