<svg width="16" height="16" viewBox="0 0 16 16" fill="none" xmlns="http://www.w3.org/2000/svg">
<path d="M8.0001 13.1833H9.16373V4.47694L12.8839 6.14335C12.9886 6.19027 13.0778 6.26831 13.1405 6.36778C13.2032 6.46725 13.2366 6.58376 13.2365 6.70287V13.1833H14.4001V14.3996H1.6001V13.1833H2.76373V4.26408C2.76372 4.1464 2.79636 4.03125 2.85771 3.93259C2.91905 3.83392 3.00646 3.75598 3.10933 3.7082L7.59108 1.6258C7.63542 1.60521 7.68398 1.59654 7.73234 1.60057C7.78071 1.60461 7.82734 1.62123 7.86799 1.64891C7.90864 1.67659 7.94202 1.71447 7.96509 1.75908C7.98817 1.80369 8.0002 1.85363 8.0001 1.90435V13.1833Z" fill="#104E7A"/>
</svg>
