<svg width="27" height="27" viewBox="0 0 27 27" fill="none" xmlns="http://www.w3.org/2000/svg">
<path d="M24.3796 21.1266L14.2332 11.2228C13.1927 10.2071 11.5246 10.2263 10.5075 11.2656C9.49032 12.3049 9.5093 13.9708 10.5498 14.9865L20.6962 24.8903C21.7368 25.906 23.4049 25.8868 24.422 24.8475C25.4391 23.8082 25.4202 22.1423 24.3796 21.1266Z" fill="white"/>
<path d="M22.2438 8.8186L16.4565 2.94734C15.855 2.33708 14.8719 2.32941 14.2608 2.93022C13.6497 3.53102 13.6419 4.51278 14.2435 5.12304L20.0308 10.9943C20.6324 11.6046 21.6154 11.6122 22.2265 11.0114C22.8376 10.4106 22.8454 9.42886 22.2438 8.8186Z" fill="white"/>
<path d="M20.418 10.7979L14.4922 4.87988L4.17891 15.1797L10.1047 21.0977L20.418 10.7979Z" fill="white"/>
<path d="M10.3367 20.6816L4.43187 14.9244C3.81884 14.3267 2.83665 14.3386 2.23809 14.9509C1.63953 15.5632 1.65126 16.5441 2.26428 17.1418L8.16916 22.899C8.78219 23.4967 9.76437 23.4848 10.3629 22.8725C10.9615 22.2602 10.9498 21.2793 10.3367 20.6816Z" fill="white"/>
</svg>
