<svg width="300" height="190" viewBox="0 0 300 190" fill="none" xmlns="http://www.w3.org/2000/svg">
<rect x="1" y="1" width="298" height="188" rx="18" fill="url(#paint0_linear_123_38439)" stroke="#D3DAED" stroke-width="2" stroke-dasharray="2 2"/>
<path fill-rule="evenodd" clip-rule="evenodd" d="M147 40C146.448 40 146 40.4477 146 41V51C146 51.5523 146.448 52 147 52H263C263.552 52 264 51.5523 264 51V41C264 40.4477 263.552 40 263 40H147ZM147 67C146.448 67 146 67.4477 146 68V78C146 78.5523 146.448 79 147 79H263C263.552 79 264 78.5523 264 78V68C264 67.4477 263.552 67 263 67H147ZM35 132C35 131.448 35.4477 131 36 131H116C116.552 131 117 131.448 117 132V142C117 142.552 116.552 143 116 143H36C35.4477 143 35 142.552 35 142V132ZM36 153C35.4477 153 35 153.448 35 154V164C35 164.552 35.4477 165 36 165H263C263.552 165 264 164.552 264 164V154C264 153.448 263.552 153 263 153H36Z" fill="#E2ECFC"/>
<path d="M44.1124 109.269L44.9266 96.3657L95.2591 95.9355L96.8876 109.269C96.8876 109.269 90.8315 111.419 84.6735 114L81.4164 109.269H57.5479L55.1051 114L44.1124 109.269Z" fill="#E2ECFC"/>
<rect x="32" y="34" width="77" height="76.5591" rx="38.2796" fill="#E2ECFC"/>
<rect x="41.5168" y="55.5059" width="57.1011" height="56.7742" rx="28.3871" fill="#E2ECFC"/>
<rect x="42.382" y="44.3223" width="56.236" height="55.914" rx="27.957" fill="#F7F8F8"/>
<rect x="63.1461" y="95.0762" width="13.8427" height="13.7634" rx="6.88172" fill="#E2ECFC"/>
<rect x="41.5168" y="85.6133" width="57.1011" height="3.44086" fill="#E2ECFC"/>
<path d="M59.1368 77.0117H80.9981L83.045 86.4741H57.0899L59.1368 77.0117Z" fill="#E2ECFC"/>
<path d="M70.7425 53.5056C70.8026 53.3217 71.0626 53.3217 71.1227 53.5056L72.2472 56.9467C72.2741 57.029 72.3508 57.0846 72.4373 57.0846H76.0739C76.268 57.0846 76.3483 57.3331 76.1911 57.4467L73.251 59.5706C73.1805 59.6215 73.151 59.7122 73.178 59.7948L74.3015 63.2328C74.3616 63.4168 74.1512 63.5704 73.9942 63.457L71.0497 61.3299C70.9798 61.2794 70.8854 61.2794 70.8155 61.3299L67.8709 63.457C67.714 63.5704 67.5036 63.4168 67.5637 63.2328L68.6872 59.7948C68.7142 59.7122 68.6847 59.6215 68.6142 59.5706L65.6741 57.4467C65.5168 57.3331 65.5972 57.0846 65.7912 57.0846H69.4278C69.5144 57.0846 69.5911 57.029 69.6179 56.9467L70.7425 53.5056Z" fill="#E2ECFC"/>
<path d="M57.8812 60.4785C57.9927 60.3202 58.2417 60.3958 58.2451 60.5891L58.2768 62.3961C58.2783 62.4826 58.3354 62.5581 58.4182 62.5832L60.1546 63.111C60.3402 63.1674 60.3441 63.4282 60.1603 63.4912L58.4454 64.0783C58.3631 64.1065 58.3083 64.1845 58.3098 64.2713L58.3415 66.0756C58.3449 66.269 58.0984 66.3545 57.9816 66.2004L56.8874 64.7567C56.8353 64.688 56.7449 64.6606 56.6631 64.6886L54.944 65.2772C54.7605 65.34 54.6042 65.132 54.7158 64.9735L55.7568 63.4953C55.8069 63.4242 55.8053 63.3291 55.7529 63.2599L54.6613 61.8198C54.5444 61.6654 54.6943 61.4514 54.8799 61.5078L56.6162 62.0355C56.699 62.0607 56.7888 62.0298 56.8387 61.959L57.8812 60.4785Z" fill="#E2ECFC"/>
<path d="M65.0656 66.6731C65.1362 66.493 65.3958 66.5079 65.4452 66.6948L65.9067 68.4432C65.9288 68.5269 66.0021 68.5868 66.0885 68.5918L67.9011 68.6955C68.0948 68.7066 68.1607 68.9592 67.9971 69.0637L66.4714 70.0378C66.3981 70.0846 66.3634 70.1734 66.3856 70.2575L66.8463 72.0027C66.8957 72.1899 66.6768 72.3312 66.5266 72.209L65.1192 71.0639C65.0523 71.0094 64.958 71.0041 64.8853 71.0505L63.355 72.0275C63.1918 72.1318 62.9906 71.9664 63.0613 71.7861L63.7203 70.105C63.752 70.024 63.7278 69.9318 63.6603 69.8769L62.2571 68.7352C62.1067 68.6128 62.2013 68.3693 62.395 68.3804L64.2076 68.4841C64.294 68.4891 64.3738 68.4379 64.4053 68.3573L65.0656 66.6731Z" fill="#E2ECFC"/>
<path d="M75.0913 66.7031C75.1368 66.5152 75.3961 66.4951 75.4704 66.6737L76.1649 68.3442C76.1981 68.4241 76.279 68.4737 76.3652 68.467L78.1753 68.3266C78.3688 68.3116 78.4683 68.5531 78.3204 68.6786L76.9408 69.8484C76.8745 69.9047 76.8522 69.9973 76.8856 70.0776L77.5789 71.7451C77.6532 71.9239 77.4554 72.0933 77.2901 71.9924L75.7401 71.0465C75.6665 71.0016 75.5724 71.0089 75.5066 71.0646L74.1229 72.238C73.9753 72.3632 73.7535 72.2263 73.799 72.0382L74.2239 70.284C74.2444 70.1995 74.2079 70.1114 74.1336 70.0661L72.5883 69.1231C72.4226 69.0219 72.4833 68.768 72.6767 68.753L74.4869 68.6126C74.5731 68.6059 74.6453 68.5445 74.6656 68.4605L75.0913 66.7031Z" fill="#E2ECFC"/>
<path d="M83.2058 60.3776C83.2255 60.1854 83.4798 60.1308 83.5776 60.2978L84.4915 61.8603C84.5352 61.935 84.622 61.9733 84.7066 61.9552L86.4814 61.5742C86.6711 61.5335 86.8024 61.7595 86.6728 61.9035L85.4636 63.2472C85.4055 63.3118 85.3959 63.4065 85.4399 63.4816L86.3522 65.0414C86.4501 65.2087 86.2769 65.4029 86.0994 65.325L84.4358 64.5949C84.3567 64.5601 84.2644 64.58 84.2067 64.644L82.9943 65.9915C82.8649 66.1352 82.6266 66.0294 82.6463 65.8369L82.8303 64.0417C82.8391 63.9553 82.7911 63.8729 82.7114 63.838L81.0524 63.1098C80.8746 63.0318 80.9004 62.7721 81.0901 62.7314L82.8649 62.3505C82.9495 62.3323 83.0127 62.2618 83.0215 62.1758L83.2058 60.3776Z" fill="#E2ECFC"/>
<rect x="115" y="60" width="70" height="70" rx="35" fill="url(#paint1_linear_123_38439)"/>
<path d="M145.8 81L143.238 83.7778H138.8C137.26 83.7778 136 85.0278 136 86.5556V103.222C136 104.75 137.26 106 138.8 106H161.2C162.74 106 164 104.75 164 103.222V86.5556C164 85.0278 162.74 83.7778 161.2 83.7778H156.762L154.2 81H145.8ZM150 101.833C146.136 101.833 143 98.7222 143 94.8889C143 91.0556 146.136 87.9444 150 87.9444C153.864 87.9444 157 91.0556 157 94.8889C157 98.7222 153.864 101.833 150 101.833Z" fill="white"/>
<defs>
<linearGradient id="paint0_linear_123_38439" x1="19.4196" y1="13.7148" x2="284.124" y2="179.185" gradientUnits="userSpaceOnUse">
<stop stop-color="#F0FAFF"/>
<stop offset="0.53" stop-color="#F7F7F7"/>
<stop offset="1" stop-color="#F3F4FA"/>
</linearGradient>
<linearGradient id="paint1_linear_123_38439" x1="150" y1="60" x2="150" y2="130" gradientUnits="userSpaceOnUse">
<stop stop-color="#608FFF"/>
<stop offset="1" stop-color="#336FFF"/>
</linearGradient>
</defs>
</svg>
