<svg width="300" height="190" viewBox="0 0 300 190" fill="none" xmlns="http://www.w3.org/2000/svg">
<rect x="1" y="1" width="298" height="188" rx="18" fill="url(#paint0_linear_17_2731)" stroke="#D3DAED" stroke-width="2" stroke-dasharray="2 2"/>
<path fill-rule="evenodd" clip-rule="evenodd" d="M36 60C35.4477 60 35 60.4477 35 61V71C35 71.5523 35.4477 72 36 72H135C135.552 72 136 71.5523 136 71V61C136 60.4477 135.552 60 135 60H36ZM36 84C35.4477 84 35 84.4477 35 85V95C35 95.5523 35.4477 96 36 96H135C135.552 96 136 95.5523 136 95V85C136 84.4477 135.552 84 135 84H36ZM35 109C35 108.448 35.4477 108 36 108H135C135.552 108 136 108.448 136 109V119C136 119.552 135.552 120 135 120H36C35.4477 120 35 119.552 35 119V109ZM36 157C35.4477 157 35 157.448 35 158V168C35 168.552 35.4477 169 36 169H268C268.552 169 269 168.552 269 168V158C269 157.448 268.552 157 268 157H36Z" fill="#E2ECFC"/>
<rect x="115" y="60" width="70" height="70" rx="35" fill="url(#paint1_linear_17_2731)"/>
<path d="M145.8 81L143.238 83.7778H138.8C137.26 83.7778 136 85.0278 136 86.5556V103.222C136 104.75 137.26 106 138.8 106H161.2C162.74 106 164 104.75 164 103.222V86.5556C164 85.0278 162.74 83.7778 161.2 83.7778H156.762L154.2 81H145.8ZM150 101.833C146.136 101.833 143 98.7222 143 94.8889C143 91.0556 146.136 87.9444 150 87.9444C153.864 87.9444 157 91.0556 157 94.8889C157 98.7222 153.864 101.833 150 101.833Z" fill="white"/>
<path fill-rule="evenodd" clip-rule="evenodd" d="M242.087 75.5098C242.087 75.5098 243.757 73.1787 245.739 74.3096C247.721 75.4397 247.09 79.6135 245.739 81.701C244.388 83.7879 242.206 84.8193 241 83.2168" fill="#FBE4E5"/>
<path fill-rule="evenodd" clip-rule="evenodd" d="M214.094 75.5098C214.094 75.5098 212.702 73.1787 211.051 74.3096C209.399 75.4397 209.925 79.6135 211.051 81.701C212.177 83.7879 213.994 84.8193 215 83.2168" fill="#FBE4E5"/>
<path fill-rule="evenodd" clip-rule="evenodd" d="M219.685 92V103.444C219.685 103.444 217.305 108.04 210 109.467C210 109.467 222.643 123 229.104 123C235.078 123 248 109.467 248 109.467C248 109.467 238.147 107.01 237.467 103.444V92" fill="#FBE4E5"/>
<path fill-rule="evenodd" clip-rule="evenodd" d="M243.937 69.6627C243.937 69.6627 245.837 96 228.745 96C211.655 96 213.026 69.6627 213.026 69.6627C213.026 69.6627 212.201 54 229.324 54C245.261 54 243.937 69.6627 243.937 69.6627Z" fill="#FAEBE4"/>
<path fill-rule="evenodd" clip-rule="evenodd" d="M218.374 99.8412C218.374 99.8412 205.752 104.056 201.979 106.152C199.011 107.8 196.205 108.032 194.319 118.239C193.258 123.982 198 129 203.84 129H255.121C260.975 129 265.76 123.946 264.632 118.201C262.896 109.354 260.371 109.491 256.626 106.152C251.751 101.806 238.869 99.8412 238.869 99.8412C238.869 99.8412 238.479 97.4247 237.6 97.0317C237.132 96.8222 232.723 97.7195 228.914 97.7195C225.106 97.7195 220.782 96.8482 220.326 97.0317C219.35 97.4247 218.374 99.8412 218.374 99.8412Z" fill="#CADFFC"/>
<path fill-rule="evenodd" clip-rule="evenodd" d="M219 50.607C218.991 50.6103 218.979 50.613 218.969 50.617C218.605 50.48 213.392 48.6362 210.857 54.1281C208.686 58.8345 211.214 67.5139 212.156 70.3839C212.451 71.6815 212.773 72.9657 213.086 74.2111L214.503 63.8791C214.67 62.6711 215.071 61.5166 215.673 60.477C216.428 59.1988 219.436 54.8347 223.799 57.8564C228.568 61.1589 234.145 66.1862 242.185 61.7312L243.517 75C244.268 72.586 244.918 70.1726 245.344 67.8448C251.315 49.3455 239.811 43.8803 231.918 44.002C222.485 44.1477 219.105 50.4098 219 50.607Z" fill="#C5D0DE"/>
<defs>
<linearGradient id="paint0_linear_17_2731" x1="19.4196" y1="13.7148" x2="284.124" y2="179.185" gradientUnits="userSpaceOnUse">
<stop stop-color="#F0FAFF"/>
<stop offset="0.53" stop-color="#F7F7F7"/>
<stop offset="1" stop-color="#F3F4FA"/>
</linearGradient>
<linearGradient id="paint1_linear_17_2731" x1="150" y1="60" x2="150" y2="130" gradientUnits="userSpaceOnUse">
<stop stop-color="#608FFF"/>
<stop offset="1" stop-color="#336FFF"/>
</linearGradient>
</defs>
</svg>
