<svg width="36" height="36" viewBox="0 0 36 36" fill="none" xmlns="http://www.w3.org/2000/svg">
<path d="M18 7.80046V30.375M18 7.80046C16.1022 6.45308 13.5256 5.625 10.6875 5.625C7.84945 5.625 5.27283 6.45308 3.375 7.80046V30.375C5.27283 29.0276 7.84945 28.1995 10.6875 28.1995C13.5256 28.1995 16.1022 29.0276 18 30.375M18 7.80046C19.8978 6.45308 22.4744 5.625 25.3125 5.625C28.1506 5.625 30.7272 6.45308 32.625 7.80046V30.375C30.7272 29.0276 28.1506 28.1995 25.3125 28.1995C22.4744 28.1995 19.8978 29.0276 18 30.375" stroke="white" stroke-width="2.5" stroke-linecap="round" stroke-linejoin="round"/>
<path d="M22.5 14.625H28.125M22.5 20.25H28.125" stroke="white" stroke-width="2" stroke-linecap="round" stroke-linejoin="round"/>
</svg>
