<svg width="32" height="32" viewBox="0 0 32 32" fill="none" xmlns="http://www.w3.org/2000/svg">
<g clip-path="url(#clip0_1340_21670)">
<path d="M30.6696 5.33325V13.3333H22.6696" stroke="#4F88FF" stroke-width="3.08333" stroke-linecap="round" stroke-linejoin="round"/>
<path d="M27.3236 20.0001C26.4569 22.4533 24.8163 24.5584 22.6491 25.9981C20.4819 27.4378 17.9055 28.1342 15.3081 27.9822C12.7107 27.8303 10.2331 26.8383 8.24856 25.1557C6.26403 23.4731 4.88012 21.1911 4.30538 18.6535C3.73063 16.116 3.99619 13.4604 5.06204 11.0869C6.12789 8.71337 7.93627 6.75059 10.2147 5.49429C12.4931 4.23799 15.1181 3.75624 17.6942 4.12163C20.2702 4.48702 22.6577 5.67975 24.4969 7.5201L30.6702 13.3334" stroke="#4F88FF" stroke-width="3.08333" stroke-linecap="round" stroke-linejoin="round"/>
</g>
<defs>
<clipPath id="clip0_1340_21670">
<rect width="32" height="32" fill="white"/>
</clipPath>
</defs>
</svg>
