<svg width="32" height="32" viewBox="0 0 32 32" fill="none" xmlns="http://www.w3.org/2000/svg">
<path d="M16 6.93374V27M16 6.93374C14.313 5.73607 12.0227 5 9.5 5C6.97729 5 4.68696 5.73607 3 6.93374V27C4.68696 25.8023 6.97729 25.0663 9.5 25.0663C12.0227 25.0663 14.313 25.8023 16 27M16 6.93374C17.687 5.73607 19.9773 5 22.5 5C25.0227 5 27.313 5.73607 29 6.93374V27C27.313 25.8023 25.0227 25.0663 22.5 25.0663C19.9773 25.0663 17.687 25.8023 16 27" stroke="white" stroke-width="2.5" stroke-linecap="round" stroke-linejoin="round"/>
<path d="M20 13H25M20 18H25" stroke="white" stroke-width="2" stroke-linecap="round" stroke-linejoin="round"/>
</svg>
